SplineFontDB: 3.0
FontName: Dyuthi
FullName: Dyuthi
FamilyName: Dyuthi
Weight: Book
Copyright: Digitized data copyright (c) 2007,Hiran Venugopalan, Hussain K H,Suresh P, Swathanthra Malayalam Computing(http://smc.org.in)
Version: 1.0.1.1
ItalicAngle: 0
UnderlinePosition: -1800
UnderlineWidth: 120
Ascent: 1434
Descent: 614
InvalidEm: 0
LayerCount: 2
Layer: 0 1 "Back" 1
Layer: 1 1 "Fore" 0
XUID: [1021 400 913805956 9518307]
FSType: 0
OS2Version: 1
OS2_WeightWidthSlopeOnly: 0
OS2_UseTypoMetrics: 1
CreationTime: 1201144287
ModificationTime: 1450011449
PfmFamily: 17
TTFWeight: 400
TTFWidth: 5
LineGap: 0
VLineGap: 0
Panose: 2 0 6 3 0 0 0 0 0 0
OS2TypoAscent: 0
OS2TypoAOffset: 1
OS2TypoDescent: 0
OS2TypoDOffset: 1
OS2TypoLinegap: 0
OS2WinAscent: 0
OS2WinAOffset: 1
OS2WinDescent: 0
OS2WinDOffset: 1
HheadAscent: 0
HheadAOffset: 1
HheadDescent: 0
HheadDOffset: 1
OS2SubXSize: 1330
OS2SubYSize: 1226
OS2SubXOff: 0
OS2SubYOff: 152
OS2SupXSize: 1330
OS2SupYSize: 1430
OS2SupXOff: 0
OS2SupYOff: 978
OS2StrikeYSize: 100
OS2StrikeYPos: 512
OS2CapHeight: 0
OS2XHeight: 0
OS2Vendor: 'PfEd'
OS2CodePages: 00000000.80000000
OS2UnicodeRanges: 80800001.00002000.00000000.00000000
Lookup: 4 0 0 "'akhn' Akhand in Malay+AQEA-lam lookup 0" { "'akhn' Akhand in Malay+AQEA-lam lookup 0 subtable"  } ['akhn' ('mlym' <'dflt' > ) ]
Lookup: 4 0 0 "'half' Half Forms in Malay+AQEA-lam lookup 1" { "'half' Half Forms in Malay+AQEA-lam lookup 1 subtable"  } ['half' ('mlym' <'dflt' > ) ]
Lookup: 4 0 0 "'blwf' Below Base Forms in Malay+AQEA-lam lookup 2" { "'blwf' Below Base Forms in Malay+AQEA-lam lookup 2 subtable"  } ['blwf' ('mlym' <'dflt' > ) ]
Lookup: 4 0 0 "'blws' Below Base Substitutions in Malay+AQEA-lam lookup 3" { "'blws' Below Base Substitutions in Malay+AQEA-lam lookup 3 subtable"  } ['blws' ('mlym' <'dflt' > ) ]
Lookup: 4 0 0 "'pres' Pre Base Substitutions in Malay+AQEA-lam lookup 4" { "'pres' Pre Base Substitutions in Malay+AQEA-lam lookup 4 subtable"  } ['pres' ('mlym' <'dflt' > ) ]

StartChar: .notdef
Encoding: 187 -1 0
Width: 598
GlyphClass: 2
Flags: W
LayerCount: 2
Back
Fore
SplineSet
44 0 m 1,0,-1
 44 932 l 1,1,-1
 512 932 l 1,2,-1
 512 0 l 1,3,-1
 44 0 l 1,0,-1
92 44 m 1,4,-1
 468 44 l 1,5,-1
 468 884 l 1,6,-1
 92 884 l 1,7,-1
 92 44 l 1,4,-1
EndSplineSet
EndChar

StartChar: exclam
Encoding: 4 33 4
Width: 512
VWidth: 1495
GlyphClass: 2
Flags: W
LayerCount: 2
Back
Fore
SplineSet
376.655273438 928.559570312 m 2,0,1
 379.575195312 969.440429688 379.575195312 969.440429688 350.375 998.639648438 c 256,2,3
 324.094726562 1027.83984375 324.094726562 1027.83984375 283.21484375 1027.83984375 c 2,4,-1
 230.655273438 1027.83984375 l 2,5,6
 189.775390625 1027.83984375 189.775390625 1027.83984375 163.495117188 998.639648438 c 256,7,8
 135.754882812 969.440429688 135.754882812 969.440429688 137.21484375 928.559570312 c 2,9,-1
 162.03515625 449.6796875 l 2,10,11
 164.955078125 411.719726562 164.955078125 411.719726562 191.235351562 386.900390625 c 256,12,13
 218.974609375 362.080078125 218.974609375 362.080078125 256.934570312 362.080078125 c 2,14,-1
 256.934570312 362.080078125 l 2,15,16
 294.895507812 362.080078125 294.895507812 362.080078125 322.634765625 386.900390625 c 256,17,18
 348.915039062 411.719726562 348.915039062 411.719726562 351.834960938 449.6796875 c 2,19,-1
 376.655273438 928.559570312 l 2,0,1
353.294921875 35.0400390625 m 0,21,22
 315.334960938 -5.83984375 315.334960938 -5.83984375 256.934570312 -5.83984375 c 0,23,24
 201.455078125 -5.83984375 201.455078125 -5.83984375 160.575195312 35.0400390625 c 0,25,26
 119.6953125 74.4599609375 119.6953125 74.4599609375 119.6953125 131.400390625 c 0,27,28
 119.6953125 186.879882812 119.6953125 186.879882812 160.575195312 227.759765625 c 128,-1,29
 201.455078125 268.639648438 201.455078125 268.639648438 256.934570312 267.1796875 c 0,30,31
 315.334960938 268.639648438 315.334960938 268.639648438 353.294921875 227.759765625 c 0,32,33
 394.174804688 188.33984375 394.174804688 188.33984375 392.71484375 131.400390625 c 0,34,20
 394.174804688 74.4599609375 394.174804688 74.4599609375 353.294921875 35.0400390625 c 0,21,22
EndSplineSet
EndChar

StartChar: quotedbl
Encoding: 5 34 5
Width: 519
VWidth: 1495
GlyphClass: 2
Flags: W
LayerCount: 2
Back
Fore
SplineSet
461.212890625 699.33984375 m 2,0,1
 456.833007812 677.440429688 456.833007812 677.440429688 442.233398438 662.83984375 c 0,2,3
 427.6328125 648.240234375 427.6328125 648.240234375 407.193359375 648.240234375 c 2,4,-1
 366.313476562 648.240234375 l 2,5,6
 342.953125 648.240234375 342.953125 648.240234375 328.353515625 662.83984375 c 0,7,8
 312.29296875 677.440429688 312.29296875 677.440429688 310.833007812 699.33984375 c 2,9,-1
 288.93359375 943.16015625 l 2,10,11
 286.012695312 984.040039062 286.012695312 984.040039062 313.752929688 1016.16015625 c 256,12,13
 342.953125 1048.28027344 342.953125 1048.28027344 385.29296875 1048.28027344 c 2,14,-1
 386.752929688 1048.28027344 l 2,15,16
 429.092773438 1048.28027344 429.092773438 1048.28027344 458.29296875 1016.16015625 c 256,17,18
 487.493164062 984.040039062 487.493164062 984.040039062 483.11328125 943.16015625 c 2,19,-1
 461.212890625 699.33984375 l 2,0,1
208.6328125 699.33984375 m 2,20,21
 205.712890625 677.440429688 205.712890625 677.440429688 191.11328125 662.83984375 c 0,22,23
 173.592773438 648.240234375 173.592773438 648.240234375 153.153320312 648.240234375 c 2,24,-1
 113.733398438 648.240234375 l 2,25,26
 94.7529296875 648.240234375 94.7529296875 648.240234375 77.2333984375 662.83984375 c 0,27,28
 62.6328125 677.440429688 62.6328125 677.440429688 59.712890625 699.33984375 c 2,29,-1
 36.353515625 943.16015625 l 2,30,31
 33.43359375 984.040039062 33.43359375 984.040039062 61.1728515625 1016.16015625 c 0,32,33
 90.373046875 1048.28027344 90.373046875 1048.28027344 132.712890625 1048.28027344 c 2,34,-1
 135.6328125 1048.28027344 l 2,35,36
 177.97265625 1048.28027344 177.97265625 1048.28027344 205.712890625 1016.16015625 c 0,37,38
 234.913085938 984.040039062 234.913085938 984.040039062 230.533203125 943.16015625 c 2,39,-1
 208.6328125 699.33984375 l 2,20,21
EndSplineSet
EndChar

StartChar: numbersign
Encoding: 6 35 6
Width: 833
VWidth: 1495
GlyphClass: 2
Flags: W
LayerCount: 2
Back
Fore
SplineSet
480.291992188 394.200195312 m 1,0,-1
 503.651367188 560.639648438 l 1,1,-1
 359.111328125 560.639648438 l 1,2,-1
 334.291992188 394.200195312 l 1,3,-1
 480.291992188 394.200195312 l 1,0,-1
170.771484375 258.419921875 m 1,4,-1
 106.53125 258.419921875 l 2,5,6
 78.7919921875 256.959960938 78.7919921875 256.959960938 59.8115234375 277.400390625 c 256,7,8
 39.37109375 297.83984375 39.37109375 297.83984375 39.37109375 325.580078125 c 2,9,-1
 39.37109375 327.040039062 l 2,10,11
 39.37109375 353.3203125 39.37109375 353.3203125 59.8115234375 373.759765625 c 256,12,13
 80.251953125 394.200195312 80.251953125 394.200195312 106.53125 394.200195312 c 2,14,-1
 194.131835938 394.200195312 l 1,15,-1
 218.951171875 560.639648438 l 1,16,-1
 153.251953125 560.639648438 l 2,17,18
 126.971679688 560.639648438 126.971679688 560.639648438 106.53125 581.080078125 c 256,19,20
 86.091796875 601.51953125 86.091796875 601.51953125 86.091796875 627.799804688 c 2,21,-1
 86.091796875 627.799804688 l 2,22,23
 86.091796875 657 86.091796875 657 106.53125 675.98046875 c 0,24,25
 126.971679688 694.959960938 126.971679688 694.959960938 153.251953125 694.959960938 c 2,26,-1
 240.8515625 694.959960938 l 1,27,-1
 272.971679688 894.98046875 l 2,28,29
 275.891601562 919.799804688 275.891601562 919.799804688 296.331054688 935.860351562 c 0,30,31
 316.771484375 951.919921875 316.771484375 951.919921875 340.131835938 951.919921875 c 2,32,-1
 341.591796875 951.919921875 l 2,33,34
 372.251953125 951.919921875 372.251953125 951.919921875 392.69140625 928.559570312 c 256,35,36
 413.131835938 905.200195312 413.131835938 905.200195312 408.751953125 873.080078125 c 2,37,-1
 381.01171875 694.959960938 l 1,38,-1
 527.01171875 694.959960938 l 1,39,-1
 557.671875 893.51953125 l 2,40,41
 559.131835938 918.33984375 559.131835938 918.33984375 579.571289062 935.860351562 c 0,42,43
 600.01171875 951.919921875 600.01171875 951.919921875 624.831054688 951.919921875 c 2,44,-1
 627.751953125 951.919921875 l 2,45,46
 658.411132812 951.919921875 658.411132812 951.919921875 678.8515625 928.559570312 c 256,47,48
 699.291992188 905.200195312 699.291992188 905.200195312 694.911132812 873.080078125 c 2,49,-1
 667.171875 694.959960938 l 1,50,-1
 727.03125 694.959960938 l 2,51,52
 754.771484375 694.959960938 754.771484375 694.959960938 775.211914062 675.98046875 c 0,53,54
 795.651367188 657 795.651367188 657 794.19140625 627.799804688 c 2,55,-1
 794.19140625 627.799804688 l 2,56,57
 795.651367188 601.51953125 795.651367188 601.51953125 775.211914062 581.080078125 c 256,58,59
 754.771484375 560.639648438 754.771484375 560.639648438 727.03125 560.639648438 c 2,60,-1
 643.811523438 560.639648438 l 1,61,-1
 620.451171875 394.200195312 l 1,62,-1
 681.771484375 394.200195312 l 2,63,64
 709.51171875 394.200195312 709.51171875 394.200195312 729.951171875 373.759765625 c 256,65,66
 748.931640625 353.3203125 748.931640625 353.3203125 748.931640625 327.040039062 c 2,67,-1
 748.931640625 325.580078125 l 2,68,69
 748.931640625 297.83984375 748.931640625 297.83984375 729.951171875 277.400390625 c 256,70,71
 708.051757812 256.959960938 708.051757812 256.959960938 681.771484375 258.419921875 c 2,72,-1
 594.171875 258.419921875 l 1,73,-1
 564.971679688 54.01953125 l 2,74,75
 562.051757812 27.740234375 562.051757812 27.740234375 541.611328125 11.6796875 c 256,76,77
 521.171875 -5.83984375 521.171875 -5.83984375 494.891601562 -5.83984375 c 2,78,-1
 494.891601562 -5.83984375 l 2,79,80
 462.771484375 -5.83984375 462.771484375 -5.83984375 442.331054688 18.98046875 c 0,81,82
 421.891601562 42.33984375 421.891601562 42.33984375 424.811523438 74.4599609375 c 2,83,-1
 454.01171875 258.419921875 l 1,84,-1
 310.931640625 258.419921875 l 1,85,-1
 278.811523438 54.01953125 l 2,86,87
 275.891601562 27.740234375 275.891601562 27.740234375 255.451171875 11.6796875 c 0,88,89
 237.931640625 -5.83984375 237.931640625 -5.83984375 211.651367188 -5.83984375 c 2,90,-1
 208.731445312 -5.83984375 l 2,91,92
 176.611328125 -5.83984375 176.611328125 -5.83984375 156.171875 18.98046875 c 0,93,94
 135.731445312 42.33984375 135.731445312 42.33984375 141.571289062 74.4599609375 c 2,95,-1
 170.771484375 258.419921875 l 1,4,-1
EndSplineSet
EndChar

StartChar: dollar
Encoding: 7 36 7
Width: 770
VWidth: 1495
GlyphClass: 2
Flags: W
LayerCount: 2
Back
Fore
SplineSet
448.272460938 397.120117188 m 1,0,1
 542.59765625 392.005859375 542.59765625 392.005859375 556.3125 306.599609375 c 0,2,3
 572.372070312 209.509765625 572.372070312 209.509765625 448.272460938 204.400390625 c 1,4,-1
 448.272460938 397.120117188 l 1,0,1
308.112304688 833.66015625 m 1,6,-1
 308.112304688 657 l 1,7,8
 195.692382812 667.950195312 195.692382812 667.950195312 207.372070312 741.6796875 c 0,9,5
 220.951171875 834.225585938 220.951171875 834.225585938 308.112304688 833.66015625 c 1,6,-1
670.192382812 516.83984375 m 0,11,12
 665.8125 521.219726562 665.8125 521.219726562 464.33203125 621.959960938 c 0,13,14
 448.272460938 630.719726562 l 1,15,-1
 448.272460938 843.879882812 l 1,16,17
 476.01171875 843.879882812 476.01171875 843.879882812 525.65234375 835.120117188 c 0,18,19
 565.072265625 827.8203125 565.072265625 827.8203125 597.192382812 849.719726562 c 128,-1,20
 629.3125 871.620117188 629.3125 871.620117188 635.15234375 909.580078125 c 1,21,-1
 636.612304688 911.040039062 l 1,22,23
 643.912109375 951.919921875 643.912109375 951.919921875 620.551757812 984.040039062 c 0,24,25
 596.461914062 1016.88964844 596.461914062 1016.88964844 557.772460938 1023.45996094 c 0,26,27
 482.58203125 1035.13964844 482.58203125 1035.13964844 448.272460938 1036.59960938 c 1,28,-1
 448.272460938 1149.01953125 l 2,29,30
 448.272460938 1170.27148438 448.272460938 1170.27148438 421.9921875 1176.75976562 c 0,31,32
 389.872070312 1184.79003906 389.872070312 1184.79003906 348.9921875 1188.44042969 c 2,33,-1
 348.9921875 1188.44042969 l 2,34,35
 331.471679688 1188.44042969 331.471679688 1188.44042969 319.791992188 1176.75976562 c 128,-1,36
 308.112304688 1165.08007812 308.112304688 1165.08007812 308.112304688 1149.01953125 c 2,37,-1
 308.112304688 1030.75976562 l 1,38,39
 189.122070312 1015.4296875 189.122070312 1015.4296875 97.8720703125 919.799804688 c 0,40,41
 11.001953125 829.280273438 11.001953125 829.280273438 21.9521484375 702.259765625 c 0,42,43
 40.2021484375 489.099609375 40.2021484375 489.099609375 293.51171875 426.3203125 c 0,44,45
 296.431640625 425.58984375 296.431640625 425.58984375 308.112304688 423.400390625 c 1,46,-1
 308.112304688 192.719726562 l 1,47,48
 281.83203125 192.719726562 281.83203125 192.719726562 197.15234375 210.240234375 c 0,49,50
 156.272460938 219 156.272460938 219 121.232421875 195.639648438 c 128,-1,51
 86.1923828125 172.280273438 86.1923828125 172.280273438 80.3515625 129.940429688 c 1,52,-1
 78.8916015625 128.48046875 l 1,53,54
 73.0517578125 88.330078125 73.0517578125 88.330078125 94.9521484375 55.48046875 c 0,55,56
 116.122070312 24.08984375 116.122070312 24.08984375 156.272460938 16.0595703125 c 0,57,58
 258.471679688 -5.83984375 258.471679688 -5.83984375 308.112304688 -2.919921875 c 1,59,-1
 308.112304688 -110.959960938 l 2,60,61
 308.112304688 -135.049804688 308.112304688 -135.049804688 319.791992188 -138.700195312 c 256,62,63
 344.612304688 -146.73046875 344.612304688 -146.73046875 378.192382812 -150.379882812 c 2,64,-1
 378.192382812 -150.379882812 l 2,65,66
 436.591796875 -138.700195312 l 256,67,68
 448.272460938 -127.01953125 448.272460938 -127.01953125 448.272460938 -110.959960938 c 2,69,-1
 448.272460938 5.83984375 l 1,70,71
 603.032226562 32.1201171875 603.032226562 32.1201171875 687.711914062 137.240234375 c 0,72,73
 758.522460938 225.5703125 758.522460938 225.5703125 749.032226562 343.099609375 c 0,74,10
 740.272460938 446.759765625 740.272460938 446.759765625 670.192382812 516.83984375 c 0,11,12
EndSplineSet
EndChar

StartChar: percent
Encoding: 8 37 8
Width: 1419
VWidth: 1495
GlyphClass: 2
Flags: W
LayerCount: 2
Back
Fore
SplineSet
992.799804688 146 m 0,1,2
 1022 97.8203125 1022 97.8203125 1071.63964844 97.8203125 c 0,3,4
 1173.83984375 97.8203125 1173.83984375 97.8203125 1173.83984375 270.099609375 c 256,5,6
 1173.83984375 442.379882812 1173.83984375 442.379882812 1070.1796875 442.379882812 c 0,7,8
 1019.08007812 440.919921875 1019.08007812 440.919921875 992.799804688 391.280273438 c 0,9,10
 966.51953125 344.559570312 966.51953125 344.559570312 966.51953125 270.099609375 c 0,11,0
 966.51953125 192.719726562 966.51953125 192.719726562 992.799804688 146 c 0,1,2
1264.36035156 52.5595703125 m 0,13,14
 1185.51953125 -26.2802734375 1185.51953125 -26.2802734375 1067.25976562 -24.8203125 c 0,15,16
 947.540039062 -24.8203125 947.540039062 -24.8203125 870.16015625 52.5595703125 c 0,17,18
 788.400390625 132.860351562 788.400390625 132.860351562 788.400390625 264.259765625 c 0,19,20
 788.400390625 394.200195312 788.400390625 394.200195312 867.240234375 478.879882812 c 0,21,22
 949 563.559570312 949 563.559570312 1077.48046875 563.559570312 c 0,23,24
 1205.95996094 563.559570312 1205.95996094 563.559570312 1278.95996094 484.719726562 c 0,25,26
 1351.95996094 405.879882812 1351.95996094 405.879882812 1351.95996094 280.3203125 c 0,27,12
 1351.95996094 137.240234375 1351.95996094 137.240234375 1264.36035156 52.5595703125 c 0,13,14
913.959960938 934.400390625 m 2,28,29
 928.559570312 960.6796875 928.559570312 960.6796875 960.6796875 960.6796875 c 2,30,-1
 960.6796875 960.6796875 l 2,31,32
 992.799804688 960.6796875 992.799804688 960.6796875 1008.86035156 932.940429688 c 0,33,34
 1024.91992188 908.120117188 1024.91992188 908.120117188 1007.40039062 878.919921875 c 2,35,-1
 484.719726562 -1.4599609375 l 2,36,37
 470.120117188 -27.740234375 470.120117188 -27.740234375 438 -27.740234375 c 2,38,-1
 435.080078125 -27.740234375 l 2,39,40
 402.959960938 -27.740234375 402.959960938 -27.740234375 386.900390625 0 c 256,41,42
 373.759765625 29.2001953125 373.759765625 29.2001953125 388.360351562 55.48046875 c 2,43,-1
 913.959960938 934.400390625 l 2,28,29
252.580078125 543.120117188 m 0,45,46
 283.240234375 493.48046875 283.240234375 493.48046875 332.879882812 493.48046875 c 0,47,48
 432.16015625 493.48046875 432.16015625 493.48046875 432.16015625 668.6796875 c 0,49,50
 432.16015625 840.959960938 432.16015625 840.959960938 328.5 840.959960938 c 0,51,52
 278.860351562 840.959960938 278.860351562 840.959960938 251.120117188 789.860351562 c 0,53,54
 226.299804688 741.6796875 226.299804688 741.6796875 226.299804688 665.759765625 c 0,55,44
 224.83984375 589.83984375 224.83984375 589.83984375 252.580078125 543.120117188 c 0,45,46
525.599609375 449.6796875 m 0,57,58
 446.759765625 370.83984375 446.759765625 370.83984375 327.040039062 370.83984375 c 0,59,60
 207.3203125 370.83984375 207.3203125 370.83984375 128.48046875 449.6796875 c 0,61,62
 46.7197265625 531.440429688 46.7197265625 531.440429688 46.7197265625 662.83984375 c 0,63,64
 46.7197265625 792.780273438 46.7197265625 792.780273438 125.559570312 876 c 0,65,66
 204.400390625 962.139648438 204.400390625 962.139648438 335.799804688 962.139648438 c 0,67,68
 464.280273438 963.599609375 464.280273438 963.599609375 540.200195312 881.83984375 c 0,69,70
 611.740234375 803 611.740234375 803 611.740234375 677.440429688 c 0,71,56
 613.200195312 534.360351562 613.200195312 534.360351562 525.599609375 449.6796875 c 0,57,58
EndSplineSet
EndChar

StartChar: ampersand
Encoding: 9 38 9
Width: 979
VWidth: 1495
GlyphClass: 2
Flags: W
LayerCount: 2
Back
Fore
SplineSet
303.095703125 195.639648438 m 0,1,2
 262.215820312 233.599609375 262.215820312 233.599609375 262.215820312 292 c 0,3,4
 262.215820312 359.16015625 262.215820312 359.16015625 335.215820312 408.799804688 c 1,5,6
 489.9765625 248.200195312 489.9765625 248.200195312 510.416015625 227.759765625 c 0,7,8
 525.016601562 216.080078125 525.016601562 216.080078125 522.095703125 200.01953125 c 256,9,10
 519.17578125 182.5 519.17578125 182.5 503.116210938 175.200195312 c 0,11,12
 460.776367188 157.6796875 460.776367188 157.6796875 416.9765625 157.6796875 c 0,13,0
 346.896484375 157.6796875 346.896484375 157.6796875 303.095703125 195.639648438 c 0,1,2
463.696289062 881.83984375 m 2,14,15
 504.576171875 881.83984375 504.576171875 881.83984375 530.856445312 849.719726562 c 0,16,17
 551.295898438 820.51953125 551.295898438 820.51953125 551.295898438 782.559570312 c 0,18,19
 551.295898438 715.400390625 551.295898438 715.400390625 468.076171875 655.540039062 c 0,20,21
 441.795898438 635.099609375 441.795898438 635.099609375 419.896484375 661.379882812 c 0,22,23
 370.255859375 718.3203125 370.255859375 718.3203125 370.255859375 779.639648438 c 0,24,25
 370.255859375 820.51953125 370.255859375 820.51953125 393.616210938 849.719726562 c 0,26,27
 419.896484375 881.83984375 419.896484375 881.83984375 460.776367188 881.83984375 c 2,28,-1
 463.696289062 881.83984375 l 2,14,15
755.696289062 411.719726562 m 1,29,30
 741.095703125 376.6796875 741.095703125 376.6796875 726.49609375 343.099609375 c 0,31,32
 682.696289062 391.280273438 l 0,33,34
 659.3359375 414.639648438 659.3359375 414.639648438 618.456054688 458.440429688 c 0,35,36
 571.736328125 508.080078125 571.736328125 508.080078125 552.755859375 528.51953125 c 1,37,-1
 554.215820312 534.360351562 l 1,38,39
 764.456054688 630.719726562 764.456054688 630.719726562 764.456054688 788.400390625 c 0,40,41
 764.456054688 893.51953125 764.456054688 893.51953125 682.696289062 959.219726562 c 0,42,43
 602.396484375 1022 602.396484375 1022 476.8359375 1022 c 0,44,45
 326.456054688 1022 326.456054688 1022 235.936523438 937.3203125 c 0,46,47
 154.17578125 861.400390625 154.17578125 861.400390625 154.17578125 759.200195312 c 0,48,49
 154.17578125 654.080078125 154.17578125 654.080078125 235.936523438 566.48046875 c 1,50,-1
 235.936523438 562.099609375 l 1,51,52
 34.4560546875 464.280273438 34.4560546875 464.280273438 34.4560546875 277.400390625 c 0,53,54
 34.4560546875 162.059570312 34.4560546875 162.059570312 123.516601562 83.2197265625 c 0,55,56
 224.255859375 -5.83984375 224.255859375 -5.83984375 405.295898438 -5.83984375 c 0,57,58
 577.576171875 -5.83984375 577.576171875 -5.83984375 697.295898438 81.759765625 c 1,59,-1
 698.755859375 81.759765625 l 1,60,61
 713.356445312 65.7001953125 713.356445312 65.7001953125 730.875976562 48.1796875 c 0,62,63
 767.375976562 11.6796875 767.375976562 11.6796875 819.936523438 11.6796875 c 2,64,-1
 822.856445312 11.6796875 l 2,65,66
 887.095703125 11.6796875 887.095703125 11.6796875 910.456054688 68.6201171875 c 0,67,68
 936.736328125 127.01953125 936.736328125 127.01953125 892.936523438 172.280273438 c 0,69,70
 878.3359375 189.799804688 878.3359375 189.799804688 859.356445312 207.3203125 c 1,71,72
 892.936523438 239.440429688 892.936523438 239.440429688 930.896484375 297.83984375 c 0,73,74
 951.3359375 327.040039062 951.3359375 327.040039062 942.576171875 363.540039062 c 0,75,76
 935.276367188 400.040039062 935.276367188 400.040039062 908.99609375 420.48046875 c 0,77,78
 863.736328125 458.440429688 863.736328125 458.440429688 837.456054688 455.51953125 c 0,79,80
 796.576171875 452.599609375 796.576171875 452.599609375 755.696289062 411.719726562 c 1,81,-1
 755.696289062 411.719726562 l 1,29,30
EndSplineSet
EndChar

StartChar: quotesingle
Encoding: 10 39 10
Width: 340
VWidth: 1495
GlyphClass: 2
Flags: W
LayerCount: 2
Back
Fore
SplineSet
245.668945312 699.33984375 m 2,0,1
 242.749023438 677.440429688 242.749023438 677.440429688 228.149414062 662.83984375 c 0,2,3
 212.088867188 648.240234375 212.088867188 648.240234375 190.189453125 648.240234375 c 2,4,-1
 149.309570312 648.240234375 l 2,5,6
 128.869140625 648.240234375 128.869140625 648.240234375 112.809570312 662.83984375 c 0,7,8
 96.7490234375 677.440429688 96.7490234375 677.440429688 95.2890625 699.33984375 c 2,9,-1
 73.3896484375 943.16015625 l 2,10,11
 70.46875 984.040039062 70.46875 984.040039062 96.7490234375 1016.16015625 c 0,12,13
 125.94921875 1048.28027344 125.94921875 1048.28027344 169.749023438 1048.28027344 c 2,14,-1
 171.208984375 1048.28027344 l 2,15,16
 213.548828125 1048.28027344 213.548828125 1048.28027344 242.749023438 1016.16015625 c 0,17,18
 271.94921875 984.040039062 271.94921875 984.040039062 266.109375 943.16015625 c 2,19,-1
 245.668945312 699.33984375 l 2,0,1
EndSplineSet
EndChar

StartChar: parenleft
Encoding: 11 40 11
Width: 601
VWidth: 1495
GlyphClass: 2
Flags: W
LayerCount: 2
Back
Fore
SplineSet
375.219726562 1147.55957031 m 2,0,1
 420.48046875 1147.55957031 420.48046875 1147.55957031 445.299804688 1108.13964844 c 256,2,3
 470.120117188 1065.79980469 470.120117188 1065.79980469 449.6796875 1024.91992188 c 0,4,5
 338.719726562 776.719726562 338.719726562 776.719726562 338.719726562 458.440429688 c 0,6,7
 338.719726562 146 338.719726562 146 452.599609375 -106.580078125 c 0,8,9
 473.040039062 -148.919921875 473.040039062 -148.919921875 446.759765625 -189.799804688 c 0,10,11
 423.400390625 -227.759765625 423.400390625 -227.759765625 376.6796875 -227.759765625 c 2,12,-1
 373.759765625 -227.759765625 l 2,13,14
 329.959960938 -227.759765625 329.959960938 -227.759765625 303.6796875 -189.799804688 c 0,15,16
 128.48046875 87.599609375 128.48046875 87.599609375 128.48046875 458.440429688 c 0,17,18
 131.400390625 836.580078125 131.400390625 836.580078125 303.6796875 1109.59960938 c 0,19,20
 329.959960938 1147.55957031 329.959960938 1147.55957031 373.759765625 1147.55957031 c 2,21,-1
 375.219726562 1147.55957031 l 2,0,1
EndSplineSet
EndChar

StartChar: parenright
Encoding: 12 41 12
Width: 541
VWidth: 1495
GlyphClass: 2
Flags: W
LayerCount: 2
Back
Fore
SplineSet
192.453125 1147.55957031 m 2,0,1
 236.252929688 1147.55957031 236.252929688 1147.55957031 261.072265625 1109.59960938 c 0,2,3
 433.352539062 835.120117188 433.352539062 835.120117188 436.272460938 458.440429688 c 0,4,5
 436.272460938 87.599609375 436.272460938 87.599609375 261.072265625 -189.799804688 c 0,6,7
 236.252929688 -227.759765625 236.252929688 -227.759765625 192.453125 -227.759765625 c 2,8,-1
 189.532226562 -227.759765625 l 2,9,10
 145.732421875 -227.759765625 145.732421875 -227.759765625 119.453125 -189.799804688 c 0,11,12
 96.0927734375 -148.919921875 96.0927734375 -148.919921875 113.612304688 -106.580078125 c 0,13,14
 227.4921875 146 227.4921875 146 227.4921875 458.440429688 c 0,15,16
 227.4921875 776.719726562 227.4921875 776.719726562 113.612304688 1024.91992188 c 0,17,18
 94.6328125 1067.25976562 94.6328125 1067.25976562 119.453125 1108.13964844 c 256,19,20
 144.272460938 1147.55957031 144.272460938 1147.55957031 189.532226562 1147.55957031 c 2,21,-1
 192.453125 1147.55957031 l 2,0,1
EndSplineSet
EndChar

StartChar: asterisk
Encoding: 13 42 13
Width: 778
VWidth: 1495
GlyphClass: 2
Flags: W
LayerCount: 2
Back
Fore
SplineSet
456.98046875 943.16015625 m 2,0,1
 445.299804688 934.400390625 445.299804688 934.400390625 448.219726562 922.719726562 c 0,2,3
 451.139648438 909.580078125 451.139648438 909.580078125 464.280273438 908.120117188 c 2,4,-1
 595.6796875 884.759765625 l 2,5,6
 621.959960938 880.379882812 621.959960938 880.379882812 636.559570312 858.48046875 c 0,7,8
 651.16015625 835.120117188 651.16015625 835.120117188 640.940429688 808.83984375 c 1,9,-1
 639.48046875 808.83984375 l 1,10,11
 630.719726562 782.559570312 630.719726562 782.559570312 607.360351562 772.33984375 c 256,12,13
 581.080078125 762.120117188 581.080078125 762.120117188 557.719726562 773.799804688 c 2,14,-1
 438 835.120117188 l 2,15,16
 426.3203125 840.959960938 426.3203125 840.959960938 417.559570312 832.200195312 c 0,17,18
 407.33984375 823.440429688 407.33984375 823.440429688 411.719726562 810.299804688 c 2,19,-1
 459.900390625 683.280273438 l 2,20,21
 470.120117188 657 470.120117188 657 456.98046875 633.639648438 c 0,22,23
 440.919921875 607.360351562 440.919921875 607.360351562 414.639648438 601.51953125 c 1,24,-1
 414.639648438 601.51953125 l 1,25,26
 388.360351562 595.6796875 388.360351562 595.6796875 365 613.200195312 c 256,27,28
 341.639648438 630.719726562 341.639648438 630.719726562 341.639648438 657 c 2,29,-1
 332.879882812 794.240234375 l 2,30,31
 332.879882812 805.919921875 332.879882812 805.919921875 318.280273438 811.759765625 c 0,32,33
 306.599609375 814.6796875 306.599609375 814.6796875 297.83984375 805.919921875 c 2,34,-1
 205.860351562 700.799804688 l 2,35,36
 186.879882812 680.360351562 186.879882812 680.360351562 160.599609375 680.360351562 c 0,37,38
 134.3203125 680.360351562 134.3203125 680.360351562 116.799804688 700.799804688 c 1,39,-1
 116.799804688 702.259765625 l 1,40,41
 99.2802734375 721.240234375 99.2802734375 721.240234375 105.120117188 747.51953125 c 256,42,43
 110.959960938 773.799804688 110.959960938 773.799804688 131.400390625 788.400390625 c 2,44,-1
 246.740234375 861.400390625 l 2,45,46
 259.879882812 867.240234375 259.879882812 867.240234375 256.959960938 881.83984375 c 0,47,48
 254.040039062 896.440429688 254.040039062 896.440429688 239.440429688 899.360351562 c 2,49,-1
 113.879882812 921.259765625 l 2,50,51
 87.599609375 925.639648438 87.599609375 925.639648438 73 949 c 256,52,53
 58.400390625 972.360351562 58.400390625 972.360351562 68.6201171875 998.639648438 c 1,54,-1
 68.6201171875 998.639648438 l 1,55,56
 77.3798828125 1024.91992188 77.3798828125 1024.91992188 102.200195312 1035.13964844 c 256,57,58
 128.48046875 1045.36035156 128.48046875 1045.36035156 151.83984375 1033.6796875 c 2,59,-1
 264.259765625 975.280273438 l 2,60,61
 275.940429688 969.440429688 275.940429688 969.440429688 286.16015625 978.200195312 c 0,62,63
 297.83984375 986.959960938 297.83984375 986.959960938 292 1000.09960938 c 2,64,-1
 245.280273438 1127.12011719 l 2,65,66
 236.51953125 1153.40039062 236.51953125 1153.40039062 248.200195312 1176.75976562 c 0,67,68
 262.799804688 1201.58007812 262.799804688 1201.58007812 289.080078125 1205.95996094 c 1,69,-1
 289.080078125 1205.95996094 l 1,70,71
 315.360351562 1211.79980469 315.360351562 1211.79980469 338.719726562 1195.74023438 c 0,72,73
 359.16015625 1176.75976562 359.16015625 1176.75976562 362.080078125 1150.48046875 c 2,74,-1
 367.919921875 1016.16015625 l 2,75,76
 367.919921875 1003.01953125 367.919921875 1003.01953125 382.51953125 998.639648438 c 0,77,78
 394.200195312 994.259765625 394.200195312 994.259765625 402.959960938 1004.48046875 c 2,79,-1
 493.48046875 1109.59960938 l 2,80,81
 511 1130.04003906 511 1130.04003906 538.740234375 1130.04003906 c 0,82,83
 565.01953125 1130.04003906 565.01953125 1130.04003906 584 1109.59960938 c 2,84,-1
 584 1109.59960938 l 2,85,86
 601.51953125 1089.16015625 601.51953125 1089.16015625 598.599609375 1061.41992188 c 256,87,88
 595.6796875 1033.6796875 595.6796875 1033.6796875 572.3203125 1019.08007812 c 2,89,-1
 456.98046875 943.16015625 l 2,0,1
EndSplineSet
EndChar

StartChar: plus
Encoding: 14 43 14
Width: 1245
VWidth: 1495
GlyphClass: 2
Flags: W
LayerCount: 2
Back
Fore
SplineSet
697.879882812 525.599609375 m 1,0,-1
 960.6796875 525.599609375 l 2,1,2
 989.879882812 525.599609375 989.879882812 525.599609375 1007.40039062 505.16015625 c 256,3,4
 1027.83984375 484.719726562 1027.83984375 484.719726562 1027.83984375 458.440429688 c 2,5,-1
 1027.83984375 455.51953125 l 2,6,7
 1027.83984375 427.780273438 1027.83984375 427.780273438 1007.40039062 408.799804688 c 0,8,9
 986.959960938 388.360351562 986.959960938 388.360351562 960.6796875 388.360351562 c 2,10,-1
 697.879882812 388.360351562 l 1,11,-1
 697.879882812 140.16015625 l 2,12,13
 697.879882812 108.040039062 697.879882812 108.040039062 674.51953125 84.6796875 c 256,14,15
 651.16015625 61.3203125 651.16015625 61.3203125 621.959960938 62.7802734375 c 2,16,-1
 619.040039062 62.7802734375 l 2,17,18
 586.919921875 61.3203125 586.919921875 61.3203125 565.01953125 84.6796875 c 0,19,20
 543.120117188 108.040039062 543.120117188 108.040039062 543.120117188 140.16015625 c 2,21,-1
 543.120117188 388.360351562 l 1,22,-1
 280.3203125 388.360351562 l 2,23,24
 251.120117188 388.360351562 251.120117188 388.360351562 232.139648438 408.799804688 c 0,25,26
 213.16015625 429.240234375 213.16015625 429.240234375 213.16015625 455.51953125 c 2,27,-1
 213.16015625 458.440429688 l 2,28,29
 213.16015625 487.639648438 213.16015625 487.639648438 232.139648438 505.16015625 c 256,30,31
 252.580078125 525.599609375 252.580078125 525.599609375 280.3203125 525.599609375 c 2,32,-1
 543.120117188 525.599609375 l 1,33,-1
 543.120117188 770.879882812 l 2,34,35
 543.120117188 803 543.120117188 803 565.01953125 823.440429688 c 0,36,37
 586.919921875 846.799804688 586.919921875 846.799804688 619.040039062 846.799804688 c 2,38,-1
 621.959960938 846.799804688 l 2,39,40
 654.080078125 846.799804688 654.080078125 846.799804688 674.51953125 823.440429688 c 256,41,42
 697.879882812 800.080078125 697.879882812 800.080078125 697.879882812 770.879882812 c 2,43,-1
 697.879882812 525.599609375 l 1,0,-1
EndSplineSet
EndChar

StartChar: comma
Encoding: 15 44 15
Width: 465
VWidth: 1495
GlyphClass: 2
Flags: W
LayerCount: 2
Back
Fore
SplineSet
315.360351562 227.759765625 m 0,1,2
 275.940429688 268.639648438 275.940429688 268.639648438 220.459960938 267.1796875 c 0,3,4
 166.440429688 268.639648438 166.440429688 268.639648438 125.559570312 227.759765625 c 0,5,6
 84.6796875 188.33984375 84.6796875 188.33984375 84.6796875 131.400390625 c 0,7,8
 84.6796875 84.6796875 84.6796875 84.6796875 113.879882812 48.1796875 c 0,9,10
 143.080078125 11.6796875 143.080078125 11.6796875 186.879882812 0 c 1,11,12
 181.040039062 -8.759765625 181.040039062 -8.759765625 172.280273438 -11.6796875 c 2,13,-1
 169.360351562 -11.6796875 l 2,14,15
 166.440429688 -16.0595703125 166.440429688 -16.0595703125 146 -26.2802734375 c 0,16,17
 110.959960938 -40.8798828125 110.959960938 -40.8798828125 113.879882812 -73 c 0,18,19
 116.799804688 -102.200195312 116.799804688 -102.200195312 134.3203125 -108.040039062 c 0,20,21
 208.780273438 -129.940429688 208.780273438 -129.940429688 281.780273438 -49.6396484375 c 0,22,23
 356.240234375 30.66015625 356.240234375 30.66015625 356.240234375 131.400390625 c 0,24,0
 356.240234375 188.33984375 356.240234375 188.33984375 315.360351562 227.759765625 c 0,1,2
EndSplineSet
EndChar

StartChar: hyphen
Encoding: 16 45 16
Width: 681
VWidth: 1495
GlyphClass: 2
Flags: W
LayerCount: 2
Back
Fore
SplineSet
566.48046875 389.8203125 m 2,0,1
 566.48046875 359.16015625 566.48046875 359.16015625 540.200195312 335.799804688 c 0,2,3
 516.83984375 312.440429688 516.83984375 312.440429688 481.799804688 312.440429688 c 2,4,-1
 175.200195312 312.440429688 l 2,5,6
 140.16015625 312.440429688 140.16015625 312.440429688 115.33984375 335.799804688 c 256,7,8
 90.51953125 359.16015625 90.51953125 359.16015625 90.51953125 389.8203125 c 2,9,-1
 90.51953125 391.280273438 l 2,10,11
 90.51953125 423.400390625 90.51953125 423.400390625 115.33984375 446.759765625 c 256,12,13
 140.16015625 470.120117188 140.16015625 470.120117188 175.200195312 468.66015625 c 2,14,-1
 481.799804688 468.66015625 l 2,15,16
 516.83984375 470.120117188 516.83984375 470.120117188 540.200195312 446.759765625 c 0,17,18
 566.48046875 423.400390625 566.48046875 423.400390625 566.48046875 391.280273438 c 2,19,-1
 566.48046875 389.8203125 l 2,0,1
EndSplineSet
EndChar

StartChar: period
Encoding: 17 46 17
Width: 465
VWidth: 1495
GlyphClass: 2
Flags: W
LayerCount: 2
Back
Fore
SplineSet
346.01953125 43.7998046875 m 0,1,2
 306.599609375 2.919921875 306.599609375 2.919921875 251.120117188 2.919921875 c 0,3,4
 195.639648438 2.919921875 195.639648438 2.919921875 154.759765625 43.7998046875 c 0,5,6
 115.33984375 84.6796875 115.33984375 84.6796875 115.33984375 140.16015625 c 0,7,8
 115.33984375 195.639648438 115.33984375 195.639648438 154.759765625 235.059570312 c 0,9,10
 195.639648438 274.48046875 195.639648438 274.48046875 251.120117188 274.48046875 c 0,11,12
 306.599609375 274.48046875 306.599609375 274.48046875 346.01953125 235.059570312 c 0,13,14
 385.440429688 195.639648438 385.440429688 195.639648438 385.440429688 140.16015625 c 0,15,0
 385.440429688 84.6796875 385.440429688 84.6796875 346.01953125 43.7998046875 c 0,1,2
EndSplineSet
EndChar

StartChar: slash
Encoding: 18 47 18
Width: 455
VWidth: 1495
GlyphClass: 2
Flags: W
LayerCount: 2
Back
Fore
SplineSet
316.8203125 1048.28027344 m 2,0,1
 334.33984375 1100.83984375 334.33984375 1100.83984375 388.360351562 1100.83984375 c 2,2,-1
 389.8203125 1100.83984375 l 2,3,4
 427.780273438 1100.83984375 427.780273438 1100.83984375 451.139648438 1071.63964844 c 0,5,6
 473.040039062 1039.51953125 473.040039062 1039.51953125 461.360351562 1003.01953125 c 2,7,-1
 138.700195312 11.6796875 l 2,8,9
 122.639648438 -40.8798828125 122.639648438 -40.8798828125 67.16015625 -40.8798828125 c 2,10,-1
 64.240234375 -40.8798828125 l 2,11,12
 26.2802734375 -40.8798828125 26.2802734375 -40.8798828125 4.3798828125 -11.6796875 c 256,13,14
 -17.51953125 17.51953125 -17.51953125 17.51953125 -5.83984375 55.48046875 c 2,15,-1
 316.8203125 1048.28027344 l 2,0,1
EndSplineSet
EndChar

StartChar: zero
Encoding: 19 48 19
Width: 1017
VWidth: 1495
GlyphClass: 2
Flags: W
LayerCount: 2
Back
Fore
SplineSet
350.400390625 232.139648438 m 4,1,2
 289.080078125 334.33984375 289.080078125 334.33984375 289.080078125 522.6796875 c 256,3,4
 289.080078125 703.719726562 289.080078125 703.719726562 350.400390625 805.919921875 c 0,5,6
 414.639648438 908.120117188 414.639648438 908.120117188 503.700195312 908.120117188 c 256,7,8
 592.759765625 908.120117188 592.759765625 908.120117188 655.540039062 805.919921875 c 256,9,10
 718.3203125 703.719726562 718.3203125 703.719726562 718.3203125 522.6796875 c 256,11,12
 718.3203125 334.33984375 718.3203125 334.33984375 655.540039062 232.139648438 c 260,13,14
 592.759765625 129.940429688 592.759765625 129.940429688 503.700195312 129.940429688 c 260,15,0
 414.639648438 129.940429688 414.639648438 129.940429688 350.400390625 232.139648438 c 4,1,2
503.700195312 1048.28027344 m 256,17,18
 496.400390625 1048.28027344 496.400390625 1048.28027344 475.959960938 1045.36035156 c 0,19,20
 296.379882812 1024.91992188 296.379882812 1024.91992188 185.419921875 887.6796875 c 0,21,22
 68.6201171875 741.6796875 68.6201171875 741.6796875 68.6201171875 508.080078125 c 0,23,24
 70.080078125 292 70.080078125 292 172.280273438 157.6796875 c 0,25,26
 280.3203125 14.599609375 280.3203125 14.599609375 475.959960938 0 c 0,27,28
 487.639648438 -2.919921875 487.639648438 -2.919921875 493.48046875 -2.919921875 c 0,29,30
 496.400390625 -2.919921875 496.400390625 -2.919921875 499.3203125 -2.919921875 c 256,31,32
 502.240234375 -2.919921875 502.240234375 -2.919921875 503.700195312 -2.919921875 c 0,33,34
 505.16015625 -2.919921875 505.16015625 -2.919921875 508.080078125 -2.919921875 c 0,35,36
 511 -2.919921875 511 -2.919921875 513.919921875 -2.919921875 c 0,37,38
 519.759765625 -2.919921875 519.759765625 -2.919921875 531.440429688 0 c 0,39,40
 727.080078125 14.599609375 727.080078125 14.599609375 835.120117188 157.6796875 c 0,41,42
 937.3203125 294.919921875 937.3203125 294.919921875 937.3203125 508.080078125 c 0,43,44
 937.3203125 741.6796875 937.3203125 741.6796875 820.51953125 887.6796875 c 0,45,46
 709.559570312 1024.91992188 709.559570312 1024.91992188 531.440429688 1045.36035156 c 0,47,16
 512.459960938 1048.28027344 512.459960938 1048.28027344 503.700195312 1048.28027344 c 256,17,18
EndSplineSet
EndChar

StartChar: one
Encoding: 20 49 20
Width: 805
VWidth: 1495
GlyphClass: 2
Flags: W
LayerCount: 2
Back
Fore
SplineSet
431.255859375 951.919921875 m 2,0,1
 396.215820312 951.919921875 396.215820312 951.919921875 367.015625 919.799804688 c 1,2,3
 367.015625 919.799804688 l 1,4,-1
 367.015625 919.799804688 l 1,5,6
 320.295898438 870.16015625 320.295898438 870.16015625 247.295898438 839.5 c 0,7,8
 212.255859375 824.900390625 212.255859375 824.900390625 197.65625 792.780273438 c 0,9,10
 183.055664062 759.200195312 183.055664062 759.200195312 199.116210938 725.620117188 c 2,11,-1
 200.576171875 724.16015625 l 2,12,13
 215.17578125 692.040039062 215.17578125 692.040039062 244.375976562 680.360351562 c 0,14,15
 276.49609375 665.759765625 276.49609375 665.759765625 308.616210938 678.900390625 c 0,16,17
 346.576171875 694.959960938 346.576171875 694.959960938 383.076171875 715.400390625 c 1,18,-1
 383.076171875 109.5 l 2,19,20
 383.076171875 64.240234375 383.076171875 64.240234375 416.65625 29.2001953125 c 0,21,22
 451.696289062 -5.83984375 451.696289062 -5.83984375 498.416015625 -5.83984375 c 2,23,-1
 501.3359375 -5.83984375 l 2,24,25
 548.055664062 -5.83984375 548.055664062 -5.83984375 581.635742188 29.2001953125 c 0,26,27
 615.215820312 62.7802734375 615.215820312 62.7802734375 615.215820312 109.5 c 2,28,-1
 615.215820312 870.16015625 l 2,29,30
 615.215820312 903.740234375 615.215820312 903.740234375 591.856445312 928.559570312 c 0,31,32
 568.49609375 951.919921875 568.49609375 951.919921875 533.456054688 951.919921875 c 2,33,-1
 431.255859375 951.919921875 l 2,0,1
EndSplineSet
EndChar

StartChar: two
Encoding: 21 50 21
Width: 943
VWidth: 1495
GlyphClass: 2
Flags: W
LayerCount: 2
Back
Fore
SplineSet
770.587890625 565.01953125 m 0,1,2
 796.868164062 624.879882812 796.868164062 624.879882812 796.868164062 690.580078125 c 0,3,4
 796.868164062 807.379882812 796.868164062 807.379882812 703.427734375 886.219726562 c 0,5,6
 611.447265625 963.599609375 611.447265625 963.599609375 450.84765625 963.599609375 c 0,7,8
 319.447265625 963.599609375 319.447265625 963.599609375 214.328125 890.599609375 c 0,9,10
 182.208007812 867.240234375 182.208007812 867.240234375 179.288085938 829.280273438 c 0,11,12
 176.368164062 788.400390625 176.368164062 788.400390625 207.02734375 765.040039062 c 1,13,-1
 208.487304688 765.040039062 l 2,14,15
 231.84765625 746.059570312 231.84765625 746.059570312 261.047851562 746.059570312 c 256,16,17
 290.248046875 744.599609375 290.248046875 744.599609375 312.147460938 765.040039062 c 0,18,19
 354.487304688 800.080078125 354.487304688 800.080078125 409.967773438 805.919921875 c 0,20,21
 471.288085938 811.759765625 471.288085938 811.759765625 518.0078125 776.719726562 c 0,22,23
 529.6875 770.879882812 529.6875 770.879882812 538.447265625 763.580078125 c 0,24,25
 555.967773438 747.51953125 555.967773438 747.51953125 564.727539062 724.16015625 c 0,26,27
 573.487304688 703.719726562 573.487304688 703.719726562 576.408203125 683.280273438 c 0,28,29
 582.248046875 632.1796875 582.248046875 632.1796875 544.288085938 589.83984375 c 0,30,31
 538.447265625 581.080078125 538.447265625 581.080078125 532.607421875 572.3203125 c 0,32,33
 515.087890625 551.879882812 515.087890625 551.879882812 164.6875 119.719726562 c 0,34,35
 134.02734375 81.759765625 134.02734375 81.759765625 154.467773438 37.9599609375 c 0,36,37
 173.447265625 -5.83984375 173.447265625 -5.83984375 223.087890625 -5.83984375 c 2,38,-1
 703.427734375 -5.83984375 l 2,39,40
 739.927734375 -5.83984375 739.927734375 -5.83984375 769.127929688 21.900390625 c 0,41,42
 795.408203125 49.6396484375 795.408203125 49.6396484375 796.868164062 87.599609375 c 2,43,-1
 796.868164062 90.51953125 l 2,44,45
 795.408203125 128.48046875 795.408203125 128.48046875 769.127929688 156.219726562 c 0,46,47
 741.387695312 183.959960938 741.387695312 183.959960938 703.427734375 183.959960938 c 2,48,-1
 462.52734375 183.959960938 l 1,49,50
 491.727539062 221.919921875 491.727539062 221.919921875 687.368164062 440.919921875 c 0,51,0
 744.307617188 505.16015625 744.307617188 505.16015625 770.587890625 565.01953125 c 0,1,2
EndSplineSet
EndChar

StartChar: three
Encoding: 22 51 22
Width: 930
VWidth: 1495
GlyphClass: 2
Flags: W
LayerCount: 2
Back
Fore
SplineSet
722.553710938 785.48046875 m 0,1,2
 710.874023438 881.83984375 710.874023438 881.83984375 608.673828125 943.16015625 c 0,3,4
 506.473632812 1004.48046875 506.473632812 1004.48046875 363.393554688 1004.48046875 c 0,5,6
 325.43359375 1004.48046875 325.43359375 1004.48046875 290.393554688 1001.55957031 c 0,7,8
 249.513671875 997.1796875 249.513671875 997.1796875 211.553710938 985.5 c 0,9,10
 161.9140625 972.360351562 161.9140625 972.360351562 161.9140625 919.799804688 c 2,11,-1
 161.9140625 918.33984375 l 2,12,13
 161.9140625 883.299804688 161.9140625 883.299804688 189.654296875 864.3203125 c 0,14,15
 215.93359375 843.879882812 215.93359375 843.879882812 249.513671875 852.639648438 c 0,16,17
 268.494140625 855.559570312 268.494140625 855.559570312 287.473632812 858.48046875 c 0,18,19
 302.07421875 861.400390625 302.07421875 861.400390625 319.59375 861.400390625 c 0,20,21
 386.75390625 861.400390625 386.75390625 861.400390625 436.393554688 829.280273438 c 256,22,23
 486.034179688 797.16015625 486.034179688 797.16015625 490.4140625 753.360351562 c 0,24,25
 496.25390625 700.799804688 496.25390625 700.799804688 446.614257812 659.919921875 c 0,26,27
 423.25390625 639.48046875 423.25390625 639.48046875 344.4140625 617.580078125 c 0,28,29
 287.473632812 601.51953125 287.473632812 601.51953125 287.473632812 543.120117188 c 2,30,-1
 287.473632812 540.200195312 l 2,31,32
 287.473632812 511 287.473632812 511 304.994140625 490.559570312 c 0,33,34
 322.513671875 470.120117188 322.513671875 470.120117188 351.713867188 464.280273438 c 0,35,36
 404.2734375 455.51953125 404.2734375 455.51953125 420.333984375 446.759765625 c 0,37,38
 459.75390625 426.3203125 459.75390625 426.3203125 480.194335938 385.440429688 c 256,39,40
 500.633789062 347.48046875 500.633789062 347.48046875 491.874023438 303.6796875 c 2,41,-1
 491.874023438 294.919921875 l 2,42,43
 480.194335938 230.6796875 480.194335938 230.6796875 414.494140625 195.639648438 c 0,44,45
 348.793945312 160.599609375 348.793945312 160.599609375 264.114257812 176.66015625 c 0,46,47
 258.2734375 178.120117188 l 2,48,49
 220.313476562 183.959960938 220.313476562 183.959960938 191.114257812 157.6796875 c 0,50,51
 161.9140625 131.400390625 161.9140625 131.400390625 161.9140625 93.4404296875 c 2,52,-1
 161.9140625 93.4404296875 l 2,53,54
 161.9140625 64.240234375 161.9140625 64.240234375 180.893554688 39.419921875 c 0,55,56
 199.874023438 16.0595703125 199.874023438 16.0595703125 229.07421875 10.2197265625 c 0,57,58
 234.9140625 8.759765625 234.9140625 8.759765625 243.673828125 5.83984375 c 0,59,60
 304.994140625 -5.83984375 304.994140625 -5.83984375 369.233398438 -5.83984375 c 0,61,62
 522.534179688 -5.83984375 522.534179688 -5.83984375 632.034179688 62.7802734375 c 0,63,64
 742.994140625 131.400390625 742.994140625 131.400390625 763.43359375 239.440429688 c 0,65,66
 780.954101562 324.120117188 780.954101562 324.120117188 732.7734375 408.799804688 c 256,67,68
 684.59375 493.48046875 684.59375 493.48046875 588.233398438 557.719726562 c 1,69,0
 737.154296875 654.080078125 737.154296875 654.080078125 722.553710938 785.48046875 c 0,1,2
EndSplineSet
EndChar

StartChar: four
Encoding: 23 52 23
Width: 1005
VWidth: 1495
GlyphClass: 2
Flags: W
LayerCount: 2
Back
Fore
SplineSet
555.354492188 397.120117188 m 1,0,-1
 294.014648438 397.120117188 l 1,1,-1
 294.014648438 402.959960938 l 1,2,-1
 555.354492188 810.299804688 l 1,3,-1
 555.354492188 397.120117188 l 1,0,-1
768.514648438 397.120117188 m 1,4,-1
 768.514648438 843.879882812 l 2,5,6
 768.514648438 887.6796875 768.514648438 887.6796875 736.39453125 919.799804688 c 0,7,8
 704.274414062 951.919921875 704.274414062 951.919921875 660.474609375 951.919921875 c 2,9,-1
 561.194335938 951.919921875 l 2,10,11
 505.71484375 951.919921875 505.71484375 951.919921875 473.594726562 906.66015625 c 2,12,-1
 107.134765625 400.040039062 l 2,13,14
 73.5546875 353.3203125 73.5546875 353.3203125 73.5546875 337.259765625 c 2,15,-1
 73.5546875 335.799804688 l 2,16,17
 73.5546875 306.599609375 73.5546875 306.599609375 118.814453125 259.879882812 c 4,18,19
 149.474609375 227.759765625 149.474609375 227.759765625 193.274414062 229.219726562 c 6,20,-1
 555.354492188 229.219726562 l 5,21,-1
 540.754882812 108.040039062 l 6,22,23
 534.915039062 67.16015625 534.915039062 67.16015625 574.334960938 27.740234375 c 260,24,25
 607.915039062 -5.83984375 607.915039062 -5.83984375 654.634765625 -5.83984375 c 6,26,-1
 656.094726562 -5.83984375 l 6,27,28
 704.274414062 -5.83984375 704.274414062 -5.83984375 736.39453125 27.740234375 c 260,29,30
 768.514648438 59.8603515625 768.514648438 59.8603515625 768.514648438 106.580078125 c 6,31,-1
 768.514648438 229.219726562 l 5,32,-1
 850.274414062 229.219726562 l 2,33,34
 894.07421875 230.6796875 894.07421875 230.6796875 917.434570312 265.719726562 c 0,35,36
 940.794921875 300.759765625 940.794921875 300.759765625 927.654296875 341.639648438 c 1,37,-1
 926.194335938 341.639648438 l 1,38,39
 905.754882812 397.120117188 905.754882812 397.120117188 848.814453125 397.120117188 c 2,40,-1
 768.514648438 397.120117188 l 1,4,-1
EndSplineSet
EndChar

StartChar: five
Encoding: 24 53 24
Width: 877
VWidth: 1495
GlyphClass: 2
Flags: W
LayerCount: 2
Back
Fore
SplineSet
351.857421875 791.3203125 m 1,0,-1
 678.897460938 767.959960938 l 6,1,2
 744.59765625 762.120117188 744.59765625 762.120117188 767.958007812 832.200195312 c 6,3,-1
 769.41796875 835.120117188 l 6,4,5
 789.857421875 893.51953125 789.857421875 893.51953125 754.817382812 940.240234375 c 0,6,7
 727.078125 978.200195312 727.078125 978.200195312 680.357421875 978.200195312 c 2,8,-1
 179.578125 978.200195312 l 1,9,-1
 140.158203125 563.559570312 l 2,10,11
 135.778320312 532.900390625 135.778320312 532.900390625 138.698242188 521.219726562 c 0,12,13
 145.998046875 483.259765625 145.998046875 483.259765625 186.877929688 474.5 c 0,14,15
 200.017578125 471.580078125 200.017578125 471.580078125 281.778320312 474.5 c 0,16,17
 360.618164062 477.419921875 360.618164062 477.419921875 398.578125 465.740234375 c 0,18,19
 451.137695312 451.139648438 451.137695312 451.139648438 483.2578125 411.719726562 c 0,20,21
 512.458007812 373.759765625 512.458007812 373.759765625 512.458007812 327.040039062 c 2,22,-1
 512.458007812 318.280273438 l 2,23,24
 512.458007812 248.200195312 512.458007812 248.200195312 446.7578125 198.559570312 c 0,25,26
 381.057617188 148.919921875 381.057617188 148.919921875 287.618164062 147.459960938 c 1,27,28
 232.137695312 143.080078125 232.137695312 143.080078125 178.118164062 154.759765625 c 0,29,30
 144.538085938 160.599609375 144.538085938 160.599609375 118.2578125 138.700195312 c 0,31,32
 91.9775390625 118.259765625 91.9775390625 118.259765625 91.9775390625 83.2197265625 c 2,33,-1
 91.9775390625 81.759765625 l 2,34,35
 91.9775390625 55.48046875 91.9775390625 55.48046875 109.498046875 36.5 c 256,36,37
 127.017578125 17.51953125 127.017578125 17.51953125 150.377929688 11.6796875 c 0,38,39
 223.377929688 -5.83984375 223.377929688 -5.83984375 300.7578125 -5.83984375 c 0,40,41
 502.23828125 -5.83984375 502.23828125 -5.83984375 643.857421875 89.0595703125 c 0,42,43
 785.477539062 183.959960938 785.477539062 183.959960938 785.477539062 315.360351562 c 0,44,45
 786.9375 633.639648438 786.9375 633.639648438 340.177734375 633.639648438 c 1,46,-1
 351.857421875 791.3203125 l 1,0,-1
EndSplineSet
EndChar

StartChar: six
Encoding: 25 54 25
Width: 1070
VWidth: 1495
GlyphClass: 2
Flags: W
LayerCount: 2
Back
Fore
SplineSet
688.283203125 181.040039062 m 0,1,2
 638.642578125 135.780273438 638.642578125 135.780273438 561.262695312 135.780273438 c 0,3,4
 457.603515625 137.240234375 457.603515625 137.240234375 399.203125 195.639648438 c 0,5,6
 358.323242188 239.440429688 358.323242188 239.440429688 352.483398438 327.040039062 c 4,7,8
 346.642578125 449.6796875 346.642578125 449.6796875 358.323242188 470.120117188 c 0,9,10
 410.8828125 548.959960938 410.8828125 548.959960938 539.36328125 548.959960938 c 0,11,12
 638.642578125 548.959960938 638.642578125 548.959960938 694.123046875 499.3203125 c 0,13,14
 737.922851562 455.51953125 737.922851562 455.51953125 737.922851562 297.83984375 c 0,15,0
 737.922851562 226.299804688 737.922851562 226.299804688 688.283203125 181.040039062 c 0,1,2
641.563476562 668.6796875 m 0,17,18
 638.642578125 668.6796875 638.642578125 668.6796875 629.8828125 668.6796875 c 2,19,-1
 624.04296875 668.6796875 l 1,20,-1
 616.743164062 668.6796875 l 2,21,22
 606.5234375 668.6796875 606.5234375 668.6796875 603.603515625 668.6796875 c 0,23,24
 470.743164062 668.6796875 470.743164062 668.6796875 358.323242188 591.299804688 c 1,25,26
 396.283203125 700.799804688 396.283203125 700.799804688 475.123046875 769.419921875 c 0,27,28
 556.8828125 839.5 556.8828125 839.5 647.403320312 839.5 c 0,29,30
 664.922851562 838.040039062 664.922851562 838.040039062 682.443359375 835.120117188 c 0,31,32
 723.323242188 827.8203125 723.323242188 827.8203125 755.443359375 849.719726562 c 0,33,34
 787.563476562 873.080078125 787.563476562 873.080078125 793.403320312 911.040039062 c 1,35,-1
 794.86328125 911.040039062 l 1,36,37
 802.163085938 949 802.163085938 949 778.802734375 982.580078125 c 256,38,39
 755.443359375 1014.70019531 755.443359375 1014.70019531 718.943359375 1020.54003906 c 0,40,41
 708.72265625 1023.45996094 708.72265625 1023.45996094 701.422851562 1023.45996094 c 0,42,43
 679.5234375 1024.91992188 679.5234375 1024.91992188 667.842773438 1024.91992188 c 0,44,45
 654.703125 1024.91992188 654.703125 1024.91992188 635.72265625 1023.45996094 c 0,46,47
 419.642578125 1003.01953125 419.642578125 1003.01953125 273.642578125 858.48046875 c 0,48,49
 127.642578125 712.48046875 127.642578125 712.48046875 101.36328125 493.48046875 c 0,50,51
 76.54296875 296.379882812 76.54296875 296.379882812 161.22265625 166.440429688 c 0,52,53
 247.36328125 35.0400390625 247.36328125 35.0400390625 422.563476562 0 c 0,54,55
 469.283203125 -11.6796875 469.283203125 -11.6796875 518.922851562 -11.6796875 c 2,56,-1
 521.842773438 -11.6796875 l 2,57,58
 524.762695312 -11.6796875 524.762695312 -11.6796875 527.682617188 -11.6796875 c 2,59,-1
 539.36328125 -11.6796875 l 1,60,-1
 549.583007812 -11.6796875 l 1,61,-1
 556.8828125 -11.6796875 l 2,62,63
 606.5234375 -11.6796875 606.5234375 -11.6796875 656.163085938 0 c 2,64,-1
 664.922851562 0 l 2,65,66
 675.142578125 2.919921875 675.142578125 2.919921875 679.5234375 2.919921875 c 2,67,-1
 685.36328125 5.83984375 l 1,68,-1
 685.36328125 7.2998046875 l 1,69,70
 799.243164062 43.7998046875 799.243164062 43.7998046875 878.083007812 131.400390625 c 0,71,72
 956.922851562 219 956.922851562 219 971.5234375 327.040039062 c 0,73,74
 989.04296875 461.360351562 989.04296875 461.360351562 901.443359375 560.639648438 c 0,75,16
 805.083007812 668.6796875 805.083007812 668.6796875 641.563476562 668.6796875 c 0,17,18
EndSplineSet
EndChar

StartChar: seven
Encoding: 26 55 26
Width: 922
VWidth: 1495
GlyphClass: 2
Flags: W
LayerCount: 2
Back
Fore
SplineSet
518.626953125 765.040039062 m 1,0,-1
 518.626953125 759.200195312 l 1,1,-1
 179.907226562 169.360351562 l 2,2,3
 147.787109375 110.959960938 147.787109375 110.959960938 179.907226562 52.5595703125 c 0,4,5
 212.02734375 -5.83984375 212.02734375 -5.83984375 279.1875 -5.83984375 c 2,6,-1
 282.107421875 -5.83984375 l 2,7,8
 349.267578125 -5.83984375 349.267578125 -5.83984375 381.387695312 52.5595703125 c 2,9,-1
 816.466796875 797.16015625 l 2,10,11
 831.067382812 820.51953125 831.067382812 820.51953125 831.067382812 849.719726562 c 2,12,-1
 831.067382812 849.719726562 l 2,13,14
 831.067382812 892.059570312 831.067382812 892.059570312 798.947265625 922.719726562 c 0,15,16
 769.747070312 951.919921875 769.747070312 951.919921875 727.407226562 951.919921875 c 2,17,-1
 185.747070312 951.919921875 l 2,18,19
 137.567382812 951.919921875 137.567382812 951.919921875 109.827148438 913.959960938 c 0,20,21
 82.0869140625 876 82.0869140625 876 96.6875 830.740234375 c 2,22,-1
 98.1474609375 829.280273438 l 2,23,24
 118.586914062 765.040039062 118.586914062 765.040039062 185.747070312 765.040039062 c 2,25,-1
 518.626953125 765.040039062 l 1,0,-1
EndSplineSet
EndChar

StartChar: eight
Encoding: 27 56 27
Width: 908
VWidth: 1495
GlyphClass: 2
Flags: W
LayerCount: 2
Back
Fore
SplineSet
423.400390625 607.360351562 m 2,0,1
 356.240234375 619.040039062 356.240234375 619.040039062 319.740234375 665.759765625 c 0,2,3
 274.48046875 727.080078125 274.48046875 727.080078125 290.540039062 838.040039062 c 1,4,-1
 292 840.959960938 l 1,5,6
 300.759765625 890.599609375 300.759765625 890.599609375 344.559570312 919.799804688 c 0,7,8
 389.8203125 949 389.8203125 949 445.299804688 940.240234375 c 2,9,-1
 454.059570312 937.3203125 l 2,10,11
 525.599609375 925.639648438 525.599609375 925.639648438 566.48046875 873.080078125 c 256,12,13
 616.120117188 805.919921875 616.120117188 805.919921875 598.599609375 690.580078125 c 0,14,15
 591.299804688 645.3203125 591.299804688 645.3203125 550.419921875 619.040039062 c 256,16,17
 511 592.759765625 511 592.759765625 458.440429688 601.51953125 c 2,18,-1
 423.400390625 607.360351562 l 2,0,1
604.440429688 221.919921875 m 6,19,20
 604.440429688 166.440429688 604.440429688 166.440429688 565.01953125 125.559570312 c 4,21,22
 525.599609375 84.6796875 525.599609375 84.6796875 470.120117188 86.1396484375 c 6,23,-1
 459.900390625 86.1396484375 l 6,24,25
 388.360351562 86.1396484375 388.360351562 86.1396484375 338.719726562 137.240234375 c 4,26,27
 286.16015625 186.879882812 286.16015625 186.879882812 286.16015625 347.48046875 c 0,28,29
 286.16015625 400.040039062 286.16015625 400.040039062 324.120117188 435.080078125 c 0,30,31
 362.080078125 470.120117188 362.080078125 470.120117188 411.719726562 470.120117188 c 2,32,-1
 446.759765625 470.120117188 l 2,33,34
 511 470.120117188 511 470.120117188 557.719726562 423.400390625 c 256,35,36
 604.440429688 376.6796875 604.440429688 376.6796875 604.440429688 224.83984375 c 6,37,-1
 604.440429688 221.919921875 l 6,19,20
645.3203125 557.719726562 m 1,39,40
 727.080078125 586.919921875 727.080078125 586.919921875 772.33984375 643.860351562 c 0,41,42
 817.599609375 697.879882812 817.599609375 697.879882812 817.599609375 770.879882812 c 0,43,44
 817.599609375 887.6796875 817.599609375 887.6796875 718.3203125 963.599609375 c 0,45,46
 619.040039062 1039.51953125 619.040039062 1039.51953125 440.919921875 1038.05957031 c 0,47,48
 259.879882812 1039.51953125 259.879882812 1039.51953125 163.51953125 963.599609375 c 0,49,50
 65.7001953125 887.6796875 65.7001953125 887.6796875 65.7001953125 770.879882812 c 0,51,52
 65.7001953125 703.719726562 65.7001953125 703.719726562 108.040039062 646.780273438 c 0,53,54
 150.379882812 591.299804688 150.379882812 591.299804688 243.8203125 557.719726562 c 1,55,56
 135.780273438 519.759765625 135.780273438 519.759765625 84.6796875 449.6796875 c 256,57,58
 35.0400390625 379.599609375 35.0400390625 379.599609375 35.0400390625 294.919921875 c 0,59,60
 35.0400390625 143.080078125 35.0400390625 143.080078125 169.360351562 55.48046875 c 0,61,62
 283.240234375 -17.51953125 283.240234375 -17.51953125 452.599609375 -17.51953125 c 0,63,64
 636.559570312 -17.51953125 636.559570312 -17.51953125 747.51953125 71.5400390625 c 0,65,66
 858.48046875 160.599609375 858.48046875 160.599609375 858.48046875 303.6796875 c 0,67,68
 858.48046875 391.280273438 858.48046875 391.280273438 803 456.98046875 c 0,69,38
 747.51953125 522.6796875 747.51953125 522.6796875 645.3203125 557.719726562 c 1,39,40
EndSplineSet
EndChar

StartChar: nine
Encoding: 28 57 28
Width: 1070
VWidth: 1495
GlyphClass: 2
Flags: W
LayerCount: 2
Back
Fore
SplineSet
387.517578125 839.5 m 4,1,2
 437.157226562 884.759765625 437.157226562 884.759765625 515.997070312 884.759765625 c 4,3,4
 621.1171875 884.759765625 621.1171875 884.759765625 676.59765625 824.900390625 c 4,5,6
 717.477539062 784.01953125 717.477539062 784.01953125 723.317382812 648.240234375 c 0,7,8
 724.77734375 617.580078125 724.77734375 617.580078125 710.177734375 594.219726562 c 0,9,10
 657.6171875 513.919921875 657.6171875 513.919921875 529.137695312 513.919921875 c 0,11,12
 428.397460938 513.919921875 428.397460938 513.919921875 375.836914062 566.48046875 c 0,13,14
 339.336914062 601.51953125 339.336914062 601.51953125 339.336914062 722.700195312 c 4,15,0
 337.876953125 794.240234375 337.876953125 794.240234375 387.517578125 839.5 c 4,1,2
426.9375 343.099609375 m 0,17,18
 431.317382812 344.559570312 431.317382812 344.559570312 440.077148438 344.559570312 c 2,19,-1
 445.916992188 344.559570312 l 1,20,-1
 451.7578125 344.559570312 l 2,21,22
 459.057617188 344.559570312 459.057617188 344.559570312 464.897460938 343.099609375 c 0,23,24
 597.7578125 341.639648438 597.7578125 341.639648438 710.177734375 420.48046875 c 1,25,26
 673.677734375 312.440429688 673.677734375 312.440429688 593.376953125 242.360351562 c 0,27,28
 513.077148438 172.280273438 513.077148438 172.280273438 422.557617188 173.740234375 c 0,29,30
 405.037109375 175.200195312 405.037109375 175.200195312 384.59765625 178.120117188 c 0,31,32
 346.637695312 183.959960938 346.637695312 183.959960938 314.517578125 163.51953125 c 0,33,34
 282.397460938 143.080078125 282.397460938 143.080078125 273.637695312 102.200195312 c 1,35,-1
 273.637695312 100.740234375 l 1,36,37
 264.876953125 62.7802734375 264.876953125 62.7802734375 288.237304688 30.66015625 c 0,38,39
 311.59765625 -2.919921875 311.59765625 -2.919921875 349.557617188 -8.759765625 c 0,40,41
 358.317382812 -10.2197265625 358.317382812 -10.2197265625 367.077148438 -10.2197265625 c 0,42,43
 387.517578125 -11.6796875 387.517578125 -11.6796875 399.197265625 -11.6796875 c 0,44,45
 413.796875 -11.6796875 413.796875 -11.6796875 434.237304688 -10.2197265625 c 0,46,47
 650.317382812 10.2197265625 650.317382812 10.2197265625 794.857421875 154.759765625 c 0,48,49
 942.317382812 300.759765625 942.317382812 300.759765625 968.59765625 519.759765625 c 0,50,51
 994.876953125 716.860351562 994.876953125 716.860351562 907.27734375 846.799804688 c 0,52,53
 822.59765625 978.200195312 822.59765625 978.200195312 647.397460938 1013.24023438 c 0,54,55
 597.7578125 1024.91992188 597.7578125 1024.91992188 549.577148438 1024.91992188 c 2,56,-1
 546.657226562 1024.91992188 l 2,57,58
 545.197265625 1024.91992188 545.197265625 1024.91992188 542.27734375 1024.91992188 c 2,59,-1
 530.59765625 1024.91992188 l 1,60,-1
 518.916992188 1024.91992188 l 1,61,-1
 511.6171875 1024.91992188 l 2,62,63
 463.4375 1024.91992188 463.4375 1024.91992188 413.796875 1013.24023438 c 1,64,-1
 405.037109375 1011.78027344 l 2,65,66
 396.27734375 1010.3203125 396.27734375 1010.3203125 390.4375 1008.86035156 c 2,67,-1
 384.59765625 1007.40039062 l 1,68,-1
 384.59765625 1004.48046875 l 1,69,70
 270.717773438 969.440429688 270.717773438 969.440429688 190.416992188 881.83984375 c 256,71,72
 113.037109375 794.240234375 113.037109375 794.240234375 98.4375 686.200195312 c 0,73,74
 80.9169921875 551.879882812 80.9169921875 551.879882812 168.517578125 452.599609375 c 0,75,16
 264.876953125 341.639648438 264.876953125 341.639648438 426.9375 343.099609375 c 0,17,18
EndSplineSet
EndChar

StartChar: colon
Encoding: 29 58 29
Width: 512
VWidth: 1495
GlyphClass: 2
Flags: W
LayerCount: 2
Back
Fore
SplineSet
359.16015625 493.48046875 m 0,1,2
 318.280273438 452.599609375 318.280273438 452.599609375 262.799804688 452.599609375 c 0,3,4
 207.3203125 452.599609375 207.3203125 452.599609375 167.900390625 493.48046875 c 0,5,6
 128.48046875 534.360351562 128.48046875 534.360351562 128.48046875 589.83984375 c 0,7,8
 128.48046875 645.3203125 128.48046875 645.3203125 167.900390625 684.740234375 c 0,9,10
 207.3203125 724.16015625 207.3203125 724.16015625 262.799804688 724.16015625 c 0,11,12
 318.280273438 724.16015625 318.280273438 724.16015625 359.16015625 684.740234375 c 0,13,14
 400.040039062 645.3203125 400.040039062 645.3203125 400.040039062 589.83984375 c 0,15,0
 400.040039062 534.360351562 400.040039062 534.360351562 359.16015625 493.48046875 c 0,1,2
362.080078125 43.7998046875 m 0,17,18
 322.66015625 2.919921875 322.66015625 2.919921875 265.719726562 2.919921875 c 256,19,20
 210.240234375 2.919921875 210.240234375 2.919921875 169.360351562 43.7998046875 c 0,21,22
 128.48046875 84.6796875 128.48046875 84.6796875 129.940429688 140.16015625 c 0,23,24
 128.48046875 195.639648438 128.48046875 195.639648438 169.360351562 235.059570312 c 0,25,26
 208.780273438 274.48046875 208.780273438 274.48046875 265.719726562 274.48046875 c 256,27,28
 321.200195312 274.48046875 321.200195312 274.48046875 362.080078125 235.059570312 c 0,29,30
 400.040039062 195.639648438 400.040039062 195.639648438 400.040039062 140.16015625 c 0,31,16
 400.040039062 84.6796875 400.040039062 84.6796875 362.080078125 43.7998046875 c 0,17,18
EndSplineSet
EndChar

StartChar: semicolon
Encoding: 30 59 30
Width: 515
VWidth: 1495
GlyphClass: 2
Flags: W
LayerCount: 2
Back
Fore
SplineSet
359.16015625 493.48046875 m 0,1,2
 318.280273438 452.599609375 318.280273438 452.599609375 262.799804688 452.599609375 c 0,3,4
 207.3203125 452.599609375 207.3203125 452.599609375 167.900390625 493.48046875 c 0,5,6
 128.48046875 534.360351562 128.48046875 534.360351562 128.48046875 589.83984375 c 0,7,8
 128.48046875 645.3203125 128.48046875 645.3203125 167.900390625 684.740234375 c 0,9,10
 207.3203125 724.16015625 207.3203125 724.16015625 262.799804688 724.16015625 c 0,11,12
 318.280273438 724.16015625 318.280273438 724.16015625 359.16015625 684.740234375 c 0,13,14
 400.040039062 645.3203125 400.040039062 645.3203125 400.040039062 589.83984375 c 0,15,0
 400.040039062 534.360351562 400.040039062 534.360351562 359.16015625 493.48046875 c 0,1,2
353.3203125 237.98046875 m 0,17,18
 312.440429688 277.400390625 312.440429688 277.400390625 256.959960938 277.400390625 c 0,19,20
 201.48046875 277.400390625 201.48046875 277.400390625 162.059570312 237.98046875 c 0,21,22
 122.639648438 198.559570312 122.639648438 198.559570312 122.639648438 143.080078125 c 0,23,24
 122.639648438 96.3603515625 122.639648438 96.3603515625 151.83984375 58.400390625 c 0,25,26
 181.040039062 23.3603515625 181.040039062 23.3603515625 223.379882812 11.6796875 c 1,27,28
 216.080078125 2.919921875 216.080078125 2.919921875 208.780273438 0 c 2,29,-1
 207.3203125 -1.4599609375 l 2,30,31
 204.400390625 -5.83984375 204.400390625 -5.83984375 182.5 -14.599609375 c 0,32,33
 147.459960938 -29.2001953125 147.459960938 -29.2001953125 150.379882812 -62.7802734375 c 0,34,35
 153.299804688 -90.51953125 153.299804688 -90.51953125 170.8203125 -96.3603515625 c 0,36,37
 245.280273438 -116.799804688 245.280273438 -116.799804688 318.280273438 -37.9599609375 c 0,38,39
 394.200195312 43.7998046875 394.200195312 43.7998046875 394.200195312 143.080078125 c 0,40,16
 394.200195312 198.559570312 394.200195312 198.559570312 353.3203125 237.98046875 c 0,17,18
EndSplineSet
EndChar

StartChar: less
Encoding: 31 60 31
Width: 1245
VWidth: 1495
GlyphClass: 2
Flags: W
LayerCount: 2
Back
Fore
SplineSet
995.719726562 846.799804688 m 0,1,2
 969.440429688 873.080078125 969.440429688 873.080078125 931.48046875 874.540039062 c 0,3,4
 913.959960938 876 913.959960938 876 894.98046875 867.240234375 c 2,5,-1
 290.540039062 605.900390625 l 2,6,7
 220.459960938 575.240234375 220.459960938 575.240234375 220.459960938 497.860351562 c 0,8,9
 220.459960938 421.940429688 220.459960938 421.940429688 290.540039062 391.280273438 c 2,10,-1
 894.98046875 131.400390625 l 2,11,12
 913.959960938 122.639648438 913.959960938 122.639648438 931.48046875 122.639648438 c 0,13,14
 969.440429688 122.639648438 969.440429688 122.639648438 995.719726562 148.919921875 c 0,15,16
 1022 175.200195312 1022 175.200195312 1022 216.080078125 c 0,17,18
 1022 277.400390625 1022 277.400390625 965.059570312 300.759765625 c 2,19,-1
 475.959960938 499.3203125 l 1,20,-1
 965.059570312 697.879882812 l 2,21,22
 1022 721.240234375 1022 721.240234375 1022 782.559570312 c 0,23,0
 1022 820.51953125 1022 820.51953125 995.719726562 846.799804688 c 0,1,2
EndSplineSet
EndChar

StartChar: equal
Encoding: 32 61 32
Width: 1245
VWidth: 1495
GlyphClass: 2
Flags: W
LayerCount: 2
Back
Fore
SplineSet
283.278320312 697.879882812 m 2,0,1
 245.318359375 697.879882812 245.318359375 697.879882812 219.038085938 671.599609375 c 128,-1,2
 192.758789062 645.3203125 192.758789062 645.3203125 194.21875 608.8203125 c 0,3,4
 192.758789062 572.3203125 192.758789062 572.3203125 219.038085938 546.040039062 c 128,-1,5
 245.318359375 519.759765625 245.318359375 519.759765625 283.278320312 519.759765625 c 2,6,-1
 962.178710938 519.759765625 l 2,7,8
 1000.13867188 519.759765625 1000.13867188 519.759765625 1024.95898438 546.040039062 c 256,9,10
 1051.23828125 572.3203125 1051.23828125 572.3203125 1051.23828125 610.280273438 c 0,11,12
 1051.23828125 645.3203125 1051.23828125 645.3203125 1024.95898438 671.599609375 c 128,-1,13
 998.678710938 697.879882812 998.678710938 697.879882812 962.178710938 697.879882812 c 2,14,-1
 283.278320312 697.879882812 l 2,0,1
283.278320312 394.200195312 m 6,15,16
 245.318359375 394.200195312 245.318359375 394.200195312 219.038085938 367.919921875 c 132,-1,17
 192.758789062 341.639648438 192.758789062 341.639648438 194.21875 303.6796875 c 4,18,19
 192.758789062 268.639648438 192.758789062 268.639648438 219.038085938 242.360351562 c 132,-1,20
 245.318359375 216.080078125 245.318359375 216.080078125 283.278320312 216.080078125 c 6,21,-1
 962.178710938 216.080078125 l 6,22,23
 1000.13867188 216.080078125 1000.13867188 216.080078125 1024.95898438 242.360351562 c 260,24,25
 1051.23828125 268.639648438 1051.23828125 268.639648438 1051.23828125 305.139648438 c 132,-1,26
 1051.23828125 341.639648438 1051.23828125 341.639648438 1024.95898438 367.919921875 c 132,-1,27
 998.678710938 394.200195312 998.678710938 394.200195312 962.178710938 394.200195312 c 6,28,-1
 283.278320312 394.200195312 l 6,15,16
EndSplineSet
EndChar

StartChar: greater
Encoding: 33 62 33
Width: 1245
VWidth: 1495
GlyphClass: 2
Flags: W
LayerCount: 2
Back
Fore
SplineSet
220.459960938 782.559570312 m 0,0,1
 220.459960938 721.240234375 220.459960938 721.240234375 277.400390625 697.879882812 c 2,2,-1
 765.040039062 499.3203125 l 1,3,-1
 277.400390625 300.759765625 l 2,4,5
 220.459960938 277.400390625 220.459960938 277.400390625 220.459960938 216.080078125 c 0,6,7
 221.919921875 178.120117188 221.919921875 178.120117188 248.200195312 148.919921875 c 0,8,9
 274.48046875 122.639648438 274.48046875 122.639648438 310.98046875 122.639648438 c 0,10,11
 329.959960938 122.639648438 329.959960938 122.639648438 347.48046875 131.400390625 c 2,12,-1
 951.919921875 391.280273438 l 2,13,14
 1022 421.940429688 1022 421.940429688 1022 497.860351562 c 0,15,16
 1022 575.240234375 1022 575.240234375 951.919921875 605.900390625 c 2,17,-1
 347.48046875 867.240234375 l 2,18,19
 329.959960938 876 329.959960938 876 310.98046875 874.540039062 c 0,20,21
 274.48046875 873.080078125 274.48046875 873.080078125 248.200195312 846.799804688 c 0,22,23
 221.919921875 820.51953125 221.919921875 820.51953125 220.459960938 782.559570312 c 0,0,1
EndSplineSet
EndChar

StartChar: question
Encoding: 34 63 34
Width: 903
VWidth: 1495
GlyphClass: 2
Flags: W
LayerCount: 2
Back
Fore
SplineSet
320.95703125 233.599609375 m 256,1,2
 360.376953125 271.559570312 360.376953125 271.559570312 421.697265625 271.559570312 c 0,3,4
 485.936523438 271.559570312 485.936523438 271.559570312 523.896484375 233.599609375 c 0,5,6
 561.856445312 195.639648438 561.856445312 195.639648438 564.77734375 137.240234375 c 0,7,8
 564.77734375 78.83984375 564.77734375 78.83984375 526.817382812 40.8798828125 c 0,9,10
 485.936523438 2.919921875 485.936523438 2.919921875 421.697265625 2.919921875 c 0,11,12
 357.45703125 2.919921875 357.45703125 2.919921875 319.497070312 40.8798828125 c 0,13,14
 281.537109375 78.83984375 281.537109375 78.83984375 281.537109375 137.240234375 c 0,15,0
 281.537109375 195.639648438 281.537109375 195.639648438 320.95703125 233.599609375 c 256,1,2
421.697265625 341.639648438 m 2,16,17
 374.9765625 341.639648438 374.9765625 341.639648438 344.317382812 379.599609375 c 0,18,19
 313.657226562 417.559570312 313.657226562 417.559570312 322.416992188 464.280273438 c 0,20,21
 342.856445312 572.3203125 342.856445312 572.3203125 428.997070312 632.1796875 c 0,22,23
 520.9765625 697.879882812 520.9765625 697.879882812 520.9765625 786.940429688 c 0,24,25
 520.9765625 870.16015625 520.9765625 870.16015625 404.176757812 876 c 0,26,27
 337.016601562 878.919921875 337.016601562 878.919921875 293.216796875 832.200195312 c 0,28,29
 252.336914062 788.400390625 252.336914062 788.400390625 205.6171875 814.6796875 c 0,30,31
 176.416992188 832.200195312 176.416992188 832.200195312 158.896484375 884.759765625 c 5,32,-1
 158.896484375 884.759765625 l 5,33,34
 147.216796875 915.419921875 147.216796875 915.419921875 170.577148438 959.219726562 c 0,35,36
 188.096679688 992.799804688 188.096679688 992.799804688 223.13671875 1001.55957031 c 0,37,38
 334.096679688 1030.75976562 334.096679688 1030.75976562 445.056640625 1030.75976562 c 0,39,40
 593.9765625 1030.75976562 593.9765625 1030.75976562 675.737304688 960.6796875 c 0,41,42
 748.737304688 896.440429688 748.737304688 896.440429688 748.737304688 800.080078125 c 0,43,44
 748.737304688 718.3203125 748.737304688 718.3203125 710.77734375 648.240234375 c 0,45,46
 672.817382812 581.080078125 672.817382812 581.080078125 614.416992188 553.33984375 c 0,47,48
 535.577148438 515.379882812 535.577148438 515.379882812 525.356445312 432.16015625 c 0,49,50
 520.9765625 394.200195312 520.9765625 394.200195312 491.77734375 367.919921875 c 0,51,52
 462.577148438 341.639648438 462.577148438 341.639648438 424.6171875 341.639648438 c 2,53,-1
 421.697265625 341.639648438 l 2,16,17
EndSplineSet
EndChar

StartChar: at
Encoding: 35 64 35
Width: 1162
VWidth: 1495
GlyphClass: 2
Flags: W
LayerCount: 2
Back
Fore
SplineSet
614.66015625 379.599609375 m 0,1,2
 591.299804688 367.919921875 591.299804688 367.919921875 565.01953125 367.919921875 c 0,3,4
 529.98046875 367.919921875 529.98046875 367.919921875 508.080078125 389.8203125 c 0,5,6
 484.719726562 411.719726562 484.719726562 411.719726562 484.719726562 458.440429688 c 0,7,8
 484.719726562 496.400390625 484.719726562 496.400390625 502.240234375 546.040039062 c 0,9,10
 512.459960938 572.3203125 512.459960938 572.3203125 543.120117188 602.98046875 c 0,11,12
 584 645.3203125 584 645.3203125 627.799804688 645.3203125 c 0,13,14
 659.919921875 645.3203125 659.919921875 645.3203125 689.120117188 620.5 c 0,15,16
 694.959960938 617.580078125 694.959960938 617.580078125 700.799804688 611.740234375 c 0,17,18
 709.559570312 605.900390625 709.559570312 605.900390625 711.01953125 588.379882812 c 0,19,20
 709.559570312 524.139648438 709.559570312 524.139648438 692.040039062 471.580078125 c 0,21,22
 674.51953125 417.559570312 674.51953125 417.559570312 651.16015625 402.959960938 c 0,23,24
 645.3203125 400.040039062 645.3203125 400.040039062 633.639648438 391.280273438 c 0,25,0
 619.040039062 382.51953125 619.040039062 382.51953125 614.66015625 379.599609375 c 0,1,2
849.719726562 146 m 0,27,28
 762.120117188 110.959960938 762.120117188 110.959960938 639.48046875 110.959960938 c 0,29,30
 511 110.959960938 511 110.959960938 413.1796875 151.83984375 c 0,31,32
 318.280273438 192.719726562 318.280273438 192.719726562 262.799804688 280.3203125 c 0,33,34
 207.3203125 367.919921875 207.3203125 367.919921875 207.3203125 474.5 c 0,35,36
 207.3203125 586.919921875 207.3203125 586.919921875 256.959960938 689.120117188 c 0,37,38
 303.6796875 791.3203125 303.6796875 791.3203125 400.040039062 846.799804688 c 0,39,40
 496.400390625 902.280273438 496.400390625 902.280273438 636.559570312 902.280273438 c 0,41,42
 798.620117188 902.280273438 798.620117188 902.280273438 887.6796875 817.599609375 c 0,43,44
 978.200195312 734.379882812 978.200195312 734.379882812 978.200195312 611.740234375 c 0,45,46
 978.200195312 541.66015625 978.200195312 541.66015625 946.080078125 477.419921875 c 0,47,48
 886.219726562 356.240234375 886.219726562 356.240234375 830.740234375 356.240234375 c 0,49,50
 826.360351562 356.240234375 826.360351562 356.240234375 823.440429688 359.16015625 c 256,51,52
 820.51953125 362.080078125 820.51953125 362.080078125 820.51953125 367.919921875 c 0,53,54
 823.440429688 397.120117188 823.440429688 397.120117188 861.400390625 668.6796875 c 0,55,56
 865.780273438 697.879882812 865.780273438 697.879882812 845.33984375 721.240234375 c 0,57,58
 832.200195312 738.759765625 832.200195312 738.759765625 808.83984375 741.6796875 c 0,59,60
 788.400390625 746.059570312 788.400390625 746.059570312 767.959960938 735.83984375 c 0,61,62
 756.280273438 730 756.280273438 730 747.51953125 719.780273438 c 1,63,64
 700.799804688 776.719726562 700.799804688 776.719726562 616.120117188 776.719726562 c 0,65,66
 484.719726562 776.719726562 484.719726562 776.719726562 402.959960938 659.919921875 c 0,67,68
 335.799804688 563.559570312 335.799804688 563.559570312 335.799804688 448.219726562 c 0,69,70
 335.799804688 351.860351562 335.799804688 351.860351562 392.740234375 294.919921875 c 0,71,72
 449.6796875 236.51953125 449.6796875 236.51953125 537.280273438 236.51953125 c 0,73,74
 610.280273438 236.51953125 610.280273438 236.51953125 670.139648438 284.700195312 c 1,75,76
 680.360351562 264.259765625 680.360351562 264.259765625 697.879882812 252.580078125 c 0,77,78
 734.379882812 230.6796875 734.379882812 230.6796875 776.719726562 230.6796875 c 0,79,80
 890.599609375 230.6796875 890.599609375 230.6796875 1007.40039062 359.16015625 c 0,81,82
 1092.08007812 452.599609375 1092.08007812 452.599609375 1092.08007812 605.900390625 c 0,83,84
 1092.08007812 721.240234375 1092.08007812 721.240234375 1036.59960938 817.599609375 c 0,85,86
 981.120117188 913.959960938 981.120117188 913.959960938 876 966.51953125 c 0,87,88
 770.879882812 1019.08007812 770.879882812 1019.08007812 636.559570312 1019.08007812 c 0,89,90
 478.879882812 1019.08007812 478.879882812 1019.08007812 357.700195312 954.83984375 c 0,91,92
 235.059570312 890.599609375 235.059570312 890.599609375 163.51953125 759.200195312 c 0,93,94
 93.4404296875 630.719726562 93.4404296875 630.719726562 93.4404296875 481.799804688 c 0,95,96
 93.4404296875 347.48046875 93.4404296875 347.48046875 154.759765625 230.6796875 c 0,97,98
 217.540039062 113.879882812 217.540039062 113.879882812 346.01953125 54.01953125 c 0,99,100
 473.040039062 -5.83984375 473.040039062 -5.83984375 648.240234375 -5.83984375 c 0,101,102
 829.280273438 -5.83984375 829.280273438 -5.83984375 954.83984375 64.240234375 c 0,103,104
 975.280273438 75.919921875 975.280273438 75.919921875 992.799804688 89.0595703125 c 0,105,106
 1013.24023438 102.200195312 1013.24023438 102.200195312 1016.16015625 128.48046875 c 0,107,108
 1019.08007812 151.83984375 1019.08007812 151.83984375 1004.48046875 173.740234375 c 0,109,110
 989.879882812 192.719726562 989.879882812 192.719726562 966.51953125 195.639648438 c 256,111,112
 943.16015625 198.559570312 943.16015625 198.559570312 925.639648438 186.879882812 c 0,113,26
 890.599609375 163.51953125 890.599609375 163.51953125 849.719726562 146 c 0,27,28
EndSplineSet
EndChar

StartChar: A
Encoding: 36 65 36
Width: 956
VWidth: 1495
GlyphClass: 2
Flags: W
LayerCount: 2
Back
Fore
SplineSet
344.129882812 424.860351562 m 1,0,-1
 474.069335938 784.01953125 l 25,1,-1
 604.009765625 424.860351562 l 1,2,-1
 344.129882812 424.860351562 l 1,0,-1
658.029296875 861.400390625 m 2,3,4
 639.049804688 919.799804688 639.049804688 919.799804688 586.489257812 954.83984375 c 0,5,6
 536.849609375 989.879882812 536.849609375 989.879882812 472.609375 991.33984375 c 2,7,-1
 469.689453125 991.33984375 l 2,8,9
 405.44921875 992.799804688 405.44921875 992.799804688 355.809570312 954.83984375 c 0,10,11
 304.708984375 918.33984375 304.708984375 918.33984375 284.26953125 858.48046875 c 2,12,-1
 41.9091796875 154.759765625 l 2,13,14
 22.9296875 96.3603515625 22.9296875 96.3603515625 57.9697265625 46.7197265625 c 0,15,16
 93.009765625 -2.919921875 93.009765625 -2.919921875 152.869140625 -2.919921875 c 2,17,-1
 180.609375 -2.919921875 l 6,18,19
 215.649414062 -2.919921875 215.649414062 -2.919921875 250.689453125 20.4404296875 c 4,20,21
 285.729492188 43.7998046875 285.729492188 43.7998046875 291.569335938 81.759765625 c 6,22,-1
 329.529296875 277.400390625 l 1,23,-1
 633.208984375 277.400390625 l 1,24,-1
 674.08984375 78.83984375 l 2,25,26
 679.9296875 45.259765625 679.9296875 45.259765625 714.969726562 20.4404296875 c 0,27,28
 747.08984375 -2.919921875 747.08984375 -2.919921875 785.049804688 -2.919921875 c 2,29,-1
 802.569335938 -2.919921875 l 2,30,31
 863.889648438 -2.919921875 863.889648438 -2.919921875 898.9296875 48.1796875 c 0,32,33
 933.969726562 96.3603515625 933.969726562 96.3603515625 913.529296875 154.759765625 c 2,34,-1
 658.029296875 861.400390625 l 2,3,4
EndSplineSet
EndChar

StartChar: B
Encoding: 37 66 37
Width: 887
VWidth: 1495
GlyphClass: 2
Flags: W
LayerCount: 2
Back
Fore
SplineSet
321.200195312 143.080078125 m 4,1,2
 308.059570312 143.080078125 308.059570312 143.080078125 299.299804688 151.83984375 c 4,3,4
 289.080078125 160.599609375 289.080078125 160.599609375 289.080078125 172.280273438 c 6,5,-1
 289.080078125 421.940429688 l 6,6,7
 289.080078125 435.080078125 289.080078125 435.080078125 299.299804688 443.83984375 c 4,8,9
 309.51953125 452.599609375 309.51953125 452.599609375 322.66015625 452.599609375 c 6,10,-1
 372.299804688 452.599609375 l 6,11,12
 468.66015625 452.599609375 468.66015625 452.599609375 525.599609375 423.400390625 c 4,13,14
 588.379882812 391.280273438 588.379882812 391.280273438 588.379882812 292 c 4,15,16
 588.379882812 204.400390625 588.379882812 204.400390625 527.059570312 170.8203125 c 4,17,18
 470.120117188 141.620117188 470.120117188 141.620117188 382.51953125 141.620117188 c 4,19,0
 338.719726562 143.080078125 338.719726562 143.080078125 321.200195312 143.080078125 c 4,1,2
289.080078125 801.540039062 m 6,20,21
 289.080078125 827.8203125 289.080078125 827.8203125 318.280273438 830.740234375 c 260,22,23
 347.48046875 832.200195312 347.48046875 832.200195312 385.440429688 832.200195312 c 4,24,25
 544.580078125 832.200195312 544.580078125 832.200195312 544.580078125 694.959960938 c 4,26,27
 546.040039062 621.959960938 546.040039062 621.959960938 499.3203125 592.759765625 c 4,28,29
 452.599609375 563.559570312 452.599609375 563.559570312 363.540039062 563.559570312 c 6,30,-1
 321.200195312 563.559570312 l 6,31,32
 309.51953125 563.559570312 309.51953125 563.559570312 297.83984375 572.3203125 c 4,33,34
 289.080078125 581.080078125 289.080078125 581.080078125 289.080078125 592.759765625 c 6,35,-1
 289.080078125 801.540039062 l 6,20,21
659.919921875 527.059570312 m 260,37,38
 659.919921875 537.280273438 659.919921875 537.280273438 668.6796875 541.66015625 c 4,39,40
 805.919921875 604.440429688 805.919921875 604.440429688 805.919921875 730 c 4,41,42
 805.919921875 867.240234375 805.919921875 867.240234375 678.900390625 928.559570312 c 1,43,44
 584 978.200195312 584 978.200195312 362.080078125 982.580078125 c 0,45,46
 321.200195312 981.120117188 321.200195312 981.120117188 254.040039062 984.040039062 c 0,47,48
 178.120117188 985.5 178.120117188 985.5 154.759765625 986.959960938 c 0,49,50
 110.959960938 986.959960938 110.959960938 986.959960938 81.759765625 957.759765625 c 0,51,52
 51.099609375 928.559570312 51.099609375 928.559570312 51.099609375 886.219726562 c 2,53,-1
 51.099609375 96.3603515625 l 2,54,55
 51.099609375 52.5595703125 51.099609375 52.5595703125 83.2197265625 23.3603515625 c 0,56,57
 116.799804688 -5.83984375 116.799804688 -5.83984375 160.599609375 -5.83984375 c 0,58,59
 259.879882812 0 259.879882812 0 312.440429688 0 c 0,60,61
 619.040039062 0 619.040039062 0 730 80.2998046875 c 4,62,63
 840.959960938 162.059570312 840.959960938 162.059570312 840.959960938 286.16015625 c 4,64,65
 840.959960938 446.759765625 840.959960938 446.759765625 670.139648438 513.919921875 c 4,66,36
 659.919921875 516.83984375 659.919921875 516.83984375 659.919921875 527.059570312 c 260,37,38
EndSplineSet
EndChar

StartChar: C
Encoding: 38 67 38
Width: 899
VWidth: 1495
GlyphClass: 2
Flags: W
LayerCount: 2
Back
Fore
SplineSet
778.1640625 169.360351562 m 2,0,1
 746.043945312 178.120117188 746.043945312 178.120117188 711.00390625 163.51953125 c 0,2,3
 656.984375 140.16015625 656.984375 140.16015625 598.583984375 140.16015625 c 0,4,5
 473.024414062 140.16015625 473.024414062 140.16015625 385.423828125 239.440429688 c 0,6,7
 297.82421875 338.719726562 297.82421875 338.719726562 297.82421875 478.879882812 c 256,8,9
 297.82421875 619.040039062 297.82421875 619.040039062 385.423828125 721.240234375 c 256,10,11
 473.024414062 820.51953125 473.024414062 820.51953125 598.583984375 820.51953125 c 0,12,13
 656.984375 820.51953125 656.984375 820.51953125 712.463867188 794.240234375 c 4,14,15
 744.583984375 779.639648438 744.583984375 779.639648438 776.704101562 789.860351562 c 6,16,-1
 779.624023438 791.3203125 l 5,17,18
 840.944335938 811.759765625 840.944335938 811.759765625 842.404296875 876 c 256,19,20
 842.404296875 943.16015625 842.404296875 943.16015625 781.083984375 960.6796875 c 0,21,22
 711.00390625 984.040039062 711.00390625 984.040039062 633.624023438 989.879882812 c 0,23,24
 610.264648438 992.799804688 610.264648438 992.799804688 598.583984375 991.33984375 c 256,25,26
 586.904296875 992.799804688 586.904296875 992.799804688 563.543945312 989.879882812 c 0,27,28
 338.704101562 969.440429688 338.704101562 969.440429688 198.543945312 835.120117188 c 0,29,30
 52.5439453125 694.959960938 52.5439453125 694.959960938 52.5439453125 467.200195312 c 0,31,32
 52.5439453125 256.959960938 52.5439453125 256.959960938 181.024414062 122.639648438 c 0,33,34
 318.264648438 -17.51953125 318.264648438 -17.51953125 563.543945312 -29.2001953125 c 0,35,36
 578.14453125 -32.1201171875 578.14453125 -32.1201171875 586.904296875 -32.1201171875 c 2,37,-1
 592.744140625 -32.1201171875 l 2,38,39
 595.6640625 -32.1201171875 595.6640625 -32.1201171875 598.583984375 -32.1201171875 c 256,40,41
 601.50390625 -32.1201171875 601.50390625 -32.1201171875 604.423828125 -32.1201171875 c 2,42,-1
 610.264648438 -32.1201171875 l 2,43,44
 619.024414062 -32.1201171875 619.024414062 -32.1201171875 633.624023438 -29.2001953125 c 0,45,46
 711.00390625 -26.2802734375 711.00390625 -26.2802734375 778.1640625 -8.759765625 c 256,47,48
 846.784179688 8.759765625 846.784179688 8.759765625 846.784179688 78.83984375 c 0,49,50
 848.244140625 148.919921875 848.244140625 148.919921875 781.083984375 169.360351562 c 1,51,-1
 778.1640625 169.360351562 l 2,0,1
EndSplineSet
EndChar

StartChar: D
Encoding: 39 68 39
Width: 1038
VWidth: 1495
GlyphClass: 2
Flags: W
LayerCount: 2
Back
Fore
SplineSet
359.16015625 81.759765625 m 6,0,1
 327.040039062 81.759765625 327.040039062 81.759765625 303.6796875 105.120117188 c 4,2,3
 280.3203125 128.48046875 280.3203125 128.48046875 281.780273438 160.599609375 c 6,4,-1
 281.780273438 805.919921875 l 6,5,6
 280.3203125 838.040039062 280.3203125 838.040039062 303.6796875 861.400390625 c 4,7,8
 327.040039062 884.759765625 327.040039062 884.759765625 359.16015625 884.759765625 c 6,9,-1
 360.620117188 884.759765625 l 6,10,11
 513.919921875 884.759765625 513.919921875 884.759765625 621.959960938 785.48046875 c 260,12,13
 730 686.200195312 730 686.200195312 730 546.040039062 c 260,14,15
 730 280.3203125 730 280.3203125 621.959960938 181.040039062 c 260,16,17
 513.919921875 81.759765625 513.919921875 81.759765625 360.620117188 81.759765625 c 6,18,-1
 359.16015625 81.759765625 l 6,0,1
135.780273438 978.200195312 m 0,20,21
 105.120117188 975.280273438 105.120117188 975.280273438 84.6796875 954.83984375 c 0,22,23
 64.240234375 932.940429688 64.240234375 932.940429688 64.240234375 902.280273438 c 2,24,-1
 64.240234375 70.080078125 l 2,25,26
 64.240234375 37.9599609375 64.240234375 37.9599609375 84.6796875 16.0595703125 c 0,27,28
 105.120117188 -5.83984375 105.120117188 -5.83984375 137.240234375 -7.2998046875 c 0,29,30
 335.799804688 -17.51953125 335.799804688 -17.51953125 388.360351562 -17.51953125 c 0,31,32
 674.51953125 -17.51953125 674.51953125 -17.51953125 835.120117188 122.639648438 c 0,33,34
 984.040039062 255.5 984.040039062 255.5 984.040039062 473.040039062 c 0,35,36
 984.040039062 715.400390625 984.040039062 715.400390625 803 857.01953125 c 0,37,38
 630.719726562 989.879882812 630.719726562 989.879882812 362.080078125 989.879882812 c 0,39,19
 308.059570312 989.879882812 308.059570312 989.879882812 135.780273438 978.200195312 c 0,20,21
EndSplineSet
EndChar

StartChar: E
Encoding: 40 69 40
Width: 756
VWidth: 1495
GlyphClass: 2
Flags: W
LayerCount: 2
Back
Fore
SplineSet
281.780273438 172.280273438 m 5,0,-1
 281.780273438 424.860351562 l 1,1,-1
 572.3203125 417.559570312 l 2,2,3
 608.8203125 417.559570312 608.8203125 417.559570312 635.830078125 443.83984375 c 128,-1,4
 662.83984375 470.120117188 662.83984375 470.120117188 662.83984375 508.080078125 c 2,5,-1
 662.83984375 511 l 2,6,7
 662.83984375 548.959960938 662.83984375 548.959960938 636.559570312 573.780273438 c 0,8,9
 607.360351562 601.51953125 607.360351562 601.51953125 572.3203125 600.059570312 c 2,10,-1
 281.780273438 592.759765625 l 1,11,-1
 281.780273438 803 l 1,12,-1
 589.83984375 788.400390625 l 2,13,14
 621.959960938 786.940429688 621.959960938 786.940429688 648.240234375 808.83984375 c 256,15,16
 671.599609375 826.360351562 671.599609375 826.360351562 678.900390625 859.940429688 c 2,17,-1
 680.360351562 862.860351562 l 2,18,19
 694.959960938 916.879882812 694.959960938 916.879882812 662.83984375 954.83984375 c 0,20,21
 636.559570312 986.959960938 636.559570312 986.959960938 591.299804688 986.959960938 c 2,22,-1
 183.959960938 986.959960938 l 2,23,24
 125.559570312 986.959960938 125.559570312 986.959960938 83.2197265625 946.080078125 c 0,25,26
 40.8798828125 902.280273438 40.8798828125 902.280273438 40.8798828125 843.879882812 c 2,27,-1
 40.8798828125 137.240234375 l 2,28,29
 40.8798828125 78.83984375 40.8798828125 78.83984375 83.2197265625 36.5 c 0,30,31
 125.559570312 -5.83984375 125.559570312 -5.83984375 183.959960938 -5.83984375 c 2,32,-1
 613.200195312 -5.83984375 l 2,33,34
 651.16015625 -5.83984375 651.16015625 -5.83984375 677.440429688 20.4404296875 c 0,35,36
 703.719726562 46.7197265625 703.719726562 46.7197265625 703.719726562 84.6796875 c 2,37,-1
 703.719726562 87.599609375 l 2,38,39
 703.719726562 125.559570312 703.719726562 125.559570312 677.440429688 151.83984375 c 0,40,41
 648.240234375 178.120117188 648.240234375 178.120117188 613.200195312 178.120117188 c 2,42,-1
 281.780273438 172.280273438 l 5,0,-1
EndSplineSet
EndChar

StartChar: F
Encoding: 41 70 41
Width: 751
VWidth: 1495
GlyphClass: 2
Flags: W
LayerCount: 2
Back
Fore
SplineSet
300.759765625 432.16015625 m 5,0,-1
 613.200195312 417.559570312 l 2,1,2
 648.240234375 416.099609375 648.240234375 416.099609375 675.98046875 443.83984375 c 0,3,4
 703.719726562 470.120117188 703.719726562 470.120117188 703.719726562 508.080078125 c 2,5,-1
 703.719726562 509.540039062 l 2,6,7
 703.719726562 547.5 703.719726562 547.5 675.98046875 573.780273438 c 0,8,9
 648.240234375 601.51953125 648.240234375 601.51953125 613.200195312 600.059570312 c 2,10,-1
 300.759765625 585.459960938 l 1,11,-1
 300.759765625 817.599609375 l 1,12,-1
 610.280273438 803 l 2,13,14
 639.48046875 801.540039062 639.48046875 801.540039062 665.759765625 823.440429688 c 0,15,16
 690.580078125 843.879882812 690.580078125 843.879882812 697.879882812 873.080078125 c 2,17,-1
 697.879882812 877.459960938 l 2,18,19
 706.639648438 921.259765625 706.639648438 921.259765625 680.360351562 953.379882812 c 0,20,21
 654.080078125 986.959960938 654.080078125 986.959960938 610.280273438 986.959960938 c 2,22,-1
 210.240234375 986.959960938 l 2,23,24
 148.919921875 986.959960938 148.919921875 986.959960938 105.120117188 943.16015625 c 256,25,26
 61.3203125 899.360351562 61.3203125 899.360351562 61.3203125 838.040039062 c 2,27,-1
 61.3203125 113.879882812 l 2,28,29
 61.3203125 64.240234375 61.3203125 64.240234375 96.3603515625 29.2001953125 c 0,30,31
 131.400390625 -5.83984375 131.400390625 -5.83984375 179.580078125 -5.83984375 c 2,32,-1
 181.040039062 -5.83984375 l 2,33,34
 230.6796875 -5.83984375 230.6796875 -5.83984375 265.719726562 29.2001953125 c 0,35,36
 300.759765625 64.240234375 300.759765625 64.240234375 300.759765625 113.879882812 c 2,37,-1
 300.759765625 432.16015625 l 5,0,-1
EndSplineSet
EndChar

StartChar: G
Encoding: 42 71 42
Width: 1011
VWidth: 1495
GlyphClass: 2
Flags: W
LayerCount: 2
Back
Fore
SplineSet
644.5546875 547.5 m 2,0,1
 599.294921875 547.5 599.294921875 547.5 573.014648438 512.459960938 c 256,2,3
 540.895507812 471.580078125 540.895507812 471.580078125 558.415039062 413.1796875 c 1,4,-1
 558.415039062 411.719726562 l 1,5,6
 575.935546875 344.559570312 575.935546875 344.559570312 631.415039062 370.83984375 c 2,7,-1
 678.134765625 394.200195312 l 2,8,9
 695.655273438 402.959960938 695.655273438 402.959960938 716.094726562 379.599609375 c 0,10,11
 733.615234375 365 733.615234375 365 733.615234375 338.719726562 c 2,12,-1
 733.615234375 221.919921875 l 2,13,14
 733.615234375 195.639648438 733.615234375 195.639648438 708.794921875 170.8203125 c 4,15,16
 683.974609375 146 683.974609375 146 648.935546875 146 c 4,17,18
 629.955078125 146 629.955078125 146 616.815429688 146 c 4,19,20
 478.115234375 146 478.115234375 146 381.754882812 230.6796875 c 0,21,22
 278.094726562 324.120117188 278.094726562 324.120117188 266.415039062 452.599609375 c 0,23,24
 251.815429688 605.900390625 251.815429688 605.900390625 355.474609375 715.400390625 c 0,25,26
 427.014648438 792.780273438 427.014648438 792.780273438 608.0546875 775.259765625 c 2,27,-1
 831.435546875 753.360351562 l 2,28,29
 900.0546875 747.51953125 900.0546875 747.51953125 929.254882812 819.059570312 c 1,30,-1
 930.71484375 820.51953125 l 2,31,32
 955.53515625 890.599609375 955.53515625 890.599609375 917.575195312 949 c 256,33,34
 897.134765625 978.200195312 897.134765625 978.200195312 862.094726562 981.120117188 c 0,35,36
 686.895507812 995.719726562 686.895507812 995.719726562 628.495117188 995.719726562 c 0,37,38
 377.375 995.719726562 377.375 995.719726562 216.775390625 858.48046875 c 0,39,40
 47.4150390625 715.400390625 47.4150390625 715.400390625 45.955078125 468.66015625 c 0,41,42
 47.4150390625 248.200195312 47.4150390625 248.200195312 187.575195312 113.879882812 c 0,43,44
 336.495117188 -29.2001953125 336.495117188 -29.2001953125 603.674804688 -29.2001953125 c 0,45,46
 682.514648438 -29.2001953125 682.514648438 -29.2001953125 786.174804688 -11.6796875 c 0,47,48
 812.455078125 -7.2998046875 812.455078125 -7.2998046875 840.1953125 -2.919921875 c 0,49,50
 894.21484375 8.759765625 894.21484375 8.759765625 929.254882812 51.099609375 c 0,51,52
 964.294921875 94.900390625 964.294921875 94.900390625 965.754882812 150.379882812 c 2,53,-1
 965.754882812 449.6796875 l 2,54,55
 967.21484375 490.559570312 967.21484375 490.559570312 938.014648438 519.759765625 c 256,56,57
 908.815429688 548.959960938 908.815429688 548.959960938 867.935546875 547.5 c 2,58,-1
 644.5546875 547.5 l 2,0,1
EndSplineSet
EndChar

StartChar: H
Encoding: 43 72 43
Width: 913
VWidth: 1495
GlyphClass: 2
Flags: W
LayerCount: 2
Back
Fore
SplineSet
292 635.099609375 m 1,0,-1
 627.799804688 635.099609375 l 1,1,-1
 627.799804688 873.080078125 l 2,2,3
 627.799804688 922.719726562 627.799804688 922.719726562 661.379882812 957.759765625 c 0,4,5
 696.419921875 992.799804688 696.419921875 992.799804688 746.059570312 992.799804688 c 2,6,-1
 747.51953125 992.799804688 l 2,7,8
 797.16015625 992.799804688 797.16015625 992.799804688 832.200195312 957.759765625 c 0,9,10
 867.240234375 922.719726562 867.240234375 922.719726562 867.240234375 873.080078125 c 2,11,-1
 867.240234375 119.719726562 l 2,12,13
 867.240234375 70.080078125 867.240234375 70.080078125 832.200195312 35.0400390625 c 0,14,15
 797.16015625 0 797.16015625 0 747.51953125 0 c 2,16,-1
 746.059570312 0 l 2,17,18
 696.419921875 0 696.419921875 0 661.379882812 35.0400390625 c 0,19,20
 627.799804688 70.080078125 627.799804688 70.080078125 627.799804688 119.719726562 c 2,21,-1
 627.799804688 438 l 1,22,-1
 292 438 l 1,23,-1
 292 119.719726562 l 2,24,25
 292 70.080078125 292 70.080078125 256.959960938 35.0400390625 c 0,26,27
 221.919921875 0 221.919921875 0 172.280273438 0 c 2,28,-1
 169.360351562 0 l 2,29,30
 119.719726562 0 119.719726562 0 86.1396484375 35.0400390625 c 0,31,32
 51.099609375 70.080078125 51.099609375 70.080078125 51.099609375 119.719726562 c 2,33,-1
 51.099609375 873.080078125 l 2,34,35
 51.099609375 922.719726562 51.099609375 922.719726562 86.1396484375 957.759765625 c 0,36,37
 119.719726562 992.799804688 119.719726562 992.799804688 169.360351562 992.799804688 c 2,38,-1
 172.280273438 992.799804688 l 2,39,40
 221.919921875 992.799804688 221.919921875 992.799804688 256.959960938 957.759765625 c 0,41,42
 292 922.719726562 292 922.719726562 292 873.080078125 c 2,43,-1
 292 635.099609375 l 1,0,-1
EndSplineSet
EndChar

StartChar: I
Encoding: 44 73 44
Width: 334
VWidth: 1495
GlyphClass: 2
Flags: W
LayerCount: 2
Back
Fore
SplineSet
290.540039062 119.719726562 m 2,0,1
 290.540039062 70.080078125 290.540039062 70.080078125 255.5 35.0400390625 c 0,2,3
 221.919921875 0 221.919921875 0 172.280273438 0 c 2,4,-1
 169.360351562 0 l 2,5,6
 119.719726562 0 119.719726562 0 84.6796875 35.0400390625 c 0,7,8
 49.6396484375 70.080078125 49.6396484375 70.080078125 49.6396484375 119.719726562 c 2,9,-1
 49.6396484375 873.080078125 l 6,10,11
 49.6396484375 922.719726562 49.6396484375 922.719726562 84.6796875 957.759765625 c 4,12,13
 119.719726562 992.799804688 119.719726562 992.799804688 169.360351562 992.799804688 c 2,14,-1
 172.280273438 992.799804688 l 2,15,16
 221.919921875 992.799804688 221.919921875 992.799804688 255.5 957.759765625 c 0,17,18
 290.540039062 922.719726562 290.540039062 922.719726562 290.540039062 873.080078125 c 2,19,-1
 290.540039062 119.719726562 l 2,0,1
EndSplineSet
EndChar

StartChar: J
Encoding: 45 74 45
Width: 541
VWidth: 1495
GlyphClass: 2
Flags: W
LayerCount: 2
Back
Fore
SplineSet
140.16015625 989.879882812 m 2,0,1
 100.740234375 989.879882812 100.740234375 989.879882812 77.3798828125 957.759765625 c 0,2,3
 52.5595703125 925.639648438 52.5595703125 925.639648438 62.7802734375 889.139648438 c 1,4,-1
 62.7802734375 887.6796875 l 1,5,6
 67.16015625 861.400390625 67.16015625 861.400390625 90.51953125 843.879882812 c 0,7,8
 113.879882812 826.360351562 113.879882812 826.360351562 141.620117188 826.360351562 c 6,9,-1
 248.200195312 826.360351562 l 1,10,-1
 248.200195312 350.400390625 l 2,11,12
 248.200195312 226.299804688 248.200195312 226.299804688 178.120117188 194.1796875 c 0,13,14
 148.919921875 179.580078125 148.919921875 179.580078125 118.259765625 179.580078125 c 0,15,16
 84.6796875 181.040039062 84.6796875 181.040039062 58.400390625 154.759765625 c 0,17,18
 35.0400390625 129.940429688 35.0400390625 129.940429688 35.0400390625 93.4404296875 c 2,19,-1
 35.0400390625 91.98046875 l 2,20,21
 35.0400390625 35.0400390625 35.0400390625 35.0400390625 86.1396484375 11.6796875 c 0,22,23
 108.040039062 2.919921875 108.040039062 2.919921875 122.639648438 0 c 0,24,25
 289.080078125 -35.0400390625 289.080078125 -35.0400390625 388.360351562 89.0595703125 c 0,26,27
 473.040039062 197.099609375 473.040039062 197.099609375 473.040039062 366.459960938 c 2,28,-1
 473.040039062 878.919921875 l 2,29,30
 473.040039062 925.639648438 473.040039062 925.639648438 440.919921875 957.759765625 c 0,31,32
 408.799804688 989.879882812 408.799804688 989.879882812 363.540039062 989.879882812 c 2,33,-1
 140.16015625 989.879882812 l 2,0,1
EndSplineSet
EndChar

StartChar: K
Encoding: 46 75 46
Width: 857
VWidth: 1495
GlyphClass: 2
Flags: W
LayerCount: 2
Back
Fore
SplineSet
704.797851562 -5.83984375 m 2,0,1
 764.658203125 -5.83984375 764.658203125 -5.83984375 792.397460938 46.7197265625 c 0,2,3
 821.59765625 99.2802734375 821.59765625 99.2802734375 789.477539062 148.919921875 c 2,4,-1
 566.09765625 490.559570312 l 2,5,6
 513.538085938 569.400390625 513.538085938 569.400390625 566.09765625 651.16015625 c 2,7,-1
 681.4375 826.360351562 l 2,8,9
 713.557617188 876 713.557617188 876 684.357421875 928.559570312 c 0,10,11
 656.618164062 981.120117188 656.618164062 981.120117188 598.217773438 979.66015625 c 2,12,-1
 595.297851562 979.66015625 l 2,13,14
 541.278320312 978.200195312 541.278320312 978.200195312 512.078125 934.400390625 c 1,15,-1
 323.73828125 683.280273438 l 2,16,17
 314.977539062 674.51953125 314.977539062 674.51953125 303.297851562 677.440429688 c 0,18,19
 290.158203125 683.280273438 290.158203125 683.280273438 290.158203125 694.959960938 c 2,20,-1
 290.158203125 868.700195312 l 2,21,22
 290.158203125 916.879882812 290.158203125 916.879882812 255.118164062 951.919921875 c 0,23,24
 220.078125 986.959960938 220.078125 986.959960938 171.897460938 986.959960938 c 2,25,-1
 170.4375 986.959960938 l 2,26,27
 120.797851562 986.959960938 120.797851562 986.959960938 85.7578125 951.919921875 c 0,28,29
 50.7177734375 916.879882812 50.7177734375 916.879882812 50.7177734375 868.700195312 c 2,30,-1
 50.7177734375 113.879882812 l 2,31,32
 50.7177734375 64.240234375 50.7177734375 64.240234375 85.7578125 29.2001953125 c 0,33,34
 120.797851562 -5.83984375 120.797851562 -5.83984375 170.4375 -5.83984375 c 2,35,-1
 171.897460938 -5.83984375 l 2,36,37
 220.078125 -5.83984375 220.078125 -5.83984375 255.118164062 29.2001953125 c 0,38,39
 290.158203125 64.240234375 290.158203125 64.240234375 290.158203125 113.879882812 c 2,40,-1
 290.158203125 356.240234375 l 1,41,-1
 291.618164062 356.240234375 l 2,42,43
 314.977539062 382.51953125 314.977539062 382.51953125 348.557617188 382.51953125 c 256,44,45
 383.59765625 381.059570312 383.59765625 381.059570312 402.578125 351.860351562 c 2,46,-1
 620.118164062 40.8798828125 l 2,47,48
 649.318359375 -5.83984375 649.318359375 -5.83984375 701.877929688 -5.83984375 c 2,49,-1
 704.797851562 -5.83984375 l 2,0,1
EndSplineSet
EndChar

StartChar: L
Encoding: 47 76 47
Width: 732
VWidth: 1495
GlyphClass: 2
Flags: W
LayerCount: 2
Back
Fore
SplineSet
148.919921875 992.799804688 m 6,0,1
 213.16015625 992.799804688 213.16015625 992.799804688 248.200195312 957.759765625 c 4,2,3
 286.16015625 922.719726562 286.16015625 922.719726562 283.240234375 873.080078125 c 6,4,-1
 268.639648438 188.33984375 l 5,5,-1
 613.200195312 202.940429688 l 2,6,7
 651.16015625 204.400390625 651.16015625 204.400390625 678.900390625 175.200195312 c 0,8,9
 706.639648438 147.459960938 706.639648438 147.459960938 706.639648438 109.5 c 2,10,-1
 706.639648438 108.040039062 l 2,11,12
 706.639648438 55.48046875 706.639648438 55.48046875 678.900390625 26.2802734375 c 0,13,14
 652.620117188 0 652.620117188 0 613.200195312 0 c 2,15,-1
 153.299804688 0 l 2,16,17
 106.580078125 0 106.580078125 0 74.4599609375 32.1201171875 c 0,18,19
 42.33984375 64.240234375 42.33984375 64.240234375 42.33984375 110.959960938 c 2,20,-1
 42.33984375 873.080078125 l 2,21,22
 42.33984375 922.719726562 42.33984375 922.719726562 77.3798828125 957.759765625 c 0,23,24
 110.959960938 992.799804688 110.959960938 992.799804688 146 992.799804688 c 6,25,-1
 148.919921875 992.799804688 l 6,0,1
EndSplineSet
EndChar

StartChar: M
Encoding: 48 77 48
Width: 1227
VWidth: 1495
GlyphClass: 2
Flags: W
LayerCount: 2
Back
Fore
SplineSet
280.3203125 727.080078125 m 1,0,-1
 455.51953125 122.639648438 l 2,1,2
 471.580078125 67.16015625 471.580078125 67.16015625 515.379882812 35.0400390625 c 0,3,4
 560.639648438 0 560.639648438 0 616.120117188 0 c 2,5,-1
 619.040039062 0 l 2,6,7
 674.51953125 0 674.51953125 0 721.240234375 35.0400390625 c 0,8,9
 767.959960938 68.6201171875 767.959960938 68.6201171875 782.559570312 122.639648438 c 2,10,-1
 956.299804688 727.080078125 l 1,11,-1
 941.700195312 105.120117188 l 6,12,13
 941.700195312 61.3203125 941.700195312 61.3203125 973.08984375 30.66015625 c 132,-1,14
 1004.48046875 0 1004.48046875 0 1048.28027344 0 c 6,15,-1
 1049.74023438 0 l 6,16,17
 1108.13964844 0 1108.13964844 0 1138.79980469 32.1201171875 c 0,18,19
 1170.91992188 61.3203125 1170.91992188 61.3203125 1170.91992188 105.120117188 c 2,20,-1
 1170.91992188 797.16015625 l 2,21,22
 1170.91992188 878.919921875 1170.91992188 878.919921875 1112.51953125 935.860351562 c 256,23,24
 1055.58007812 992.799804688 1055.58007812 992.799804688 975.280273438 992.799804688 c 2,25,-1
 972.360351562 992.799804688 l 2,26,27
 906.66015625 992.799804688 906.66015625 992.799804688 854.099609375 953.379882812 c 256,28,29
 801.540039062 913.959960938 801.540039062 913.959960938 784.01953125 851.1796875 c 2,30,-1
 619.040039062 274.48046875 l 1,31,-1
 452.599609375 852.639648438 l 2,32,33
 435.080078125 915.419921875 435.080078125 915.419921875 382.51953125 953.379882812 c 0,34,35
 329.959960938 992.799804688 329.959960938 992.799804688 265.719726562 992.799804688 c 2,36,-1
 262.799804688 992.799804688 l 2,37,38
 181.040039062 992.799804688 181.040039062 992.799804688 124.099609375 935.860351562 c 256,39,40
 67.16015625 878.919921875 67.16015625 878.919921875 67.16015625 797.16015625 c 2,41,-1
 67.16015625 105.120117188 l 2,42,43
 67.16015625 61.3203125 67.16015625 61.3203125 99.2802734375 32.1201171875 c 0,44,45
 128.48046875 0 128.48046875 0 172.280273438 0 c 2,46,-1
 189.799804688 0 l 2,47,48
 233.599609375 0 233.599609375 0 265.719726562 32.1201171875 c 0,49,50
 297.83984375 64.240234375 297.83984375 64.240234375 294.919921875 105.120117188 c 2,51,-1
 280.3203125 727.080078125 l 1,0,-1
EndSplineSet
EndChar

StartChar: N
Encoding: 49 78 49
Width: 1057
VWidth: 1495
GlyphClass: 2
Flags: W
LayerCount: 2
Back
Fore
SplineSet
306.599609375 662.83984375 m 1,0,-1
 662.83984375 84.6796875 l 2,1,2
 718.3203125 -5.83984375 718.3203125 -5.83984375 820.51953125 -5.83984375 c 2,3,-1
 824.900390625 -5.83984375 l 2,4,5
 900.8203125 -5.83984375 900.8203125 -5.83984375 956.299804688 49.6396484375 c 256,6,7
 1010.3203125 105.120117188 1010.3203125 105.120117188 1010.3203125 181.040039062 c 2,8,-1
 1010.3203125 870.16015625 l 2,9,10
 1010.3203125 919.799804688 1010.3203125 919.799804688 976.740234375 953.379882812 c 256,11,12
 941.700195312 986.959960938 941.700195312 986.959960938 878.919921875 986.959960938 c 6,13,-1
 876 986.959960938 l 6,14,15
 829.280273438 986.959960938 829.280273438 986.959960938 794.240234375 953.379882812 c 4,16,17
 759.200195312 918.33984375 759.200195312 918.33984375 759.200195312 870.16015625 c 6,18,-1
 773.799804688 324.120117188 l 1,19,-1
 353.3203125 937.3203125 l 2,20,21
 318.280273438 986.959960938 318.280273438 986.959960938 256.959960938 986.959960938 c 2,22,-1
 186.879882812 986.959960938 l 2,23,24
 137.240234375 986.959960938 137.240234375 986.959960938 105.120117188 953.379882812 c 256,25,26
 70.080078125 918.33984375 70.080078125 918.33984375 70.080078125 870.16015625 c 2,27,-1
 70.080078125 112.419921875 l 2,28,29
 70.080078125 62.7802734375 70.080078125 62.7802734375 105.120117188 29.2001953125 c 256,30,31
 140.16015625 -5.83984375 140.16015625 -5.83984375 201.48046875 -5.83984375 c 2,32,-1
 204.400390625 -5.83984375 l 2,33,34
 254.040039062 -5.83984375 254.040039062 -5.83984375 287.620117188 29.2001953125 c 256,35,36
 321.200195312 64.240234375 321.200195312 64.240234375 321.200195312 112.419921875 c 2,37,-1
 306.599609375 662.83984375 l 1,0,-1
EndSplineSet
EndChar

StartChar: O
Encoding: 50 79 50
Width: 1156
VWidth: 1495
GlyphClass: 2
Flags: W
LayerCount: 2
Back
Fore
SplineSet
373.759765625 189.799804688 m 4,1,2
 292 286.16015625 292 286.16015625 290.540039062 551.879882812 c 256,3,4
 292 686.200195312 292 686.200195312 373.759765625 782.559570312 c 0,5,6
 455.51953125 878.919921875 455.51953125 878.919921875 572.3203125 878.919921875 c 0,7,8
 689.120117188 878.919921875 689.120117188 878.919921875 770.879882812 782.559570312 c 0,9,10
 852.639648438 686.200195312 852.639648438 686.200195312 852.639648438 551.879882812 c 256,11,12
 852.639648438 286.16015625 852.639648438 286.16015625 770.879882812 189.799804688 c 4,13,14
 689.120117188 93.4404296875 689.120117188 93.4404296875 572.3203125 93.4404296875 c 4,15,0
 455.51953125 93.4404296875 455.51953125 93.4404296875 373.759765625 189.799804688 c 4,1,2
572.3203125 1016.16015625 m 0,17,18
 560.639648438 1016.16015625 560.639648438 1016.16015625 537.280273438 1013.24023438 c 0,19,20
 318.280273438 992.799804688 318.280273438 992.799804688 182.5 855.559570312 c 0,21,22
 39.419921875 712.48046875 39.419921875 712.48046875 39.419921875 478.879882812 c 0,23,24
 39.419921875 265.719726562 39.419921875 265.719726562 164.98046875 129.940429688 c 0,25,26
 297.83984375 -11.6796875 297.83984375 -11.6796875 537.280273438 -26.2802734375 c 0,27,28
 551.879882812 -29.2001953125 551.879882812 -29.2001953125 559.1796875 -29.2001953125 c 0,29,30
 562.099609375 -29.2001953125 562.099609375 -29.2001953125 565.01953125 -29.2001953125 c 2,31,-1
 578.16015625 -29.2001953125 l 2,32,33
 581.080078125 -29.2001953125 581.080078125 -29.2001953125 584 -29.2001953125 c 0,34,35
 591.299804688 -29.2001953125 591.299804688 -29.2001953125 605.900390625 -26.2802734375 c 0,36,37
 846.799804688 -13.1396484375 846.799804688 -13.1396484375 978.200195312 129.940429688 c 0,38,39
 1103.75976562 265.719726562 1103.75976562 265.719726562 1103.75976562 478.879882812 c 0,40,41
 1103.75976562 711.01953125 1103.75976562 711.01953125 960.6796875 855.559570312 c 0,42,43
 826.360351562 992.799804688 826.360351562 992.799804688 605.900390625 1013.24023438 c 0,44,16
 584 1016.16015625 584 1016.16015625 572.3203125 1016.16015625 c 0,17,18
EndSplineSet
EndChar

StartChar: P
Encoding: 51 80 51
Width: 852
VWidth: 1495
GlyphClass: 2
Flags: W
LayerCount: 2
Back
Fore
SplineSet
309.51953125 902.280273438 m 1,0,-1
 424.860351562 902.280273438 l 2,1,2
 484.719726562 902.280273438 484.719726562 902.280273438 525.599609375 857.01953125 c 0,3,4
 575.240234375 804.459960938 575.240234375 804.459960938 575.240234375 683.280273438 c 4,5,6
 575.240234375 554.799804688 575.240234375 554.799804688 525.599609375 502.240234375 c 0,7,8
 484.719726562 458.440429688 484.719726562 458.440429688 424.860351562 458.440429688 c 2,9,-1
 309.51953125 458.440429688 l 1,10,-1
 309.51953125 902.280273438 l 1,0,-1
494.940429688 347.48046875 m 2,11,12
 649.700195312 348.940429688 649.700195312 348.940429688 731.459960938 475.959960938 c 0,13,14
 792.780273438 572.3203125 792.780273438 572.3203125 792.780273438 668.6796875 c 0,15,16
 792.780273438 788.400390625 792.780273438 788.400390625 713.940429688 880.379882812 c 0,17,18
 636.559570312 970.900390625 636.559570312 970.900390625 519.759765625 988.419921875 c 1,19,-1
 512.459960938 989.879882812 l 2,20,21
 489.099609375 992.799804688 489.099609375 992.799804688 468.66015625 992.799804688 c 2,22,-1
 192.719726562 992.799804688 l 2,23,24
 143.080078125 992.799804688 143.080078125 992.799804688 108.040039062 957.759765625 c 0,25,26
 73 922.719726562 73 922.719726562 73 876 c 2,27,-1
 73 109.5 l 2,28,29
 73 58.400390625 73 58.400390625 108.040039062 26.2802734375 c 0,30,31
 140.16015625 -8.759765625 140.16015625 -8.759765625 189.799804688 -7.2998046875 c 2,32,-1
 192.719726562 -7.2998046875 l 2,33,34
 239.440429688 -8.759765625 239.440429688 -8.759765625 274.48046875 26.2802734375 c 0,35,36
 309.51953125 59.8603515625 309.51953125 59.8603515625 309.51953125 109.5 c 2,37,-1
 309.51953125 344.559570312 l 1,38,-1
 494.940429688 347.48046875 l 2,11,12
EndSplineSet
EndChar

StartChar: Q
Encoding: 52 81 52
Width: 1135
VWidth: 1495
GlyphClass: 2
Flags: W
LayerCount: 2
Back
Fore
SplineSet
373.759765625 204.400390625 m 0,1,2
 292 300.759765625 292 300.759765625 290.540039062 493.48046875 c 256,3,4
 292 686.200195312 292 686.200195312 373.759765625 782.559570312 c 0,5,6
 455.51953125 878.919921875 455.51953125 878.919921875 572.3203125 878.919921875 c 0,7,8
 689.120117188 878.919921875 689.120117188 878.919921875 770.879882812 782.559570312 c 0,9,10
 852.639648438 686.200195312 852.639648438 686.200195312 852.639648438 493.48046875 c 256,11,12
 852.639648438 300.759765625 852.639648438 300.759765625 770.879882812 204.400390625 c 0,13,14
 689.120117188 108.040039062 689.120117188 108.040039062 572.3203125 108.040039062 c 0,15,0
 455.51953125 108.040039062 455.51953125 108.040039062 373.759765625 204.400390625 c 0,1,2
716.860351562 -147.459960938 m 2,16,17
 735.83984375 -220.459960938 735.83984375 -220.459960938 829.280273438 -240.900390625 c 256,18,19
 878.919921875 -251.120117188 878.919921875 -251.120117188 919.799804688 -224.83984375 c 1,20,-1
 919.799804688 -221.919921875 l 1,21,22
 960.6796875 -195.639648438 960.6796875 -195.639648438 972.360351562 -147.459960938 c 0,23,24
 981.120117188 -99.2802734375 981.120117188 -99.2802734375 954.83984375 -58.400390625 c 2,25,-1
 881.83984375 52.5595703125 l 1,26,27
 934.400390625 84.6796875 934.400390625 84.6796875 978.200195312 129.940429688 c 0,28,29
 1103.75976562 265.719726562 1103.75976562 265.719726562 1103.75976562 478.879882812 c 0,30,31
 1103.75976562 711.01953125 1103.75976562 711.01953125 960.6796875 855.559570312 c 0,32,33
 833.66015625 984.040039062 833.66015625 984.040039062 605.900390625 1013.24023438 c 0,34,35
 584 1016.16015625 584 1016.16015625 572.3203125 1016.16015625 c 0,36,37
 567.940429688 1016.16015625 567.940429688 1016.16015625 537.280273438 1013.24023438 c 0,38,39
 316.8203125 992.799804688 316.8203125 992.799804688 182.5 855.559570312 c 0,40,41
 39.419921875 712.48046875 39.419921875 712.48046875 39.419921875 478.879882812 c 0,42,43
 39.419921875 265.719726562 39.419921875 265.719726562 164.98046875 129.940429688 c 0,44,45
 287.620117188 0 287.620117188 0 537.280273438 -26.2802734375 c 0,46,47
 551.879882812 -29.2001953125 551.879882812 -29.2001953125 559.1796875 -29.2001953125 c 2,48,-1
 584 -29.2001953125 l 2,49,50
 586.919921875 -29.2001953125 586.919921875 -29.2001953125 605.900390625 -26.2802734375 c 0,51,52
 655.540039062 -23.3603515625 655.540039062 -23.3603515625 684.740234375 -21.900390625 c 1,53,-1
 716.860351562 -147.459960938 l 2,16,17
EndSplineSet
EndChar

StartChar: R
Encoding: 53 82 53
Width: 852
VWidth: 1495
GlyphClass: 2
Flags: W
LayerCount: 2
Back
Fore
SplineSet
281.29296875 890.599609375 m 1,0,-1
 396.6328125 890.599609375 l 2,1,2
 453.573242188 890.599609375 453.573242188 890.599609375 497.373046875 843.879882812 c 0,3,4
 541.172851562 800.080078125 541.172851562 800.080078125 541.172851562 678.900390625 c 256,5,6
 541.172851562 557.719726562 541.172851562 557.719726562 497.373046875 513.919921875 c 4,7,8
 456.493164062 470.120117188 456.493164062 470.120117188 396.6328125 468.66015625 c 6,9,-1
 281.29296875 468.66015625 l 5,10,-1
 281.29296875 890.599609375 l 1,0,-1
646.29296875 414.639648438 m 1,11,12
 681.333007812 443.83984375 681.333007812 443.83984375 703.233398438 478.879882812 c 0,13,14
 764.552734375 575.240234375 764.552734375 575.240234375 764.552734375 671.599609375 c 0,15,16
 764.552734375 791.3203125 764.552734375 791.3203125 685.712890625 883.299804688 c 0,17,18
 608.333007812 973.8203125 608.333007812 973.8203125 491.533203125 991.33984375 c 1,19,-1
 484.233398438 992.799804688 l 2,20,21
 452.11328125 995.719726562 452.11328125 995.719726562 440.432617188 995.719726562 c 2,22,-1
 164.493164062 995.719726562 l 2,23,24
 114.853515625 995.719726562 114.853515625 995.719726562 79.8134765625 960.6796875 c 0,25,26
 44.7734375 925.639648438 44.7734375 925.639648438 44.7734375 877.459960938 c 2,27,-1
 44.7734375 110.959960938 l 2,28,29
 44.7734375 61.3203125 44.7734375 61.3203125 79.8134765625 29.2001953125 c 0,30,31
 111.932617188 -5.83984375 111.932617188 -5.83984375 161.573242188 -4.3798828125 c 2,32,-1
 164.493164062 -4.3798828125 l 2,33,34
 211.212890625 -5.83984375 211.212890625 -5.83984375 246.252929688 29.2001953125 c 0,35,36
 281.29296875 61.3203125 281.29296875 61.3203125 281.29296875 110.959960938 c 2,37,-1
 281.29296875 347.48046875 l 1,38,-1
 457.953125 350.400390625 l 1,39,-1
 532.413085938 137.240234375 l 2,40,41
 571.833007812 23.3603515625 571.833007812 23.3603515625 663.813476562 0 c 0,42,43
 709.073242188 -11.6796875 709.073242188 -11.6796875 749.953125 11.6796875 c 1,44,-1
 751.413085938 11.6796875 l 2,45,46
 792.29296875 39.419921875 792.29296875 39.419921875 803.97265625 81.759765625 c 0,47,48
 815.653320312 128.48046875 815.653320312 128.48046875 792.29296875 169.360351562 c 2,49,-1
 646.29296875 414.639648438 l 1,11,12
EndSplineSet
EndChar

StartChar: S
Encoding: 54 83 54
Width: 767
VWidth: 1495
GlyphClass: 2
Flags: W
LayerCount: 2
Back
Fore
SplineSet
319.740234375 649.700195312 m 0,1,2
 277.400390625 677.440429688 277.400390625 677.440429688 277.400390625 721.240234375 c 0,3,4
 277.400390625 759.200195312 277.400390625 759.200195312 309.51953125 785.48046875 c 0,5,6
 347.48046875 814.6796875 347.48046875 814.6796875 416.099609375 813.219726562 c 0,7,8
 470.120117188 813.219726562 470.120117188 813.219726562 537.280273438 794.240234375 c 0,9,10
 575.240234375 784.01953125 575.240234375 784.01953125 607.360351562 803 c 0,11,12
 640.940429688 823.440429688 640.940429688 823.440429688 652.620117188 859.940429688 c 2,13,-1
 654.080078125 861.400390625 l 2,14,15
 662.83984375 899.360351562 662.83984375 899.360351562 642.400390625 935.860351562 c 0,16,17
 621.959960938 970.900390625 621.959960938 970.900390625 584 979.66015625 c 0,18,19
 480.33984375 1005.94042969 480.33984375 1005.94042969 419.01953125 1005.94042969 c 0,20,21
 248.200195312 1007.40039062 248.200195312 1007.40039062 143.080078125 922.719726562 c 0,22,23
 37.9599609375 840.959960938 37.9599609375 840.959960938 37.9599609375 703.719726562 c 0,24,25
 37.9599609375 502.240234375 37.9599609375 502.240234375 315.360351562 402.959960938 c 0,26,27
 405.879882812 370.83984375 405.879882812 370.83984375 442.379882812 341.639648438 c 256,28,29
 478.879882812 312.440429688 478.879882812 312.440429688 478.879882812 270.099609375 c 0,30,31
 478.879882812 221.919921875 478.879882812 221.919921875 438 195.639648438 c 0,32,33
 397.120117188 166.440429688 397.120117188 166.440429688 327.040039062 166.440429688 c 0,34,35
 268.639648438 166.440429688 268.639648438 166.440429688 172.280273438 197.099609375 c 0,36,37
 131.400390625 210.240234375 131.400390625 210.240234375 94.900390625 189.799804688 c 256,38,39
 58.400390625 169.360351562 58.400390625 169.360351562 48.1796875 128.48046875 c 1,40,-1
 46.7197265625 125.559570312 l 1,41,42
 37.9599609375 87.599609375 37.9599609375 87.599609375 58.400390625 52.5595703125 c 256,43,44
 78.83984375 17.51953125 78.83984375 17.51953125 115.33984375 8.759765625 c 0,45,46
 233.599609375 -26.2802734375 233.599609375 -26.2802734375 312.440429688 -26.2802734375 c 0,47,48
 519.759765625 -26.2802734375 519.759765625 -26.2802734375 627.799804688 73 c 0,49,50
 718.3203125 157.6796875 718.3203125 157.6796875 718.3203125 286.16015625 c 0,51,52
 718.3203125 391.280273438 718.3203125 391.280273438 654.080078125 464.280273438 c 256,53,54
 592.759765625 537.280273438 592.759765625 537.280273438 458.440429688 586.919921875 c 0,55,0
 356.240234375 626.33984375 356.240234375 626.33984375 319.740234375 649.700195312 c 0,1,2
EndSplineSet
EndChar

StartChar: T
Encoding: 55 84 55
Width: 846
VWidth: 1495
GlyphClass: 2
Flags: W
LayerCount: 2
Back
Fore
SplineSet
37.3232421875 870.16015625 m 1,0,1
 43.1630859375 843.879882812 43.1630859375 843.879882812 66.5234375 826.360351562 c 0,2,3
 89.8837890625 805.919921875 89.8837890625 805.919921875 116.163085938 808.83984375 c 2,4,-1
 300.123046875 823.440429688 l 1,5,-1
 300.123046875 116.799804688 l 2,6,7
 300.123046875 67.16015625 300.123046875 67.16015625 335.163085938 29.2001953125 c 0,8,9
 370.203125 -5.83984375 370.203125 -5.83984375 421.303710938 -5.83984375 c 2,10,-1
 422.763671875 -5.83984375 l 2,11,12
 472.403320312 -5.83984375 472.403320312 -5.83984375 510.36328125 29.2001953125 c 0,13,14
 545.403320312 64.240234375 545.403320312 64.240234375 545.403320312 116.799804688 c 2,15,-1
 545.403320312 823.440429688 l 1,16,-1
 729.36328125 808.83984375 l 6,17,18
 755.643554688 805.919921875 755.643554688 805.919921875 779.002929688 826.360351562 c 4,19,20
 802.36328125 843.879882812 802.36328125 843.879882812 808.203125 870.16015625 c 5,21,-1
 808.203125 873.080078125 l 5,22,23
 822.803710938 921.259765625 822.803710938 921.259765625 793.603515625 956.299804688 c 0,24,25
 770.243164062 986.959960938 770.243164062 986.959960938 729.36328125 986.959960938 c 2,26,-1
 116.163085938 986.959960938 l 2,27,28
 78.203125 986.959960938 78.203125 986.959960938 51.923828125 956.299804688 c 0,29,30
 25.6435546875 922.719726562 25.6435546875 922.719726562 37.3232421875 873.080078125 c 1,31,-1
 37.3232421875 870.16015625 l 1,0,1
EndSplineSet
EndChar

StartChar: U
Encoding: 56 85 56
Width: 966
VWidth: 1495
GlyphClass: 2
Flags: W
LayerCount: 2
Back
Fore
SplineSet
679.659179688 394.200195312 m 2,0,1
 681.119140625 318.280273438 681.119140625 318.280273438 622.71875 259.879882812 c 256,2,3
 567.239257812 204.400390625 567.239257812 204.400390625 488.399414062 202.940429688 c 2,4,-1
 482.559570312 202.940429688 l 2,5,6
 400.798828125 202.940429688 400.798828125 202.940429688 345.319335938 259.879882812 c 0,7,8
 283.999023438 319.740234375 283.999023438 319.740234375 286.918945312 398.580078125 c 2,9,-1
 301.51953125 886.219726562 l 2,10,11
 302.979492188 932.940429688 302.979492188 932.940429688 267.939453125 969.440429688 c 0,12,13
 234.359375 1004.48046875 234.359375 1004.48046875 184.71875 1004.48046875 c 2,14,-1
 181.798828125 1004.48046875 l 2,15,16
 117.559570312 1004.48046875 117.559570312 1004.48046875 82.51953125 969.440429688 c 0,17,18
 47.4794921875 934.400390625 47.4794921875 934.400390625 48.939453125 886.219726562 c 2,19,-1
 48.939453125 432.16015625 l 2,20,21
 47.4794921875 251.120117188 47.4794921875 251.120117188 175.958984375 122.639648438 c 256,22,23
 304.439453125 -5.83984375 304.439453125 -5.83984375 485.479492188 -5.83984375 c 2,24,-1
 494.239257812 -5.83984375 l 2,25,26
 669.439453125 -5.83984375 669.439453125 -5.83984375 794.999023438 119.719726562 c 0,27,28
 917.639648438 245.280273438 917.639648438 245.280273438 917.639648438 420.48046875 c 2,29,-1
 917.639648438 886.219726562 l 2,30,31
 917.639648438 935.860351562 917.639648438 935.860351562 884.059570312 969.440429688 c 0,32,33
 850.479492188 1004.48046875 850.479492188 1004.48046875 786.239257812 1004.48046875 c 6,34,-1
 783.319335938 1004.48046875 l 6,35,36
 733.6796875 1004.48046875 733.6796875 1004.48046875 698.639648438 969.440429688 c 4,37,38
 663.599609375 934.400390625 663.599609375 934.400390625 665.059570312 886.219726562 c 6,39,-1
 679.659179688 394.200195312 l 2,0,1
EndSplineSet
EndChar

StartChar: V
Encoding: 57 86 57
Width: 951
VWidth: 1495
GlyphClass: 2
Flags: W
LayerCount: 2
Back
Fore
SplineSet
39.7197265625 835.120117188 m 2,0,1
 20.7392578125 892.059570312 20.7392578125 892.059570312 55.779296875 941.700195312 c 0,2,3
 90.8193359375 991.33984375 90.8193359375 991.33984375 150.6796875 991.33984375 c 2,4,-1
 178.418945312 991.33984375 l 2,5,6
 216.379882812 991.33984375 216.379882812 991.33984375 248.499023438 967.98046875 c 0,7,8
 280.619140625 944.620117188 280.619140625 944.620117188 289.379882812 908.120117188 c 2,9,-1
 379.899414062 572.3203125 l 2,10,11
 454.359375 312.440429688 454.359375 312.440429688 474.799804688 216.080078125 c 1,12,-1
 479.1796875 216.080078125 l 1,13,14
 485.01953125 245.280273438 485.01953125 245.280273438 575.5390625 566.48046875 c 2,15,-1
 663.139648438 909.580078125 l 6,16,17
 671.899414062 946.080078125 671.899414062 946.080078125 706.939453125 969.440429688 c 4,18,19
 739.059570312 992.799804688 739.059570312 992.799804688 797.458984375 991.33984375 c 2,20,-1
 800.379882812 991.33984375 l 2,21,22
 861.69921875 989.879882812 861.69921875 989.879882812 896.739257812 940.240234375 c 0,23,24
 931.779296875 890.599609375 931.779296875 890.599609375 911.33984375 833.66015625 c 2,25,-1
 655.83984375 128.48046875 l 2,26,27
 636.859375 70.080078125 636.859375 70.080078125 584.299804688 35.0400390625 c 0,28,29
 534.659179688 0 534.659179688 0 470.418945312 -1.4599609375 c 2,30,-1
 467.499023438 -1.4599609375 l 2,31,32
 403.259765625 -1.4599609375 403.259765625 -1.4599609375 353.619140625 35.0400390625 c 256,33,34
 302.51953125 71.5400390625 302.51953125 71.5400390625 282.079101562 131.400390625 c 2,35,-1
 39.7197265625 835.120117188 l 2,0,1
EndSplineSet
EndChar

StartChar: W
Encoding: 58 87 58
Width: 1524
VWidth: 1495
GlyphClass: 2
Flags: W
LayerCount: 2
Back
Fore
SplineSet
1360.61816406 986.959960938 m 6,0,1
 1324.11816406 986.959960938 1324.11816406 986.959960938 1291.99804688 965.059570312 c 4,2,3
 1259.87792969 940.240234375 1259.87792969 940.240234375 1248.19824219 905.200195312 c 6,4,-1
 1153.29785156 563.559570312 l 2,5,6
 1064.23828125 245.280273438 1064.23828125 245.280273438 1056.93847656 213.16015625 c 1,7,-1
 1052.55761719 213.16015625 l 1,8,9
 1017.51757812 382.51953125 1017.51757812 382.51953125 893.41796875 884.759765625 c 0,10,11
 880.278320312 928.559570312 880.278320312 928.559570312 845.23828125 959.219726562 c 0,12,13
 810.198242188 986.959960938 810.198242188 986.959960938 763.478515625 986.959960938 c 2,14,-1
 760.557617188 986.959960938 l 2,15,16
 713.837890625 986.959960938 713.837890625 986.959960938 678.797851562 959.219726562 c 0,17,18
 642.297851562 928.559570312 642.297851562 928.559570312 632.078125 884.759765625 c 0,19,20
 494.837890625 318.280273438 494.837890625 318.280273438 472.938476562 213.16015625 c 1,21,-1
 468.557617188 213.16015625 l 1,22,23
 468.557617188 219 468.557617188 219 372.198242188 563.559570312 c 2,24,-1
 275.837890625 905.200195312 l 2,25,26
 267.078125 940.240234375 267.078125 940.240234375 234.958007812 965.059570312 c 0,27,28
 202.837890625 986.959960938 202.837890625 986.959960938 164.877929688 986.959960938 c 2,29,-1
 147.358398438 986.959960938 l 2,30,31
 86.0380859375 986.959960938 86.0380859375 986.959960938 50.998046875 936.58984375 c 0,32,33
 15.9580078125 884.759765625 15.9580078125 884.759765625 36.3984375 829.280273438 c 2,34,-1
 293.358398438 119.719726562 l 2,35,36
 313.797851562 64.240234375 313.797851562 64.240234375 363.438476562 29.2001953125 c 128,-1,37
 413.078125 -5.83984375 413.078125 -5.83984375 471.478515625 -5.83984375 c 2,38,-1
 474.3984375 -5.83984375 l 2,39,40
 538.637695312 -5.83984375 538.637695312 -5.83984375 588.278320312 35.0400390625 c 256,41,42
 637.91796875 75.919921875 637.91796875 75.919921875 655.438476562 137.240234375 c 2,43,-1
 763.478515625 551.879882812 l 1,44,-1
 868.59765625 137.240234375 l 2,45,46
 884.658203125 75.919921875 884.658203125 75.919921875 935.7578125 35.0400390625 c 0,47,48
 988.318359375 -5.83984375 988.318359375 -5.83984375 1052.55761719 -5.83984375 c 2,49,-1
 1055.47851562 -5.83984375 l 2,50,51
 1113.87792969 -5.83984375 1113.87792969 -5.83984375 1163.51757812 29.2001953125 c 0,52,53
 1210.23828125 64.240234375 1210.23828125 64.240234375 1230.67773438 119.719726562 c 2,54,-1
 1487.63769531 829.280273438 l 2,55,56
 1508.078125 887.6796875 1508.078125 887.6796875 1474.49804688 937.3203125 c 0,57,58
 1439.45800781 986.959960938 1439.45800781 986.959960938 1378.13769531 986.959960938 c 2,59,-1
 1360.61816406 986.959960938 l 6,0,1
EndSplineSet
EndChar

StartChar: X
Encoding: 59 88 59
Width: 819
VWidth: 1495
GlyphClass: 2
Flags: W
LayerCount: 2
Back
Fore
SplineSet
640.209960938 986.959960938 m 2,0,1
 562.830078125 986.959960938 562.830078125 986.959960938 533.629882812 922.719726562 c 2,2,-1
 409.530273438 659.919921875 l 1,3,-1
 285.4296875 922.719726562 l 2,4,5
 254.76953125 986.959960938 254.76953125 986.959960938 178.849609375 986.959960938 c 2,6,-1
 161.330078125 986.959960938 l 2,7,8
 88.330078125 986.959960938 88.330078125 986.959960938 54.75 924.1796875 c 256,9,10
 22.6298828125 861.400390625 22.6298828125 861.400390625 60.58984375 800.080078125 c 2,11,-1
 259.150390625 490.559570312 l 1,12,-1
 60.58984375 181.040039062 l 2,13,14
 21.169921875 119.719726562 21.169921875 119.719726562 54.75 58.400390625 c 0,15,16
 89.7900390625 -5.83984375 89.7900390625 -5.83984375 161.330078125 -5.83984375 c 2,17,-1
 178.849609375 -5.83984375 l 2,18,19
 256.23046875 -5.83984375 256.23046875 -5.83984375 285.4296875 58.400390625 c 2,20,-1
 409.530273438 321.200195312 l 1,21,-1
 533.629882812 58.400390625 l 6,22,23
 562.830078125 -5.83984375 562.830078125 -5.83984375 640.209960938 -5.83984375 c 6,24,-1
 643.129882812 -5.83984375 l 6,25,26
 730.73046875 -5.83984375 730.73046875 -5.83984375 764.309570312 58.400390625 c 0,27,28
 796.4296875 119.719726562 796.4296875 119.719726562 758.469726562 181.040039062 c 2,29,-1
 559.91015625 490.559570312 l 1,30,-1
 758.469726562 800.080078125 l 2,31,32
 797.889648438 861.400390625 797.889648438 861.400390625 764.309570312 924.1796875 c 256,33,34
 729.26953125 986.959960938 729.26953125 986.959960938 643.129882812 986.959960938 c 2,35,-1
 640.209960938 986.959960938 l 2,0,1
EndSplineSet
EndChar

StartChar: Y
Encoding: 60 89 60
Width: 786
VWidth: 1495
GlyphClass: 2
Flags: W
LayerCount: 2
Back
Fore
SplineSet
268.325195312 318.280273438 m 1,0,-1
 14.28515625 821.98046875 l 2,1,2
 -14.9140625 878.919921875 -14.9140625 878.919921875 20.1259765625 932.940429688 c 0,3,4
 53.7060546875 986.959960938 53.7060546875 986.959960938 116.485351562 986.959960938 c 2,5,-1
 129.625976562 986.959960938 l 6,6,7
 208.465820312 986.959960938 208.465820312 986.959960938 236.206054688 913.959960938 c 4,8,9
 315.045898438 703.719726562 315.045898438 703.719726562 396.805664062 496.400390625 c 1,10,-1
 560.325195312 913.959960938 l 2,11,12
 589.525390625 986.959960938 589.525390625 986.959960938 666.905273438 986.959960938 c 2,13,-1
 668.365234375 986.959960938 l 2,14,15
 732.60546875 986.959960938 732.60546875 986.959960938 767.645507812 931.48046875 c 0,16,17
 802.685546875 876 802.685546875 876 770.565429688 820.51953125 c 2,18,-1
 507.765625 327.040039062 l 1,19,-1
 507.765625 113.879882812 l 2,20,21
 507.765625 64.240234375 507.765625 64.240234375 472.725585938 29.2001953125 c 0,22,23
 437.685546875 -5.83984375 437.685546875 -5.83984375 389.505859375 -5.83984375 c 2,24,-1
 386.5859375 -5.83984375 l 2,25,26
 338.405273438 -5.83984375 338.405273438 -5.83984375 303.365234375 29.2001953125 c 0,27,28
 268.325195312 64.240234375 268.325195312 64.240234375 268.325195312 113.879882812 c 2,29,-1
 268.325195312 318.280273438 l 1,0,-1
EndSplineSet
EndChar

StartChar: Z
Encoding: 61 90 61
Width: 887
VWidth: 1495
GlyphClass: 2
Flags: W
LayerCount: 2
Back
Fore
SplineSet
32.5849609375 84.6796875 m 2,0,1
 32.5849609375 116.799804688 32.5849609375 116.799804688 50.1044921875 140.16015625 c 2,2,-1
 539.205078125 795.700195312 l 1,3,-1
 539.205078125 801.540039062 l 1,4,-1
 140.625 786.940429688 l 2,5,6
 74.9248046875 782.559570312 74.9248046875 782.559570312 53.0244140625 849.719726562 c 1,7,-1
 51.564453125 852.639648438 l 1,8,9
 34.044921875 908.120117188 34.044921875 908.120117188 66.1650390625 949 c 0,10,11
 92.4443359375 986.959960938 92.4443359375 986.959960938 139.165039062 986.959960938 c 2,12,-1
 755.28515625 986.959960938 l 2,13,14
 796.165039062 986.959960938 796.165039062 986.959960938 822.444335938 959.219726562 c 256,15,16
 851.64453125 930.01953125 851.64453125 930.01953125 851.64453125 890.599609375 c 2,17,-1
 851.64453125 890.599609375 l 2,18,19
 851.64453125 858.48046875 851.64453125 858.48046875 832.665039062 832.200195312 c 2,20,-1
 355.245117188 186.879882812 l 1,21,-1
 355.245117188 181.040039062 l 1,22,-1
 761.125 195.639648438 l 6,23,24
 828.28515625 198.559570312 828.28515625 198.559570312 848.724609375 131.400390625 c 5,25,-1
 848.724609375 129.940429688 l 5,26,27
 866.245117188 73 866.245117188 73 835.584960938 32.1201171875 c 0,28,29
 809.3046875 -5.83984375 809.3046875 -5.83984375 761.125 -5.83984375 c 2,30,-1
 121.64453125 -5.83984375 l 2,31,32
 83.6845703125 -5.83984375 83.6845703125 -5.83984375 58.865234375 20.4404296875 c 256,33,34
 32.5849609375 46.7197265625 32.5849609375 46.7197265625 32.5849609375 84.6796875 c 2,35,-1
 32.5849609375 84.6796875 l 2,0,1
EndSplineSet
EndChar

StartChar: bracketleft
Encoding: 62 91 62
Width: 541
VWidth: 1495
GlyphClass: 2
Flags: W
LayerCount: 2
Back
Fore
SplineSet
141.620117188 1112.51953125 m 2,0,1
 143.080078125 1138.79980469 143.080078125 1138.79980469 160.599609375 1156.3203125 c 0,2,3
 178.120117188 1173.83984375 178.120117188 1173.83984375 202.940429688 1173.83984375 c 2,4,-1
 402.959960938 1173.83984375 l 2,5,6
 429.240234375 1173.83984375 429.240234375 1173.83984375 446.759765625 1156.3203125 c 0,7,8
 464.280273438 1138.79980469 464.280273438 1138.79980469 464.280273438 1112.51953125 c 2,9,-1
 464.280273438 1112.51953125 l 2,10,11
 464.280273438 1087.70019531 464.280273438 1087.70019531 446.759765625 1068.71972656 c 0,12,13
 429.240234375 1051.20019531 429.240234375 1051.20019531 402.959960938 1051.20019531 c 2,14,-1
 375.219726562 1051.20019531 l 2,15,16
 350.400390625 1051.20019531 350.400390625 1051.20019531 332.879882812 1033.6796875 c 0,17,18
 315.360351562 1016.16015625 315.360351562 1016.16015625 313.900390625 989.879882812 c 2,19,-1
 313.900390625 -35.0400390625 l 2,20,21
 315.360351562 -61.3203125 315.360351562 -61.3203125 332.879882812 -78.83984375 c 0,22,23
 350.400390625 -96.3603515625 350.400390625 -96.3603515625 375.219726562 -96.3603515625 c 2,24,-1
 402.959960938 -96.3603515625 l 2,25,26
 429.240234375 -96.3603515625 429.240234375 -96.3603515625 446.759765625 -113.879882812 c 0,27,28
 464.280273438 -131.400390625 464.280273438 -131.400390625 464.280273438 -157.6796875 c 2,29,-1
 464.280273438 -157.6796875 l 2,30,31
 464.280273438 -183.959960938 464.280273438 -183.959960938 446.759765625 -201.48046875 c 0,32,33
 429.240234375 -219 429.240234375 -219 402.959960938 -219 c 2,34,-1
 202.940429688 -219 l 2,35,36
 178.120117188 -219 178.120117188 -219 160.599609375 -201.48046875 c 0,37,38
 143.080078125 -183.959960938 143.080078125 -183.959960938 141.620117188 -157.6796875 c 2,39,-1
 141.620117188 1112.51953125 l 2,0,1
EndSplineSet
EndChar

StartChar: backslash
Encoding: 63 92 63
Width: 455
VWidth: 1495
GlyphClass: 2
Flags: W
LayerCount: 2
Back
Fore
SplineSet
461.360351562 55.48046875 m 2,0,1
 473.040039062 17.51953125 473.040039062 17.51953125 451.139648438 -11.6796875 c 256,2,3
 429.240234375 -40.8798828125 429.240234375 -40.8798828125 391.280273438 -40.8798828125 c 2,4,-1
 388.360351562 -40.8798828125 l 2,5,6
 332.879882812 -40.8798828125 332.879882812 -40.8798828125 316.8203125 11.6796875 c 2,7,-1
 -5.83984375 1003.01953125 l 2,8,9
 -17.51953125 1039.51953125 -17.51953125 1039.51953125 4.3798828125 1071.63964844 c 0,10,11
 27.740234375 1100.83984375 27.740234375 1100.83984375 65.7001953125 1100.83984375 c 2,12,-1
 67.16015625 1100.83984375 l 2,13,14
 122.639648438 1100.83984375 122.639648438 1100.83984375 138.700195312 1048.28027344 c 2,15,-1
 461.360351562 55.48046875 l 2,0,1
EndSplineSet
EndChar

StartChar: bracketright
Encoding: 64 93 64
Width: 541
VWidth: 1495
GlyphClass: 2
Flags: W
LayerCount: 2
Back
Fore
SplineSet
417.559570312 -157.6796875 m 2,0,1
 417.559570312 -183.959960938 417.559570312 -183.959960938 400.040039062 -201.48046875 c 0,2,3
 382.51953125 -219 382.51953125 -219 356.240234375 -219 c 2,4,-1
 157.6796875 -219 l 2,5,6
 131.400390625 -219 131.400390625 -219 113.879882812 -201.48046875 c 0,7,8
 96.3603515625 -183.959960938 96.3603515625 -183.959960938 96.3603515625 -157.6796875 c 2,9,-1
 96.3603515625 -157.6796875 l 2,10,11
 96.3603515625 -131.400390625 96.3603515625 -131.400390625 113.879882812 -113.879882812 c 0,12,13
 131.400390625 -96.3603515625 131.400390625 -96.3603515625 157.6796875 -96.3603515625 c 2,14,-1
 183.959960938 -96.3603515625 l 2,15,16
 210.240234375 -96.3603515625 210.240234375 -96.3603515625 227.759765625 -78.83984375 c 0,17,18
 245.280273438 -61.3203125 245.280273438 -61.3203125 245.280273438 -35.0400390625 c 2,19,-1
 245.280273438 989.879882812 l 2,20,21
 245.280273438 1016.16015625 245.280273438 1016.16015625 227.759765625 1033.6796875 c 0,22,23
 210.240234375 1051.20019531 210.240234375 1051.20019531 183.959960938 1051.20019531 c 2,24,-1
 157.6796875 1051.20019531 l 2,25,26
 131.400390625 1051.20019531 131.400390625 1051.20019531 113.879882812 1068.71972656 c 0,27,28
 96.3603515625 1086.24023438 96.3603515625 1086.24023438 96.3603515625 1112.51953125 c 2,29,-1
 96.3603515625 1112.51953125 l 2,30,31
 96.3603515625 1138.79980469 96.3603515625 1138.79980469 113.879882812 1156.3203125 c 0,32,33
 131.400390625 1173.83984375 131.400390625 1173.83984375 157.6796875 1173.83984375 c 2,34,-1
 356.240234375 1173.83984375 l 2,35,36
 382.51953125 1173.83984375 382.51953125 1173.83984375 400.040039062 1156.3203125 c 0,37,38
 417.559570312 1138.79980469 417.559570312 1138.79980469 417.559570312 1112.51953125 c 2,39,-1
 417.559570312 -157.6796875 l 2,0,1
EndSplineSet
EndChar

StartChar: asciicircum
Encoding: 65 94 65
Width: 1495
VWidth: 1495
GlyphClass: 2
Flags: W
LayerCount: 2
Back
Fore
SplineSet
848.963867188 966.51953125 m 2,0,1
 818.905273438 1010.3203125 818.905273438 1010.3203125 746.764648438 1010.3203125 c 128,-1,2
 674.623046875 1010.3203125 674.623046875 1010.3203125 644.564453125 966.51953125 c 2,3,-1
 440.1640625 668.6796875 l 2,4,5
 422.64453125 642.400390625 422.64453125 642.400390625 460.604492188 617.580078125 c 128,-1,6
 498.564453125 592.759765625 498.564453125 592.759765625 542.364257812 592.759765625 c 0,7,8
 595.69921875 592.759765625 595.69921875 592.759765625 615.364257812 624.879882812 c 2,9,-1
 746.764648438 839.5 l 5,10,-1
 876.704101562 624.879882812 l 2,11,12
 896.4140625 592.759765625 896.4140625 592.759765625 948.244140625 592.759765625 c 2,13,-1
 952.624023438 592.759765625 l 2,14,15
 1016.86425781 592.759765625 1016.86425781 592.759765625 1043.87402344 617.580078125 c 0,16,17
 1071.20019531 642.690429688 1071.20019531 642.690429688 1053.36425781 668.6796875 c 2,18,-1
 848.963867188 966.51953125 l 2,0,1
EndSplineSet
EndChar

StartChar: underscore
Encoding: 66 95 66
Width: 747
VWidth: 1495
GlyphClass: 2
Flags: W
LayerCount: 2
Back
Fore
SplineSet
706.639648438 -245.280273438 m 2,0,1
 706.639648438 -271.559570312 706.639648438 -271.559570312 687.66015625 -289.080078125 c 256,2,3
 668.6796875 -306.599609375 668.6796875 -306.599609375 640.940429688 -306.599609375 c 2,4,-1
 61.3203125 -306.599609375 l 2,5,6
 35.0400390625 -306.599609375 35.0400390625 -306.599609375 14.599609375 -289.080078125 c 0,7,8
 -2.919921875 -271.559570312 -2.919921875 -271.559570312 -2.919921875 -245.280273438 c 2,9,-1
 -2.919921875 -245.280273438 l 2,10,11
 -2.919921875 -219 -2.919921875 -219 14.599609375 -200.01953125 c 0,12,13
 35.0400390625 -181.040039062 35.0400390625 -181.040039062 61.3203125 -181.040039062 c 2,14,-1
 640.940429688 -181.040039062 l 2,15,16
 668.6796875 -181.040039062 668.6796875 -181.040039062 687.66015625 -200.01953125 c 256,17,18
 706.639648438 -219 706.639648438 -219 706.639648438 -245.280273438 c 2,19,-1
 706.639648438 -245.280273438 l 2,0,1
EndSplineSet
EndChar

StartChar: grave
Encoding: 67 96 67
Width: 747
VWidth: 1495
GlyphClass: 2
Flags: W
LayerCount: 2
Back
Fore
SplineSet
538.90234375 797.16015625 m 6,0,1
 544.7421875 788.400390625 544.7421875 788.400390625 541.822265625 779.639648438 c 4,2,3
 538.90234375 770.879882812 538.90234375 770.879882812 528.682617188 770.879882812 c 6,4,-1
 381.22265625 770.879882812 l 2,5,6
 372.462890625 770.879882812 372.462890625 770.879882812 363.702148438 776.719726562 c 2,7,-1
 220.622070312 887.6796875 l 2,8,9
 200.182617188 902.280273438 200.182617188 902.280273438 206.022460938 924.1796875 c 0,10,11
 208.942382812 943.16015625 208.942382812 943.16015625 232.302734375 943.16015625 c 2,12,-1
 389.982421875 943.16015625 l 6,13,14
 410.422851562 943.16015625 410.422851562 943.16015625 425.022460938 928.559570312 c 6,15,-1
 538.90234375 797.16015625 l 6,0,1
EndSplineSet
EndChar

StartChar: a
Encoding: 68 97 68
Width: 830
VWidth: 1495
GlyphClass: 2
Flags: W
LayerCount: 2
Back
Fore
SplineSet
251.120117188 378.139648438 m 2,0,1
 251.120117188 475.959960938 251.120117188 475.959960938 270.099609375 519.759765625 c 0,2,3
 292 566.48046875 292 566.48046875 327.040039062 582.540039062 c 0,4,5
 400.040039062 617.580078125 400.040039062 617.580078125 473.040039062 589.83984375 c 0,6,7
 537.280273438 565.01953125 537.280273438 565.01953125 551.879882812 519.759765625 c 1,8,-1
 551.879882812 249.66015625 l 6,9,10
 551.879882812 160.599609375 551.879882812 160.599609375 475.959960938 134.3203125 c 4,11,12
 438 122.639648438 438 122.639648438 401.5 127.01953125 c 5,13,14
 338.719726562 125.559570312 338.719726562 125.559570312 294.919921875 183.959960938 c 4,15,16
 251.120117188 242.360351562 251.120117188 242.360351562 251.120117188 325.580078125 c 6,17,-1
 251.120117188 378.139648438 l 2,0,1
134.3203125 102.200195312 m 256,19,20
 236.51953125 -5.83984375 236.51953125 -5.83984375 382.51953125 -5.83984375 c 0,21,22
 423.400390625 -5.83984375 423.400390625 -5.83984375 502.240234375 45.259765625 c 0,23,24
 521.219726562 58.400390625 521.219726562 58.400390625 543.120117188 55.48046875 c 0,25,26
 565.01953125 52.5595703125 565.01953125 52.5595703125 581.080078125 35.0400390625 c 0,27,28
 619.040039062 -5.83984375 619.040039062 -5.83984375 639.48046875 -5.83984375 c 2,29,-1
 735.83984375 -5.83984375 l 2,30,31
 754.8203125 -5.83984375 754.8203125 -5.83984375 769.419921875 8.759765625 c 0,32,33
 782.559570312 20.4404296875 782.559570312 20.4404296875 782.559570312 40.8798828125 c 2,34,-1
 782.559570312 624.879882812 l 2,35,36
 782.559570312 659.919921875 782.559570312 659.919921875 757.740234375 686.200195312 c 0,37,38
 732.919921875 709.559570312 732.919921875 709.559570312 697.879882812 709.559570312 c 2,39,-1
 636.559570312 709.559570312 l 2,40,41
 601.51953125 709.559570312 601.51953125 709.559570312 578.16015625 686.200195312 c 256,42,43
 551.879882812 659.919921875 551.879882812 659.919921875 551.879882812 624.879882812 c 2,44,-1
 551.879882812 624.879882812 l 1,45,46
 505.16015625 732.919921875 505.16015625 732.919921875 382.51953125 732.919921875 c 0,47,48
 236.51953125 732.919921875 236.51953125 732.919921875 134.3203125 624.879882812 c 256,49,50
 32.1201171875 516.83984375 32.1201171875 516.83984375 32.1201171875 363.540039062 c 0,51,18
 32.1201171875 210.240234375 32.1201171875 210.240234375 134.3203125 102.200195312 c 256,19,20
EndSplineSet
EndChar

StartChar: b
Encoding: 69 98 69
Width: 846
VWidth: 1495
GlyphClass: 2
Flags: W
LayerCount: 2
Back
Fore
SplineSet
579.620117188 318.280273438 m 6,0,1
 578.16015625 236.51953125 578.16015625 236.51953125 534.360351562 178.120117188 c 4,2,3
 490.559570312 119.719726562 490.559570312 119.719726562 429.240234375 119.719726562 c 5,4,5
 391.280273438 113.879882812 391.280273438 113.879882812 353.3203125 125.559570312 c 4,6,7
 277.400390625 151.83984375 277.400390625 151.83984375 277.400390625 242.360351562 c 6,8,-1
 277.400390625 519.759765625 l 1,9,10
 294.919921875 565.01953125 294.919921875 565.01953125 357.700195312 589.83984375 c 0,11,12
 430.700195312 619.040039062 430.700195312 619.040039062 503.700195312 582.540039062 c 0,13,14
 537.280273438 566.48046875 537.280273438 566.48046875 559.1796875 519.759765625 c 0,15,16
 579.620117188 475.959960938 579.620117188 475.959960938 579.620117188 421.940429688 c 2,17,-1
 579.620117188 318.280273438 l 6,0,1
277.400390625 686.200195312 m 1,19,-1
 277.400390625 927.099609375 l 2,20,21
 277.400390625 973.8203125 277.400390625 973.8203125 242.360351562 1007.40039062 c 0,22,23
 210.240234375 1040.98046875 210.240234375 1040.98046875 163.51953125 1040.98046875 c 2,24,-1
 160.599609375 1040.98046875 l 2,25,26
 113.879882812 1040.98046875 113.879882812 1040.98046875 80.2998046875 1007.40039062 c 0,27,28
 46.7197265625 973.8203125 46.7197265625 973.8203125 46.7197265625 927.099609375 c 2,29,-1
 46.7197265625 40.8798828125 l 2,30,31
 46.7197265625 20.4404296875 46.7197265625 20.4404296875 61.3203125 8.759765625 c 0,32,33
 74.4599609375 -5.83984375 74.4599609375 -5.83984375 93.4404296875 -5.83984375 c 2,34,-1
 230.6796875 -5.83984375 l 2,35,36
 248.200195312 -5.83984375 248.200195312 -5.83984375 262.799804688 8.759765625 c 0,37,38
 277.400390625 23.3603515625 277.400390625 23.3603515625 277.400390625 40.8798828125 c 2,39,-1
 277.400390625 40.8798828125 l 1,40,41
 356.240234375 -5.83984375 356.240234375 -5.83984375 446.759765625 -5.83984375 c 0,42,43
 592.759765625 -5.83984375 592.759765625 -5.83984375 694.959960938 102.200195312 c 256,44,45
 797.16015625 210.240234375 797.16015625 210.240234375 798.620117188 363.540039062 c 0,46,47
 797.16015625 516.83984375 797.16015625 516.83984375 694.959960938 624.879882812 c 256,48,49
 592.759765625 732.919921875 592.759765625 732.919921875 446.759765625 732.919921875 c 0,50,18
 356.240234375 732.919921875 356.240234375 732.919921875 277.400390625 686.200195312 c 1,19,-1
EndSplineSet
EndChar

StartChar: c
Encoding: 70 99 70
Width: 661
VWidth: 1495
GlyphClass: 2
Flags: W
LayerCount: 2
Back
Fore
SplineSet
613.200195312 84.6796875 m 2,0,1
 613.200195312 122.639648438 613.200195312 122.639648438 584 146 c 256,2,3
 554.799804688 172.280273438 554.799804688 172.280273438 518.299804688 166.440429688 c 0,4,5
 481.799804688 160.599609375 481.799804688 160.599609375 451.139648438 163.51953125 c 1,6,7
 376.6796875 163.51953125 376.6796875 163.51953125 321.200195312 221.919921875 c 0,8,9
 265.719726562 280.3203125 265.719726562 280.3203125 265.719726562 362.080078125 c 2,10,-1
 265.719726562 370.83984375 l 2,11,12
 265.719726562 424.860351562 265.719726562 424.860351562 290.540039062 468.66015625 c 0,13,14
 316.8203125 515.379882812 316.8203125 515.379882812 359.16015625 531.440429688 c 0,15,16
 435.080078125 560.639648438 435.080078125 560.639648438 513.919921875 546.040039062 c 0,17,18
 551.879882812 537.280273438 551.879882812 537.280273438 584 560.639648438 c 0,19,20
 613.200195312 584 613.200195312 584 613.200195312 624.879882812 c 2,21,-1
 613.200195312 630.719726562 l 2,22,23
 613.200195312 657 613.200195312 657 598.599609375 680.360351562 c 0,24,25
 581.080078125 700.799804688 581.080078125 700.799804688 554.799804688 709.559570312 c 0,26,27
 499.3203125 724.16015625 499.3203125 724.16015625 440.919921875 725.620117188 c 0,28,29
 274.48046875 725.620117188 274.48046875 725.620117188 157.6796875 617.580078125 c 0,30,31
 37.9599609375 509.540039062 37.9599609375 509.540039062 37.9599609375 356.240234375 c 0,32,33
 37.9599609375 204.400390625 37.9599609375 204.400390625 157.6796875 96.3603515625 c 0,34,35
 274.48046875 -11.6796875 274.48046875 -11.6796875 440.919921875 -11.6796875 c 0,36,37
 499.3203125 -11.6796875 499.3203125 -11.6796875 554.799804688 2.919921875 c 0,38,39
 581.080078125 8.759765625 581.080078125 8.759765625 598.599609375 32.1201171875 c 0,40,41
 613.200195312 54.01953125 613.200195312 54.01953125 613.200195312 81.759765625 c 2,42,-1
 613.200195312 84.6796875 l 2,0,1
EndSplineSet
EndChar

StartChar: d
Encoding: 71 100 71
Width: 849
VWidth: 1495
GlyphClass: 2
Flags: W
LayerCount: 2
Back
Fore
SplineSet
267.84375 421.940429688 m 2,0,1
 267.84375 475.959960938 267.84375 475.959960938 288.284179688 519.759765625 c 0,2,3
 308.723632812 566.48046875 308.723632812 566.48046875 343.763671875 582.540039062 c 0,4,5
 416.763671875 617.580078125 416.763671875 617.580078125 489.763671875 589.83984375 c 0,6,7
 554.00390625 565.01953125 554.00390625 565.01953125 570.063476562 519.759765625 c 1,8,-1
 570.063476562 249.66015625 l 6,9,10
 568.603515625 160.599609375 568.603515625 160.599609375 492.68359375 134.3203125 c 4,11,12
 454.723632812 122.639648438 454.723632812 122.639648438 419.68359375 127.01953125 c 5,13,14
 355.443359375 125.559570312 355.443359375 125.559570312 311.643554688 183.959960938 c 4,15,16
 267.84375 242.360351562 267.84375 242.360351562 267.84375 325.580078125 c 6,17,-1
 267.84375 421.940429688 l 2,0,1
399.244140625 732.919921875 m 0,18,19
 253.244140625 732.919921875 253.244140625 732.919921875 151.043945312 624.879882812 c 256,20,21
 48.84375 516.83984375 48.84375 516.83984375 48.84375 363.540039062 c 0,22,23
 48.84375 210.240234375 48.84375 210.240234375 151.043945312 102.200195312 c 256,24,25
 253.244140625 -5.83984375 253.244140625 -5.83984375 399.244140625 -5.83984375 c 0,26,27
 489.763671875 -5.83984375 489.763671875 -5.83984375 570.063476562 40.8798828125 c 1,28,-1
 570.063476562 40.8798828125 l 2,29,30
 568.603515625 23.3603515625 568.603515625 23.3603515625 583.204101562 8.759765625 c 0,31,32
 596.34375 -5.83984375 596.34375 -5.83984375 616.784179688 -5.83984375 c 2,33,-1
 754.0234375 -5.83984375 l 2,34,35
 773.00390625 -5.83984375 773.00390625 -5.83984375 787.603515625 8.759765625 c 0,36,37
 802.204101562 23.3603515625 802.204101562 23.3603515625 800.744140625 40.8798828125 c 2,38,-1
 800.744140625 927.099609375 l 2,39,40
 800.744140625 973.8203125 800.744140625 973.8203125 767.1640625 1007.40039062 c 256,41,42
 733.583984375 1040.98046875 733.583984375 1040.98046875 686.86328125 1040.98046875 c 2,43,-1
 683.943359375 1040.98046875 l 2,44,45
 637.223632812 1040.98046875 637.223632812 1040.98046875 603.643554688 1007.40039062 c 256,46,47
 570.063476562 973.8203125 570.063476562 973.8203125 570.063476562 927.099609375 c 2,48,-1
 570.063476562 686.200195312 l 1,49,50
 489.763671875 732.919921875 489.763671875 732.919921875 399.244140625 732.919921875 c 0,18,19
EndSplineSet
EndChar

StartChar: e
Encoding: 72 101 72
Width: 887
VWidth: 1495
GlyphClass: 2
Flags: W
LayerCount: 2
Back
Fore
SplineSet
407.33984375 597.139648438 m 256,0,1
 458.440429688 597.139648438 458.440429688 597.139648438 519.759765625 565.75 c 128,-1,2
 581.080078125 534.360351562 581.080078125 534.360351562 607.360351562 438 c 1,3,-1
 256.959960938 438 l 1,4,5
 303.6796875 548.959960938 303.6796875 548.959960938 329.959960938 563.559570312 c 0,6,7
 388.360351562 598.599609375 388.360351562 598.599609375 407.33984375 597.139648438 c 256,0,1
416.099609375 731.459960938 m 4,8,9
 264.259765625 734.379882812 264.259765625 734.379882812 156.950195312 625.610351562 c 132,-1,10
 49.6396484375 516.83984375 49.6396484375 516.83984375 49.6396484375 363.540039062 c 128,-1,11
 49.6396484375 210.240234375 49.6396484375 210.240234375 163.51953125 100.740234375 c 128,-1,12
 277.400390625 -8.759765625 277.400390625 -8.759765625 392.740234375 -4.3798828125 c 152,-1,13
 508.080078125 0 508.080078125 0 624.879882812 17.51953125 c 0,14,15
 689.120117188 27.740234375 689.120117188 27.740234375 700.799804688 75.919921875 c 1,16,-1
 702.259765625 77.3798828125 l 1,17,18
 711.01953125 115.33984375 711.01953125 115.33984375 685.469726562 149.650390625 c 128,-1,19
 659.919921875 183.959960938 659.919921875 183.959960938 619.040039062 181.040039062 c 2,20,21
 414.639648438 166.440429688 l 2,22,23
 391.280273438 164.98046875 391.280273438 164.98046875 337.259765625 201.48046875 c 0,24,25
 283.240234375 236.51953125 283.240234375 236.51953125 262.799804688 294.919921875 c 1,26,-1
 708.099609375 294.919921875 l 2,27,28
 772.33984375 294.919921875 772.33984375 294.919921875 772.33984375 362.080078125 c 2,29,-1
 772.33984375 363.540039062 l 2,30,31
 772.33984375 524.139648438 772.33984375 524.139648438 670.139648438 626.33984375 c 128,-1,32
 567.940429688 728.540039062 567.940429688 728.540039062 416.099609375 731.459960938 c 4,8,9
EndSplineSet
EndChar

StartChar: f
Encoding: 73 102 73
Width: 529
VWidth: 1495
GlyphClass: 2
Flags: W
LayerCount: 2
Back
Fore
SplineSet
524.041992188 963.599609375 m 1,0,1
 535.72265625 1010.3203125 535.72265625 1010.3203125 503.602539062 1043.90039062 c 256,2,3
 474.40234375 1077.48046875 474.40234375 1077.48046875 433.522460938 1077.48046875 c 0,4,5
 261.2421875 1074.55957031 261.2421875 1074.55957031 179.482421875 972.360351562 c 0,6,7
 106.482421875 881.83984375 106.482421875 881.83984375 106.482421875 803 c 2,8,-1
 106.482421875 696.419921875 l 1,9,-1
 84.58203125 696.419921875 l 2,10,11
 51.001953125 694.959960938 51.001953125 694.959960938 27.642578125 671.599609375 c 256,12,13
 4.2822265625 648.240234375 4.2822265625 648.240234375 2.822265625 614.66015625 c 2,14,-1
 2.822265625 613.200195312 l 2,15,16
 4.2822265625 578.16015625 4.2822265625 578.16015625 27.642578125 554.799804688 c 0,17,18
 51.001953125 531.440429688 51.001953125 531.440429688 84.58203125 531.440429688 c 2,19,-1
 106.482421875 531.440429688 l 1,20,-1
 106.482421875 96.3603515625 l 2,21,22
 106.482421875 52.5595703125 106.482421875 52.5595703125 135.682617188 21.900390625 c 0,23,24
 167.802734375 -8.759765625 167.802734375 -8.759765625 211.602539062 -8.759765625 c 2,25,-1
 214.522460938 -8.759765625 l 2,26,27
 258.322265625 -8.759765625 258.322265625 -8.759765625 288.982421875 21.900390625 c 0,28,29
 319.642578125 52.5595703125 319.642578125 52.5595703125 319.642578125 96.3603515625 c 2,30,-1
 319.642578125 531.440429688 l 1,31,-1
 382.421875 531.440429688 l 2,32,33
 417.461914062 531.440429688 417.461914062 531.440429688 440.822265625 554.799804688 c 0,34,35
 464.182617188 578.16015625 464.182617188 578.16015625 464.182617188 613.200195312 c 2,36,-1
 464.182617188 614.66015625 l 2,37,38
 464.182617188 648.240234375 464.182617188 648.240234375 440.822265625 671.599609375 c 0,39,40
 417.461914062 694.959960938 417.461914062 694.959960938 382.421875 696.419921875 c 2,41,-1
 319.642578125 696.419921875 l 1,42,-1
 319.642578125 762.120117188 l 2,43,44
 319.642578125 884.759765625 319.642578125 884.759765625 456.8828125 893.51953125 c 0,45,46
 509.442382812 896.440429688 509.442382812 896.440429688 524.041992188 960.6796875 c 1,47,-1
 524.041992188 963.599609375 l 1,0,1
EndSplineSet
EndChar

StartChar: g
Encoding: 74 103 74
Width: 824
VWidth: 1495
GlyphClass: 2
Flags: W
LayerCount: 2
Back
Fore
SplineSet
547.5 245.280273438 m 6,0,1
 546.040039062 154.759765625 546.040039062 154.759765625 470.120117188 128.48046875 c 4,2,3
 432.16015625 116.799804688 432.16015625 116.799804688 397.120117188 122.639648438 c 5,4,5
 334.33984375 122.639648438 334.33984375 122.639648438 289.080078125 181.040039062 c 4,6,7
 245.280273438 239.440429688 245.280273438 239.440429688 245.280273438 321.200195312 c 6,8,-1
 245.280273438 408.799804688 l 2,9,10
 245.280273438 464.280273438 245.280273438 464.280273438 265.719726562 508.080078125 c 0,11,12
 286.16015625 553.33984375 286.16015625 553.33984375 321.200195312 570.860351562 c 0,13,14
 394.200195312 607.360351562 394.200195312 607.360351562 467.200195312 578.16015625 c 0,15,16
 531.440429688 554.799804688 531.440429688 554.799804688 547.5 508.080078125 c 1,17,-1
 547.5 245.280273438 l 6,0,1
586.919921875 727.080078125 m 2,18,19
 570.860351562 727.080078125 570.860351562 727.080078125 559.1796875 715.400390625 c 0,20,21
 547.5 703.719726562 547.5 703.719726562 547.5 689.120117188 c 1,22,-1
 547.5 689.120117188 l 1,23,24
 467.200195312 735.83984375 467.200195312 735.83984375 376.6796875 735.83984375 c 0,25,26
 230.6796875 735.83984375 230.6796875 735.83984375 128.48046875 627.799804688 c 0,27,28
 26.2802734375 519.759765625 26.2802734375 519.759765625 26.2802734375 366.459960938 c 0,29,30
 26.2802734375 213.16015625 26.2802734375 213.16015625 128.48046875 105.120117188 c 256,31,32
 230.6796875 -2.919921875 230.6796875 -2.919921875 376.6796875 -2.919921875 c 0,33,34
 467.200195312 -2.919921875 467.200195312 -2.919921875 546.040039062 43.7998046875 c 1,35,36
 551.879882812 -110.959960938 551.879882812 -110.959960938 408.799804688 -110.959960938 c 0,37,38
 251.120117188 -110.959960938 251.120117188 -110.959960938 230.6796875 -109.5 c 0,39,40
 169.360351562 -109.5 169.360351562 -109.5 148.919921875 -166.440429688 c 1,41,-1
 147.459960938 -167.900390625 l 1,42,43
 132.860351562 -208.780273438 132.860351562 -208.780273438 157.6796875 -245.280273438 c 0,44,45
 183.959960938 -281.780273438 183.959960938 -281.780273438 227.759765625 -281.780273438 c 0,46,47
 321.200195312 -283.240234375 321.200195312 -283.240234375 388.360351562 -283.240234375 c 0,48,49
 400.040039062 -283.240234375 400.040039062 -283.240234375 408.799804688 -281.780273438 c 0,50,51
 420.48046875 -283.240234375 420.48046875 -283.240234375 429.240234375 -283.240234375 c 0,52,53
 575.240234375 -283.240234375 575.240234375 -283.240234375 668.6796875 -205.860351562 c 0,54,55
 773.799804688 -119.719726562 773.799804688 -119.719726562 776.719726562 37.9599609375 c 1,56,-1
 778.1796875 37.9599609375 l 1,57,-1
 778.1796875 629.259765625 l 2,58,59
 778.1796875 668.6796875 778.1796875 668.6796875 748.98046875 697.879882812 c 0,60,61
 719.780273438 727.080078125 719.780273438 727.080078125 680.360351562 727.080078125 c 2,62,-1
 586.919921875 727.080078125 l 2,18,19
EndSplineSet
EndChar

StartChar: h
Encoding: 75 104 75
Width: 843
VWidth: 1495
GlyphClass: 2
Flags: W
LayerCount: 2
Back
Fore
SplineSet
794.240234375 370.83984375 m 2,0,1
 794.240234375 541.66015625 794.240234375 541.66015625 709.559570312 649.700195312 c 0,2,3
 613.200195312 773.799804688 613.200195312 773.799804688 443.83984375 738.759765625 c 0,4,5
 411.719726562 732.919921875 411.719726562 732.919921875 274.48046875 651.16015625 c 1,6,-1
 271.559570312 934.400390625 l 2,7,8
 271.559570312 981.120117188 271.559570312 981.120117188 239.440429688 1013.24023438 c 0,9,10
 205.860351562 1045.36035156 205.860351562 1045.36035156 159.139648438 1045.36035156 c 2,11,-1
 157.6796875 1045.36035156 l 2,12,13
 110.959960938 1045.36035156 110.959960938 1045.36035156 75.919921875 1013.24023438 c 0,14,15
 43.7998046875 979.66015625 43.7998046875 979.66015625 43.7998046875 932.940429688 c 2,16,-1
 43.7998046875 112.419921875 l 2,17,18
 43.7998046875 64.240234375 43.7998046875 64.240234375 75.919921875 32.1201171875 c 256,19,20
 108.040039062 0 108.040039062 0 156.219726562 0 c 2,21,-1
 157.6796875 0 l 2,22,23
 204.400390625 0 204.400390625 0 237.98046875 32.1201171875 c 256,24,25
 271.559570312 64.240234375 271.559570312 64.240234375 271.559570312 112.419921875 c 2,26,-1
 271.559570312 451.139648438 l 6,27,28
 273.01953125 452.599609375 273.01953125 452.599609375 271.559570312 452.599609375 c 5,29,30
 271.559570312 464.280273438 271.559570312 464.280273438 274.48046875 470.120117188 c 4,31,32
 283.240234375 519.759765625 283.240234375 519.759765625 350.400390625 560.639648438 c 4,33,34
 427.780273438 607.360351562 427.780273438 607.360351562 500.780273438 572.3203125 c 4,35,36
 569.400390625 538.740234375 569.400390625 538.740234375 569.400390625 416.099609375 c 6,37,-1
 569.400390625 110.959960938 l 2,38,39
 569.400390625 64.240234375 569.400390625 64.240234375 601.51953125 32.1201171875 c 256,40,41
 633.639648438 0 633.639648438 0 680.360351562 0 c 2,42,-1
 683.280273438 0 l 2,43,44
 730 0 730 0 762.120117188 32.1201171875 c 256,45,46
 795.700195312 64.240234375 795.700195312 64.240234375 795.700195312 110.959960938 c 2,47,-1
 794.240234375 370.83984375 l 2,0,1
EndSplineSet
EndChar

StartChar: i
Encoding: 76 105 76
Width: 327
VWidth: 1495
GlyphClass: 2
Flags: W
LayerCount: 2
Back
Fore
SplineSet
166.440429688 -5.83984375 m 2,0,1
 116.799804688 -5.83984375 116.799804688 -5.83984375 81.759765625 29.2001953125 c 0,2,3
 46.7197265625 64.240234375 46.7197265625 64.240234375 46.7197265625 113.879882812 c 2,4,-1
 46.7197265625 595.6796875 l 2,5,6
 46.7197265625 645.3203125 46.7197265625 645.3203125 81.759765625 680.360351562 c 0,7,8
 116.799804688 715.400390625 116.799804688 715.400390625 166.440429688 715.400390625 c 2,9,-1
 167.900390625 715.400390625 l 2,10,11
 216.080078125 715.400390625 216.080078125 715.400390625 251.120117188 680.360351562 c 256,12,13
 286.16015625 645.3203125 286.16015625 645.3203125 286.16015625 595.6796875 c 2,14,-1
 286.16015625 113.879882812 l 2,15,16
 286.16015625 64.240234375 286.16015625 64.240234375 251.120117188 29.2001953125 c 0,17,18
 216.080078125 -5.83984375 216.080078125 -5.83984375 167.900390625 -5.83984375 c 2,19,-1
 166.440429688 -5.83984375 l 2,0,1
251.120117188 817.599609375 m 0,21,22
 216.080078125 782.559570312 216.080078125 782.559570312 163.51953125 781.099609375 c 256,23,24
 112.419921875 782.559570312 112.419921875 782.559570312 75.919921875 817.599609375 c 0,25,26
 40.8798828125 855.559570312 40.8798828125 855.559570312 40.8798828125 905.200195312 c 256,27,28
 40.8798828125 956.299804688 40.8798828125 956.299804688 75.919921875 991.33984375 c 0,29,30
 112.419921875 1027.83984375 112.419921875 1027.83984375 163.51953125 1027.83984375 c 256,31,32
 216.080078125 1027.83984375 216.080078125 1027.83984375 251.120117188 991.33984375 c 0,33,34
 286.16015625 957.759765625 286.16015625 957.759765625 286.16015625 905.200195312 c 256,35,20
 286.16015625 855.559570312 286.16015625 855.559570312 251.120117188 817.599609375 c 0,21,22
EndSplineSet
EndChar

StartChar: j
Encoding: 77 106 77
Width: 414
VWidth: 1495
GlyphClass: 2
Flags: W
LayerCount: 2
Back
Fore
SplineSet
329.959960938 67.16015625 m 2,0,1
 329.959960938 -102.200195312 329.959960938 -102.200195312 245.280273438 -210.240234375 c 0,2,3
 148.919921875 -332.879882812 148.919921875 -332.879882812 -20.4404296875 -300.759765625 c 0,4,5
 -35.0400390625 -297.83984375 -35.0400390625 -297.83984375 -56.9404296875 -287.620117188 c 0,6,7
 -108.040039062 -262.799804688 -108.040039062 -262.799804688 -108.040039062 -207.3203125 c 2,8,-1
 -108.040039062 -207.3203125 l 2,9,10
 -108.040039062 -172.280273438 -108.040039062 -172.280273438 -84.6796875 -146 c 0,11,12
 -61.3203125 -119.719726562 -61.3203125 -119.719726562 -24.8203125 -119.719726562 c 0,13,14
 5.83984375 -119.719726562 5.83984375 -119.719726562 35.0400390625 -105.120117188 c 0,15,16
 105.120117188 -71.5400390625 105.120117188 -71.5400390625 105.120117188 51.099609375 c 2,17,-1
 105.120117188 592.759765625 l 2,18,19
 105.120117188 639.48046875 105.120117188 639.48046875 137.240234375 671.599609375 c 256,20,21
 169.360351562 703.719726562 169.360351562 703.719726562 216.080078125 703.719726562 c 2,22,-1
 219 703.719726562 l 2,23,24
 265.719726562 703.719726562 265.719726562 703.719726562 297.83984375 671.599609375 c 256,25,26
 329.959960938 639.48046875 329.959960938 639.48046875 329.959960938 592.759765625 c 2,27,-1
 329.959960938 67.16015625 l 2,0,1
312.440429688 811.759765625 m 0,29,30
 277.400390625 773.799804688 277.400390625 773.799804688 224.83984375 773.799804688 c 256,31,32
 172.280273438 773.799804688 172.280273438 773.799804688 137.240234375 811.759765625 c 0,33,34
 102.200195312 846.799804688 102.200195312 846.799804688 102.200195312 897.900390625 c 256,35,36
 102.200195312 949 102.200195312 949 137.240234375 985.5 c 0,37,38
 172.280273438 1022 172.280273438 1022 224.83984375 1022 c 256,39,40
 277.400390625 1022 277.400390625 1022 312.440429688 985.5 c 0,41,42
 347.48046875 949 347.48046875 949 347.48046875 897.900390625 c 256,43,28
 347.48046875 846.799804688 347.48046875 846.799804688 312.440429688 811.759765625 c 0,29,30
EndSplineSet
EndChar

StartChar: k
Encoding: 78 107 78
Width: 765
VWidth: 1495
GlyphClass: 2
Flags: W
LayerCount: 2
Back
Fore
SplineSet
484.440429688 478.879882812 m 1,0,-1
 674.240234375 697.879882812 l 2,1,2
 712.200195312 741.6796875 712.200195312 741.6796875 687.380859375 795.700195312 c 0,3,4
 662.560546875 848.259765625 662.560546875 848.259765625 604.16015625 848.259765625 c 2,5,-1
 602.700195312 848.259765625 l 2,6,7
 563.280273438 849.719726562 563.280273438 849.719726562 534.080078125 817.599609375 c 2,8,-1
 329.680664062 604.440429688 l 2,9,10
 318.000976562 592.759765625 318.000976562 592.759765625 306.3203125 589.83984375 c 0,11,12
 291.720703125 585.459960938 291.720703125 585.459960938 291.720703125 598.599609375 c 2,13,-1
 291.720703125 938.780273438 l 2,14,15
 291.720703125 986.959960938 291.720703125 986.959960938 256.680664062 1022 c 0,16,17
 221.640625 1057.04003906 221.640625 1057.04003906 173.4609375 1057.04003906 c 2,18,-1
 172.000976562 1057.04003906 l 2,19,20
 122.360351562 1057.04003906 122.360351562 1057.04003906 87.3203125 1022 c 0,21,22
 52.2802734375 986.959960938 52.2802734375 986.959960938 52.2802734375 938.780273438 c 2,23,-1
 52.2802734375 122.639648438 l 2,24,25
 52.2802734375 73 52.2802734375 73 87.3203125 37.9599609375 c 0,26,27
 122.360351562 2.919921875 122.360351562 2.919921875 172.000976562 2.919921875 c 2,28,-1
 173.4609375 2.919921875 l 2,29,30
 221.640625 2.919921875 221.640625 2.919921875 256.680664062 37.9599609375 c 0,31,32
 291.720703125 73 291.720703125 73 291.720703125 122.639648438 c 2,33,-1
 291.720703125 297.83984375 l 1,34,-1
 323.840820312 327.040039062 l 1,35,-1
 518.020507812 52.5595703125 l 1,36,37
 545.760742188 2.919921875 545.760742188 2.919921875 604.16015625 2.919921875 c 2,38,-1
 607.080078125 2.919921875 l 2,39,40
 669.860351562 2.919921875 669.860351562 2.919921875 699.060546875 59.8603515625 c 0,41,42
 729.720703125 115.33984375 729.720703125 115.33984375 691.760742188 166.440429688 c 1,43,-1
 484.440429688 478.879882812 l 1,0,-1
EndSplineSet
EndChar

StartChar: l
Encoding: 79 108 79
Width: 362
VWidth: 1495
GlyphClass: 2
Flags: W
LayerCount: 2
Back
Fore
SplineSet
303.6796875 113.879882812 m 2,0,1
 303.6796875 64.240234375 303.6796875 64.240234375 268.639648438 29.2001953125 c 0,2,3
 233.599609375 -5.83984375 233.599609375 -5.83984375 183.959960938 -5.83984375 c 2,4,-1
 181.040039062 -5.83984375 l 2,5,6
 131.400390625 -5.83984375 131.400390625 -5.83984375 97.8203125 29.2001953125 c 0,7,8
 62.7802734375 64.240234375 62.7802734375 64.240234375 62.7802734375 113.879882812 c 2,9,-1
 62.7802734375 868.700195312 l 2,10,11
 62.7802734375 918.33984375 62.7802734375 918.33984375 97.8203125 953.379882812 c 0,12,13
 131.400390625 986.959960938 131.400390625 986.959960938 181.040039062 986.959960938 c 2,14,-1
 183.959960938 986.959960938 l 2,15,16
 233.599609375 986.959960938 233.599609375 986.959960938 268.639648438 953.379882812 c 0,17,18
 303.6796875 918.33984375 303.6796875 918.33984375 303.6796875 868.700195312 c 2,19,-1
 303.6796875 113.879882812 l 2,0,1
EndSplineSet
EndChar

StartChar: m
Encoding: 80 109 80
Width: 1286
VWidth: 1495
GlyphClass: 2
Flags: W
LayerCount: 2
Back
Fore
SplineSet
1236.62011719 366.459960938 m 2,0,1
 1236.62011719 537.280273438 1236.62011719 537.280273438 1150.48046875 645.3203125 c 0,2,3
 1051.20019531 767.959960938 1051.20019531 767.959960938 884.759765625 732.919921875 c 0,4,5
 826.360351562 721.240234375 826.360351562 721.240234375 713.940429688 610.280273438 c 1,6,-1
 709.559570312 610.280273438 l 1,7,8
 611.740234375 772.33984375 611.740234375 772.33984375 420.48046875 732.919921875 c 0,9,10
 382.51953125 724.16015625 382.51953125 724.16015625 341.639648438 692.040039062 c 0,11,12
 332.879882812 686.200195312 332.879882812 686.200195312 313.900390625 665.759765625 c 0,13,14
 299.299804688 651.16015625 299.299804688 651.16015625 290.540039062 645.3203125 c 1,15,-1
 290.540039062 645.3203125 l 2,16,17
 289.080078125 674.51953125 289.080078125 674.51953125 268.639648438 697.879882812 c 0,18,19
 248.200195312 718.3203125 248.200195312 718.3203125 219 718.3203125 c 2,20,-1
 134.3203125 718.3203125 l 2,21,22
 103.66015625 718.3203125 103.66015625 718.3203125 81.759765625 697.879882812 c 0,23,24
 61.3203125 677.440429688 61.3203125 677.440429688 61.3203125 645.3203125 c 2,25,-1
 61.3203125 99.2802734375 l 2,26,27
 61.3203125 55.48046875 61.3203125 55.48046875 90.51953125 26.2802734375 c 0,28,29
 122.639648438 -5.83984375 122.639648438 -5.83984375 166.440429688 -5.83984375 c 2,30,-1
 181.040039062 -5.83984375 l 2,31,32
 224.83984375 -5.83984375 224.83984375 -5.83984375 256.959960938 26.2802734375 c 0,33,34
 289.080078125 58.400390625 289.080078125 58.400390625 287.620117188 99.2802734375 c 2,35,-1
 287.620117188 456.98046875 l 6,36,37
 287.620117188 509.540039062 287.620117188 509.540039062 322.66015625 547.5 c 4,38,39
 356.240234375 586.919921875 356.240234375 586.919921875 408.799804688 588.379882812 c 4,40,41
 461.360351562 589.83984375 461.360351562 589.83984375 502.240234375 551.879882812 c 4,42,43
 540.200195312 513.919921875 540.200195312 513.919921875 540.200195312 461.360351562 c 6,44,-1
 540.200195312 99.2802734375 l 2,45,46
 540.200195312 55.48046875 540.200195312 55.48046875 570.860351562 26.2802734375 c 0,47,48
 601.51953125 -5.83984375 601.51953125 -5.83984375 645.3203125 -5.83984375 c 2,49,-1
 665.759765625 -5.83984375 l 2,50,51
 709.559570312 -5.83984375 709.559570312 -5.83984375 741.6796875 26.2802734375 c 0,52,53
 770.879882812 58.400390625 770.879882812 58.400390625 770.879882812 99.2802734375 c 2,54,-1
 770.879882812 456.98046875 l 6,55,56
 770.879882812 509.540039062 770.879882812 509.540039062 805.919921875 547.5 c 4,57,58
 840.959960938 586.919921875 840.959960938 586.919921875 893.51953125 588.379882812 c 4,59,60
 947.540039062 589.83984375 947.540039062 589.83984375 985.5 551.879882812 c 4,61,62
 1024.91992188 513.919921875 1024.91992188 513.919921875 1024.91992188 461.360351562 c 6,63,-1
 1024.91992188 99.2802734375 l 2,64,65
 1024.91992188 55.48046875 1024.91992188 55.48046875 1054.12011719 26.2802734375 c 0,66,67
 1086.24023438 -5.83984375 1086.24023438 -5.83984375 1130.04003906 -5.83984375 c 2,68,-1
 1131.5 -5.83984375 l 2,69,70
 1175.29980469 -5.83984375 1175.29980469 -5.83984375 1205.95996094 26.2802734375 c 0,71,72
 1236.62011719 58.400390625 1236.62011719 58.400390625 1236.62011719 99.2802734375 c 2,73,-1
 1236.62011719 366.459960938 l 2,0,1
EndSplineSet
EndChar

StartChar: n
Encoding: 81 110 81
Width: 858
VWidth: 1495
GlyphClass: 2
Flags: W
LayerCount: 2
Back
Fore
SplineSet
810.299804688 362.080078125 m 2,0,1
 808.83984375 531.440429688 808.83984375 531.440429688 724.16015625 639.48046875 c 0,2,3
 627.799804688 762.120117188 627.799804688 762.120117188 459.900390625 728.540039062 c 0,4,5
 427.780273438 722.700195312 427.780273438 722.700195312 289.080078125 640.940429688 c 1,6,-1
 289.080078125 642.400390625 l 2,7,8
 289.080078125 671.599609375 289.080078125 671.599609375 268.639648438 692.040039062 c 0,9,10
 248.200195312 715.400390625 248.200195312 715.400390625 216.080078125 715.400390625 c 2,11,-1
 132.860351562 715.400390625 l 2,12,13
 102.200195312 715.400390625 102.200195312 715.400390625 80.2998046875 692.040039062 c 0,14,15
 58.400390625 671.599609375 58.400390625 671.599609375 58.400390625 640.940429688 c 2,16,-1
 58.400390625 102.200195312 l 2,17,18
 58.400390625 55.48046875 58.400390625 55.48046875 91.98046875 23.3603515625 c 256,19,20
 124.099609375 -8.759765625 124.099609375 -8.759765625 170.8203125 -8.759765625 c 2,21,-1
 175.200195312 -8.759765625 l 2,22,23
 221.919921875 -8.759765625 221.919921875 -8.759765625 254.040039062 23.3603515625 c 256,24,25
 286.16015625 55.48046875 286.16015625 55.48046875 286.16015625 102.200195312 c 2,26,-1
 286.16015625 440.919921875 l 6,27,28
 286.16015625 442.379882812 l 5,29,30
 286.16015625 452.599609375 286.16015625 452.599609375 289.080078125 459.900390625 c 4,31,32
 297.83984375 511 297.83984375 511 366.459960938 551.879882812 c 4,33,34
 443.83984375 598.599609375 443.83984375 598.599609375 516.83984375 563.559570312 c 4,35,36
 584 528.51953125 584 528.51953125 584 405.879882812 c 6,37,-1
 584 102.200195312 l 2,38,39
 584 55.48046875 584 55.48046875 617.580078125 23.3603515625 c 256,40,41
 649.700195312 -8.759765625 649.700195312 -8.759765625 696.419921875 -8.759765625 c 2,42,-1
 697.879882812 -8.759765625 l 2,43,44
 744.599609375 -8.759765625 744.599609375 -8.759765625 778.1796875 23.3603515625 c 256,45,46
 811.759765625 56.9404296875 811.759765625 56.9404296875 811.759765625 102.200195312 c 2,47,-1
 810.299804688 362.080078125 l 2,0,1
EndSplineSet
EndChar

StartChar: o
Encoding: 82 111 82
Width: 855
VWidth: 1495
GlyphClass: 2
Flags: W
LayerCount: 2
Back
Fore
SplineSet
302.219726562 179.580078125 m 4,1,2
 248.200195312 239.440429688 248.200195312 239.440429688 248.200195312 417.559570312 c 256,3,4
 248.200195312 500.780273438 248.200195312 500.780273438 302.219726562 559.1796875 c 256,5,6
 347.48046875 610.280273438 347.48046875 610.280273438 429.240234375 610.280273438 c 256,7,8
 511 610.280273438 511 610.280273438 557.719726562 559.1796875 c 0,9,10
 610.280273438 502.240234375 610.280273438 502.240234375 610.280273438 417.559570312 c 256,11,12
 610.280273438 239.440429688 610.280273438 239.440429688 557.719726562 179.580078125 c 132,-1,13
 505.16015625 119.719726562 505.16015625 119.719726562 429.240234375 119.719726562 c 260,14,0
 353.3203125 119.719726562 353.3203125 119.719726562 302.219726562 179.580078125 c 4,1,2
429.240234375 747.51953125 m 0,15,16
 417.559570312 747.51953125 417.559570312 747.51953125 407.33984375 747.51953125 c 0,17,18
 251.120117188 747.51953125 251.120117188 747.51953125 137.240234375 636.559570312 c 0,19,20
 26.2802734375 522.6796875 26.2802734375 522.6796875 24.8203125 365 c 0,21,22
 26.2802734375 205.860351562 26.2802734375 205.860351562 137.240234375 94.900390625 c 0,23,24
 249.66015625 -17.51953125 249.66015625 -17.51953125 407.33984375 -17.51953125 c 0,25,26
 417.559570312 -17.51953125 417.559570312 -17.51953125 429.240234375 -17.51953125 c 0,27,28
 439.459960938 -17.51953125 439.459960938 -17.51953125 451.139648438 -17.51953125 c 0,29,30
 610.280273438 -17.51953125 610.280273438 -17.51953125 721.240234375 94.900390625 c 0,31,32
 835.120117188 204.400390625 835.120117188 204.400390625 835.120117188 365 c 0,33,34
 835.120117188 522.6796875 835.120117188 522.6796875 721.240234375 636.559570312 c 0,35,36
 610.280273438 747.51953125 610.280273438 747.51953125 451.139648438 747.51953125 c 0,37,38
 439.459960938 747.51953125 439.459960938 747.51953125 429.240234375 747.51953125 c 0,15,16
EndSplineSet
EndChar

StartChar: p
Encoding: 83 112 83
Width: 826
VWidth: 1495
GlyphClass: 2
Flags: W
LayerCount: 2
Back
Fore
SplineSet
572.3203125 309.51953125 m 6,0,1
 572.3203125 254.040039062 572.3203125 254.040039062 553.33984375 210.240234375 c 4,2,3
 531.440429688 163.51953125 531.440429688 163.51953125 496.400390625 148.919921875 c 4,4,5
 423.400390625 113.879882812 423.400390625 113.879882812 350.400390625 140.16015625 c 4,6,7
 286.16015625 163.51953125 286.16015625 163.51953125 271.559570312 210.240234375 c 5,8,-1
 271.559570312 481.799804688 l 2,9,10
 271.559570312 572.3203125 271.559570312 572.3203125 347.48046875 597.139648438 c 0,11,12
 385.440429688 610.280273438 385.440429688 610.280273438 421.940429688 604.440429688 c 1,13,14
 484.719726562 604.440429688 484.719726562 604.440429688 528.51953125 546.040039062 c 0,15,16
 572.3203125 487.639648438 572.3203125 487.639648438 572.3203125 405.879882812 c 2,17,-1
 572.3203125 309.51953125 l 6,0,1
440.919921875 -2.919921875 m 0,18,19
 586.919921875 -2.919921875 586.919921875 -2.919921875 689.120117188 105.120117188 c 256,20,21
 791.3203125 213.16015625 791.3203125 213.16015625 791.3203125 367.919921875 c 0,22,23
 791.3203125 519.759765625 791.3203125 519.759765625 689.120117188 627.799804688 c 256,24,25
 586.919921875 735.83984375 586.919921875 735.83984375 440.919921875 735.83984375 c 0,26,27
 350.400390625 735.83984375 350.400390625 735.83984375 271.559570312 689.120117188 c 1,28,-1
 271.559570312 689.120117188 l 2,29,30
 271.559570312 708.099609375 271.559570312 708.099609375 256.959960938 722.700195312 c 0,31,32
 245.280273438 735.83984375 245.280273438 735.83984375 224.83984375 735.83984375 c 2,33,-1
 87.599609375 735.83984375 l 2,34,35
 68.6201171875 735.83984375 68.6201171875 735.83984375 54.01953125 722.700195312 c 0,36,37
 40.8798828125 708.099609375 40.8798828125 708.099609375 40.8798828125 689.120117188 c 2,38,-1
 40.8798828125 -195.639648438 l 2,39,40
 40.8798828125 -242.360351562 40.8798828125 -242.360351562 73 -277.400390625 c 256,41,42
 108.040039062 -309.51953125 108.040039062 -309.51953125 154.759765625 -309.51953125 c 2,43,-1
 157.6796875 -309.51953125 l 2,44,45
 204.400390625 -309.51953125 204.400390625 -309.51953125 236.51953125 -277.400390625 c 256,46,47
 271.559570312 -242.360351562 271.559570312 -242.360351562 271.559570312 -195.639648438 c 2,48,-1
 271.559570312 43.7998046875 l 1,49,50
 350.400390625 -2.919921875 350.400390625 -2.919921875 440.919921875 -2.919921875 c 0,18,19
EndSplineSet
EndChar

StartChar: q
Encoding: 84 113 84
Width: 816
VWidth: 1495
GlyphClass: 2
Flags: W
LayerCount: 2
Back
Fore
SplineSet
245.280273438 405.879882812 m 2,0,1
 245.280273438 490.559570312 245.280273438 490.559570312 289.080078125 546.040039062 c 0,2,3
 332.879882812 604.440429688 332.879882812 604.440429688 395.66015625 604.440429688 c 1,4,5
 433.620117188 610.280273438 433.620117188 610.280273438 470.120117188 597.139648438 c 0,6,7
 546.040039062 572.3203125 546.040039062 572.3203125 546.040039062 481.799804688 c 2,8,-1
 546.040039062 204.400390625 l 5,9,10
 528.51953125 160.599609375 528.51953125 160.599609375 467.200195312 134.3203125 c 4,11,12
 394.200195312 105.120117188 394.200195312 105.120117188 321.200195312 140.16015625 c 4,13,14
 286.16015625 157.6796875 286.16015625 157.6796875 264.259765625 204.400390625 c 4,15,16
 245.280273438 248.200195312 245.280273438 248.200195312 245.280273438 300.759765625 c 6,17,-1
 245.280273438 405.879882812 l 2,0,1
546.040039062 43.7998046875 m 1,19,-1
 546.040039062 -195.639648438 l 2,20,21
 546.040039062 -242.360351562 546.040039062 -242.360351562 581.080078125 -277.400390625 c 256,22,23
 613.200195312 -309.51953125 613.200195312 -309.51953125 659.919921875 -309.51953125 c 2,24,-1
 662.83984375 -309.51953125 l 2,25,26
 709.559570312 -309.51953125 709.559570312 -309.51953125 744.599609375 -277.400390625 c 256,27,28
 776.719726562 -242.360351562 776.719726562 -242.360351562 776.719726562 -195.639648438 c 2,29,-1
 776.719726562 689.120117188 l 2,30,31
 776.719726562 709.559570312 776.719726562 709.559570312 763.580078125 722.700195312 c 0,32,33
 747.51953125 735.83984375 747.51953125 735.83984375 730 735.83984375 c 2,34,-1
 592.759765625 735.83984375 l 2,35,36
 572.3203125 735.83984375 572.3203125 735.83984375 560.639648438 722.700195312 c 0,37,38
 546.040039062 706.639648438 546.040039062 706.639648438 546.040039062 689.120117188 c 2,39,-1
 546.040039062 689.120117188 l 1,40,41
 467.200195312 735.83984375 467.200195312 735.83984375 376.6796875 735.83984375 c 0,42,43
 230.6796875 735.83984375 230.6796875 735.83984375 128.48046875 627.799804688 c 256,44,45
 26.2802734375 519.759765625 26.2802734375 519.759765625 26.2802734375 367.919921875 c 0,46,47
 26.2802734375 213.16015625 26.2802734375 213.16015625 128.48046875 105.120117188 c 256,48,49
 230.6796875 -2.919921875 230.6796875 -2.919921875 376.6796875 -2.919921875 c 0,50,18
 467.200195312 -2.919921875 467.200195312 -2.919921875 546.040039062 43.7998046875 c 1,19,-1
EndSplineSet
EndChar

StartChar: r
Encoding: 85 114 85
Width: 531
VWidth: 1495
GlyphClass: 2
Flags: W
LayerCount: 2
Back
Fore
SplineSet
312.440429688 699.33984375 m 0,1,2
 289.080078125 683.280273438 289.080078125 683.280273438 264.259765625 645.3203125 c 1,3,4
 216.080078125 718.3203125 216.080078125 718.3203125 151.83984375 719.780273438 c 2,5,-1
 147.459960938 719.780273438 l 2,6,7
 100.740234375 718.3203125 100.740234375 718.3203125 67.16015625 686.200195312 c 0,8,9
 35.0400390625 654.080078125 35.0400390625 654.080078125 35.0400390625 607.360351562 c 2,10,-1
 35.0400390625 108.040039062 l 2,11,12
 35.0400390625 61.3203125 35.0400390625 61.3203125 67.16015625 29.2001953125 c 0,13,14
 99.2802734375 -4.3798828125 99.2802734375 -4.3798828125 146 -4.3798828125 c 2,15,-1
 148.919921875 -4.3798828125 l 2,16,17
 195.639648438 -4.3798828125 195.639648438 -4.3798828125 227.759765625 29.2001953125 c 0,18,19
 259.879882812 61.3203125 259.879882812 61.3203125 261.33984375 108.040039062 c 2,20,-1
 261.33984375 417.559570312 l 1,21,22
 262.799804688 417.559570312 l 1,23,24
 262.799804688 419.01953125 l 2,25,26
 262.799804688 429.240234375 262.799804688 429.240234375 264.259765625 436.540039062 c 0,27,28
 273.01953125 475.959960938 273.01953125 475.959960938 327.040039062 516.83984375 c 0,29,30
 388.360351562 560.639648438 388.360351562 560.639648438 452.599609375 551.879882812 c 0,31,32
 496.400390625 543.120117188 496.400390625 543.120117188 508.080078125 616.120117188 c 1,33,-1
 524.139648438 690.580078125 l 2,34,35
 528.51953125 712.48046875 528.51953125 712.48046875 515.379882812 727.080078125 c 0,36,37
 503.700195312 741.6796875 503.700195312 741.6796875 481.799804688 741.6796875 c 0,38,0
 373.759765625 741.6796875 373.759765625 741.6796875 312.440429688 699.33984375 c 0,1,2
EndSplineSet
EndChar

StartChar: s
Encoding: 86 115 86
Width: 601
VWidth: 1495
GlyphClass: 2
Flags: W
LayerCount: 2
Back
Fore
SplineSet
38.6767578125 113.879882812 m 1,0,1
 47.4365234375 147.459960938 47.4365234375 147.459960938 78.0966796875 163.51953125 c 256,2,3
 107.296875 181.040039062 107.296875 181.040039062 140.875976562 169.360351562 c 0,4,5
 205.116210938 148.919921875 205.116210938 148.919921875 254.756835938 150.379882812 c 0,6,7
 351.116210938 151.83984375 351.116210938 151.83984375 351.116210938 210.240234375 c 0,8,9
 351.116210938 239.440429688 351.116210938 239.440429688 329.216796875 255.5 c 0,10,11
 308.776367188 273.01953125 308.776367188 273.01953125 245.99609375 293.459960938 c 0,12,13
 37.216796875 365 37.216796875 365 40.13671875 511 c 0,14,15
 41.5966796875 613.200195312 41.5966796875 613.200195312 120.436523438 680.360351562 c 0,16,17
 202.196289062 747.51953125 202.196289062 747.51953125 333.596679688 747.51953125 c 0,18,19
 400.756835938 747.51953125 400.756835938 747.51953125 462.076171875 730 c 0,20,21
 494.196289062 721.240234375 494.196289062 721.240234375 508.796875 694.959960938 c 0,22,23
 526.31640625 667.219726562 526.31640625 667.219726562 517.556640625 636.559570312 c 1,24,-1
 517.556640625 635.099609375 l 1,25,26
 511.716796875 602.98046875 511.716796875 602.98046875 482.516601562 586.919921875 c 256,27,28
 453.31640625 569.400390625 453.31640625 569.400390625 421.196289062 578.16015625 c 0,29,30
 377.396484375 589.83984375 377.396484375 589.83984375 340.896484375 591.299804688 c 0,31,32
 254.756835938 592.759765625 254.756835938 592.759765625 254.756835938 534.360351562 c 0,33,34
 254.756835938 508.080078125 254.756835938 508.080078125 281.036132812 490.559570312 c 0,35,36
 304.396484375 473.040039062 304.396484375 473.040039062 371.556640625 449.6796875 c 0,37,38
 564.276367188 382.51953125 564.276367188 382.51953125 565.736328125 227.759765625 c 0,39,40
 567.196289062 122.639648438 567.196289062 122.639648438 488.356445312 58.400390625 c 0,41,42
 406.596679688 -8.759765625 406.596679688 -8.759765625 254.756835938 -7.2998046875 c 0,43,44
 170.076171875 -8.759765625 170.076171875 -8.759765625 94.15625 14.599609375 c 0,45,46
 63.49609375 23.3603515625 63.49609375 23.3603515625 47.4365234375 52.5595703125 c 256,47,48
 29.916015625 78.83984375 29.916015625 78.83984375 38.6767578125 110.959960938 c 1,49,-1
 38.6767578125 113.879882812 l 1,0,1
EndSplineSet
EndChar

StartChar: t
Encoding: 87 116 87
Width: 527
VWidth: 1495
GlyphClass: 2
Flags: W
LayerCount: 2
Back
Fore
SplineSet
359.1171875 341.639648438 m 2,1,-1
 359.1171875 572.3203125 l 1,2,-1
 426.27734375 572.3203125 l 2,3,4
 458.397460938 572.3203125 458.397460938 572.3203125 478.836914062 592.759765625 c 0,5,6
 502.197265625 614.66015625 502.197265625 614.66015625 500.737304688 646.780273438 c 2,7,-1
 500.737304688 648.240234375 l 2,8,9
 502.197265625 678.900390625 502.197265625 678.900390625 478.836914062 700.799804688 c 0,10,11
 458.397460938 724.16015625 458.397460938 724.16015625 426.27734375 724.16015625 c 2,12,-1
 359.1171875 724.16015625 l 1,13,-1
 359.1171875 785.48046875 l 2,14,15
 359.1171875 823.440429688 359.1171875 823.440429688 335.756835938 852.639648438 c 0,16,17
 312.397460938 881.83984375 312.397460938 881.83984375 275.897460938 893.51953125 c 2,18,-1
 272.977539062 893.51953125 l 2,19,20
 218.95703125 908.120117188 218.95703125 908.120117188 175.157226562 874.540039062 c 256,21,22
 131.357421875 840.959960938 131.357421875 840.959960938 131.357421875 785.48046875 c 2,23,-1
 131.357421875 724.16015625 l 1,24,-1
 102.157226562 724.16015625 l 2,25,26
 70.037109375 724.16015625 70.037109375 724.16015625 48.1376953125 700.799804688 c 0,27,28
 26.2373046875 678.900390625 26.2373046875 678.900390625 26.2373046875 648.240234375 c 2,29,-1
 26.2373046875 646.780273438 l 2,30,31
 26.2373046875 613.200195312 26.2373046875 613.200195312 48.1376953125 592.759765625 c 256,32,33
 70.037109375 572.3203125 70.037109375 572.3203125 102.157226562 572.3203125 c 2,34,-1
 131.357421875 572.3203125 l 1,35,-1
 131.357421875 356.240234375 l 1,36,-1
 131.357421875 356.240234375 l 1,37,38
 131.357421875 201.48046875 131.357421875 201.48046875 180.997070312 108.040039062 c 0,39,40
 239.397460938 -5.83984375 239.397460938 -5.83984375 364.95703125 -5.83984375 c 0,41,42
 420.4375 -5.83984375 420.4375 -5.83984375 451.09765625 75.919921875 c 0,43,44
 462.77734375 110.959960938 462.77734375 110.959960938 458.397460938 137.240234375 c 0,45,46
 452.557617188 169.360351562 452.557617188 169.360351562 426.27734375 183.959960938 c 0,47,0
 359.1171875 219 359.1171875 219 359.1171875 341.639648438 c 2,1,-1
EndSplineSet
EndChar

StartChar: u
Encoding: 88 117 88
Width: 849
VWidth: 1495
GlyphClass: 2
Flags: W
LayerCount: 2
Back
Fore
SplineSet
52.5595703125 365 m 2,0,1
 52.5595703125 213.16015625 52.5595703125 213.16015625 137.240234375 102.200195312 c 0,2,3
 233.599609375 -20.4404296875 233.599609375 -20.4404296875 402.959960938 11.6796875 c 0,4,5
 473.040039062 26.2802734375 473.040039062 26.2802734375 572.3203125 84.6796875 c 1,6,-1
 572.3203125 84.6796875 l 2,7,8
 572.3203125 55.48046875 572.3203125 55.48046875 595.6796875 33.580078125 c 0,9,10
 616.120117188 11.6796875 616.120117188 11.6796875 645.3203125 11.6796875 c 2,11,-1
 730 11.6796875 l 2,12,13
 762.120117188 11.6796875 762.120117188 11.6796875 782.559570312 33.580078125 c 0,14,15
 803 55.48046875 803 55.48046875 803 84.6796875 c 2,16,-1
 803 624.879882812 l 2,17,18
 803 671.599609375 803 671.599609375 770.879882812 703.719726562 c 256,19,20
 738.759765625 735.83984375 738.759765625 735.83984375 692.040039062 735.83984375 c 2,21,-1
 689.120117188 735.83984375 l 2,22,23
 642.400390625 735.83984375 642.400390625 735.83984375 608.8203125 703.719726562 c 256,24,25
 575.240234375 671.599609375 575.240234375 671.599609375 575.240234375 624.879882812 c 2,26,-1
 575.240234375 313.900390625 l 2,27,28
 575.240234375 312.440429688 l 1,29,30
 575.240234375 300.759765625 575.240234375 300.759765625 572.3203125 294.919921875 c 0,31,32
 563.559570312 245.280273438 563.559570312 245.280273438 496.400390625 204.400390625 c 0,33,34
 432.16015625 166.440429688 432.16015625 166.440429688 347.48046875 207.3203125 c 0,35,36
 277.400390625 240.900390625 277.400390625 240.900390625 277.400390625 348.940429688 c 2,37,-1
 277.400390625 624.879882812 l 2,38,39
 277.400390625 671.599609375 277.400390625 671.599609375 245.280273438 703.719726562 c 256,40,41
 213.16015625 735.83984375 213.16015625 735.83984375 166.440429688 735.83984375 c 2,42,-1
 163.51953125 735.83984375 l 2,43,44
 116.799804688 735.83984375 116.799804688 735.83984375 84.6796875 703.719726562 c 256,45,46
 52.5595703125 671.599609375 52.5595703125 671.599609375 52.5595703125 624.879882812 c 2,47,-1
 52.5595703125 365 l 2,0,1
EndSplineSet
EndChar

StartChar: v
Encoding: 89 118 89
Width: 706
VWidth: 1495
GlyphClass: 2
Flags: W
LayerCount: 2
Back
Fore
SplineSet
586.48046875 715.400390625 m 2,0,1
 549.98046875 715.400390625 549.98046875 715.400390625 520.780273438 693.5 c 256,2,3
 491.580078125 671.599609375 491.580078125 671.599609375 479.900390625 636.559570312 c 0,4,5
 379.16015625 309.51953125 379.16015625 309.51953125 358.719726562 213.16015625 c 1,6,-1
 354.33984375 213.16015625 l 1,7,8
 335.360351562 315.360351562 335.360351562 315.360351562 239 636.559570312 c 0,9,10
 228.780273438 671.599609375 228.780273438 671.599609375 198.120117188 693.5 c 256,11,12
 168.919921875 715.400390625 168.919921875 715.400390625 130.959960938 715.400390625 c 2,13,-1
 116.360351562 715.400390625 l 2,14,15
 57.9599609375 715.400390625 57.9599609375 715.400390625 25.83984375 668.6796875 c 256,16,17
 -7.740234375 621.959960938 -7.740234375 621.959960938 11.240234375 566.48046875 c 2,18,-1
 163.080078125 128.48046875 l 2,19,20
 183.520507812 70.080078125 183.520507812 70.080078125 233.16015625 32.1201171875 c 0,21,22
 282.799804688 -5.83984375 282.799804688 -5.83984375 347.040039062 -5.83984375 c 2,23,-1
 349.959960938 -5.83984375 l 2,24,25
 412.740234375 -5.83984375 412.740234375 -5.83984375 463.83984375 30.66015625 c 0,26,27
 516.400390625 67.16015625 516.400390625 67.16015625 536.83984375 125.559570312 c 2,28,-1
 694.520507812 566.48046875 l 2,29,30
 714.959960938 621.959960938 714.959960938 621.959960938 681.379882812 668.6796875 c 256,31,32
 647.799804688 715.400390625 647.799804688 715.400390625 589.400390625 715.400390625 c 2,33,-1
 586.48046875 715.400390625 l 2,0,1
EndSplineSet
EndChar

StartChar: w
Encoding: 90 119 90
Width: 1102
VWidth: 1495
GlyphClass: 2
Flags: W
LayerCount: 2
Back
Fore
SplineSet
990.529296875 694.959960938 m 2,0,1
 917.529296875 694.959960938 917.529296875 694.959960938 894.169921875 627.799804688 c 2,2,-1
 815.329101562 400.040039062 l 2,3,4
 786.129882812 309.51953125 786.129882812 309.51953125 762.76953125 224.83984375 c 1,5,6
 735.029296875 335.799804688 735.029296875 335.799804688 660.569335938 619.040039062 c 0,7,8
 651.809570312 652.620117188 651.809570312 652.620117188 625.529296875 674.51953125 c 0,9,10
 596.329101562 694.959960938 596.329101562 694.959960938 561.2890625 694.959960938 c 2,11,-1
 537.9296875 694.959960938 l 2,12,13
 502.889648438 694.959960938 502.889648438 694.959960938 476.609375 674.51953125 c 256,14,15
 447.409179688 654.080078125 447.409179688 654.080078125 438.649414062 619.040039062 c 0,16,17
 365.649414062 332.879882812 365.649414062 332.879882812 339.369140625 224.83984375 c 1,18,19
 316.009765625 309.51953125 316.009765625 309.51953125 283.889648438 400.040039062 c 2,20,-1
 205.049804688 627.799804688 l 2,21,22
 181.689453125 694.959960938 181.689453125 694.959960938 108.689453125 694.959960938 c 2,23,-1
 107.229492188 694.959960938 l 2,24,25
 53.208984375 694.959960938 53.208984375 694.959960938 24.009765625 651.16015625 c 0,26,27
 -6.650390625 607.360351562 -6.650390625 607.360351562 12.3291015625 557.719726562 c 2,28,-1
 191.909179688 94.900390625 l 2,29,30
 207.969726562 49.6396484375 207.969726562 49.6396484375 248.849609375 21.900390625 c 0,31,32
 289.729492188 -5.83984375 289.729492188 -5.83984375 339.369140625 -5.83984375 c 2,33,-1
 340.829101562 -5.83984375 l 2,34,35
 391.9296875 -5.83984375 391.9296875 -5.83984375 435.729492188 26.2802734375 c 256,36,37
 478.069335938 58.400390625 478.069335938 58.400390625 492.669921875 110.959960938 c 2,38,-1
 549.609375 319.740234375 l 1,39,-1
 608.009765625 110.959960938 l 2,40,41
 622.609375 58.400390625 622.609375 58.400390625 663.489257812 26.2802734375 c 256,42,43
 705.829101562 -5.83984375 705.829101562 -5.83984375 759.849609375 -5.83984375 c 2,44,-1
 762.76953125 -5.83984375 l 2,45,46
 810.94921875 -5.83984375 810.94921875 -5.83984375 850.369140625 21.900390625 c 0,47,48
 891.249023438 49.6396484375 891.249023438 49.6396484375 908.76953125 94.900390625 c 2,49,-1
 1088.34960938 557.719726562 l 2,50,51
 1110.24902344 607.360351562 1110.24902344 607.360351562 1078.12988281 651.16015625 c 0,52,53
 1048.9296875 694.959960938 1048.9296875 694.959960938 993.44921875 694.959960938 c 2,54,-1
 990.529296875 694.959960938 l 2,0,1
EndSplineSet
EndChar

StartChar: x
Encoding: 91 120 91
Width: 680
VWidth: 1495
GlyphClass: 2
Flags: W
LayerCount: 2
Back
Fore
SplineSet
543.36328125 713.940429688 m 2,0,1
 484.962890625 713.940429688 484.962890625 713.940429688 454.302734375 665.759765625 c 2,2,-1
 338.962890625 487.639648438 l 1,3,-1
 225.083007812 665.759765625 l 2,4,5
 192.962890625 713.940429688 192.962890625 713.940429688 134.563476562 713.940429688 c 2,6,-1
 133.103515625 713.940429688 l 2,7,8
 67.4033203125 713.940429688 67.4033203125 713.940429688 38.203125 654.080078125 c 0,9,10
 9.0029296875 592.759765625 9.0029296875 592.759765625 49.8828125 541.66015625 c 2,11,-1
 198.802734375 354.780273438 l 1,12,-1
 49.8828125 166.440429688 l 2,13,14
 9.0029296875 113.879882812 9.0029296875 113.879882812 38.203125 55.48046875 c 0,15,16
 67.4033203125 -5.83984375 67.4033203125 -5.83984375 133.103515625 -5.83984375 c 2,17,-1
 134.563476562 -5.83984375 l 2,18,19
 192.962890625 -5.83984375 192.962890625 -5.83984375 225.083007812 43.7998046875 c 2,20,-1
 338.962890625 220.459960938 l 1,21,-1
 454.302734375 43.7998046875 l 2,22,23
 486.422851562 -5.83984375 486.422851562 -5.83984375 543.36328125 -5.83984375 c 2,24,-1
 546.283203125 -5.83984375 l 2,25,26
 613.443359375 -5.83984375 613.443359375 -5.83984375 642.643554688 55.48046875 c 0,27,28
 671.842773438 116.799804688 671.842773438 116.799804688 628.04296875 166.440429688 c 2,29,-1
 479.123046875 354.780273438 l 1,30,-1
 628.04296875 541.66015625 l 2,31,32
 668.922851562 594.219726562 668.922851562 594.219726562 642.643554688 654.080078125 c 0,33,34
 613.443359375 713.940429688 613.443359375 713.940429688 546.283203125 713.940429688 c 2,35,-1
 543.36328125 713.940429688 l 2,0,1
EndSplineSet
EndChar

StartChar: y
Encoding: 92 121 92
Width: 718
VWidth: 1495
GlyphClass: 2
Flags: W
LayerCount: 2
Back
Fore
SplineSet
599.888671875 712.48046875 m 2,0,1
 566.30859375 712.48046875 566.30859375 712.48046875 538.568359375 692.040039062 c 0,2,3
 513.748046875 671.599609375 513.748046875 671.599609375 502.068359375 639.48046875 c 0,4,5
 402.788085938 309.51953125 402.788085938 309.51953125 379.427734375 210.240234375 c 1,6,-1
 236.348632812 642.400390625 l 2,7,8
 224.66796875 674.51953125 224.66796875 674.51953125 198.388671875 693.5 c 128,-1,9
 172.108398438 712.48046875 172.108398438 712.48046875 138.528320312 712.48046875 c 2,10,-1
 119.547851562 712.48046875 l 2,11,12
 64.068359375 712.48046875 64.068359375 712.48046875 33.408203125 665.759765625 c 128,-1,13
 2.748046875 619.040039062 2.748046875 619.040039062 26.1083984375 567.940429688 c 0,14,15
 199.848632812 181.040039062 199.848632812 181.040039062 226.127929688 46.7197265625 c 1,16,-1
 226.127929688 43.7998046875 l 2,17,18
 227.587890625 -78.83984375 227.587890625 -78.83984375 157.5078125 -113.879882812 c 0,19,20
 128.30859375 -128.48046875 128.30859375 -128.48046875 96.1884765625 -128.48046875 c 0,21,22
 61.1484375 -128.48046875 61.1484375 -128.48046875 37.7880859375 -154.759765625 c 0,23,24
 11.5078125 -179.580078125 11.5078125 -179.580078125 11.5078125 -214.620117188 c 2,25,-1
 11.5078125 -216.080078125 l 2,26,27
 11.5078125 -271.559570312 11.5078125 -271.559570312 64.068359375 -294.919921875 c 0,28,29
 87.427734375 -303.6796875 87.427734375 -303.6796875 102.028320312 -308.059570312 c 0,30,31
 233.427734375 -334.33984375 233.427734375 -334.33984375 338.547851562 -262.799804688 c 0,32,33
 434.908203125 -195.639648438 434.908203125 -195.639648438 472.868164062 -75.919921875 c 0,34,35
 478.708007812 -58.400390625 478.708007812 -58.400390625 700.627929688 575.240234375 c 0,36,37
 718.1484375 624.879882812 718.1484375 624.879882812 686.028320312 670.139648438 c 0,38,39
 653.908203125 712.48046875 653.908203125 712.48046875 601.348632812 712.48046875 c 2,40,-1
 599.888671875 712.48046875 l 2,0,1
EndSplineSet
EndChar

StartChar: z
Encoding: 93 122 93
Width: 646
VWidth: 1495
GlyphClass: 2
Flags: W
LayerCount: 2
Back
Fore
SplineSet
306.913085938 166.440429688 m 1,0,-1
 607.672851562 562.099609375 l 2,1,2
 625.193359375 586.919921875 625.193359375 586.919921875 625.193359375 616.120117188 c 2,3,-1
 625.193359375 616.120117188 l 2,4,5
 625.193359375 651.16015625 625.193359375 651.16015625 600.373046875 677.440429688 c 256,6,7
 574.092773438 703.719726562 574.092773438 703.719726562 539.052734375 703.719726562 c 2,8,-1
 120.033203125 703.719726562 l 2,9,10
 76.2333984375 703.719726562 76.2333984375 703.719726562 51.4130859375 668.6796875 c 0,11,12
 26.5927734375 633.639648438 26.5927734375 633.639648438 41.193359375 592.759765625 c 1,13,-1
 41.193359375 589.83984375 l 1,14,15
 61.6328125 532.900390625 61.6328125 532.900390625 120.033203125 532.900390625 c 2,16,-1
 343.413085938 532.900390625 l 1,17,-1
 33.892578125 128.48046875 l 2,18,19
 16.373046875 106.580078125 16.373046875 106.580078125 16.373046875 78.83984375 c 2,20,-1
 16.373046875 78.83984375 l 2,21,22
 17.8330078125 43.7998046875 17.8330078125 43.7998046875 41.193359375 18.98046875 c 0,23,24
 64.552734375 -5.83984375 64.552734375 -5.83984375 99.5927734375 -5.83984375 c 2,25,-1
 544.892578125 -5.83984375 l 2,26,27
 588.693359375 -5.83984375 588.693359375 -5.83984375 613.512695312 30.66015625 c 0,28,29
 639.79296875 65.7001953125 639.79296875 65.7001953125 625.193359375 106.580078125 c 2,30,-1
 623.733398438 108.040039062 l 2,31,32
 604.752929688 166.440429688 604.752929688 166.440429688 543.432617188 166.440429688 c 2,33,-1
 306.913085938 166.440429688 l 1,0,-1
EndSplineSet
EndChar

StartChar: braceleft
Encoding: 94 123 94
Width: 747
VWidth: 1495
GlyphClass: 2
Flags: W
LayerCount: 2
Back
Fore
SplineSet
689.120117188 -188.33984375 m 2,0,1
 689.120117188 -143.080078125 689.120117188 -143.080078125 642.400390625 -119.719726562 c 4,2,3
 537.280273438 -70.080078125 537.280273438 -70.080078125 537.280273438 -11.6796875 c 4,4,5
 537.280273438 29.2001953125 537.280273438 29.2001953125 547.5 90.51953125 c 5,6,7
 557.719726562 183.959960938 557.719726562 183.959960938 557.719726562 214.620117188 c 4,8,9
 560.639648438 318.280273438 560.639648438 318.280273438 426.3203125 397.120117188 c 4,10,11
 411.719726562 405.879882812 411.719726562 405.879882812 414.639648438 420.48046875 c 4,12,13
 417.559570312 435.080078125 417.559570312 435.080078125 432.16015625 440.919921875 c 4,14,15
 560.639648438 484.719726562 560.639648438 484.719726562 557.719726562 633.639648438 c 4,16,17
 557.719726562 668.6796875 557.719726562 668.6796875 547.5 757.740234375 c 5,18,19
 537.280273438 817.599609375 537.280273438 817.599609375 537.280273438 858.48046875 c 4,20,21
 537.280273438 916.879882812 537.280273438 916.879882812 642.400390625 967.98046875 c 4,22,23
 689.120117188 989.879882812 689.120117188 989.879882812 689.120117188 1035.13964844 c 2,24,-1
 689.120117188 1036.59960938 l 2,25,26
 689.120117188 1076.01953125 689.120117188 1076.01953125 651.16015625 1099.37988281 c 0,27,28
 613.200195312 1124.20019531 613.200195312 1124.20019531 572.3203125 1109.59960938 c 0,29,30
 297.83984375 1024.91992188 297.83984375 1024.91992188 297.83984375 896.440429688 c 0,31,32
 297.83984375 852.639648438 297.83984375 852.639648438 310.98046875 756.280273438 c 1,33,34
 321.200195312 635.099609375 321.200195312 635.099609375 321.200195312 616.120117188 c 0,35,36
 318.280273438 522.6796875 318.280273438 522.6796875 221.919921875 499.3203125 c 0,37,38
 154.759765625 484.719726562 154.759765625 484.719726562 154.759765625 424.860351562 c 2,39,-1
 154.759765625 423.400390625 l 2,40,41
 154.759765625 362.080078125 154.759765625 362.080078125 219 348.940429688 c 0,42,43
 321.200195312 327.040039062 321.200195312 327.040039062 321.200195312 233.599609375 c 0,44,45
 321.200195312 216.080078125 321.200195312 216.080078125 310.98046875 94.900390625 c 1,46,47
 297.83984375 -1.4599609375 297.83984375 -1.4599609375 297.83984375 -46.7197265625 c 0,48,49
 297.83984375 -181.040039062 297.83984375 -181.040039062 572.3203125 -262.799804688 c 0,50,51
 616.120117188 -274.48046875 616.120117188 -274.48046875 651.16015625 -251.120117188 c 0,52,53
 689.120117188 -227.759765625 689.120117188 -227.759765625 689.120117188 -189.799804688 c 2,54,-1
 689.120117188 -188.33984375 l 2,0,1
EndSplineSet
EndChar

StartChar: bar
Encoding: 95 124 95
Width: 747
VWidth: 1495
GlyphClass: 2
Flags: W
LayerCount: 2
Back
Fore
SplineSet
448.950195312 -192.719726562 m 6,0,1
 448.950195312 -226.299804688 448.950195312 -226.299804688 424.129882812 -251.120117188 c 260,2,3
 400.76953125 -274.48046875 400.76953125 -274.48046875 365.73046875 -274.48046875 c 6,4,-1
 364.26953125 -274.48046875 l 6,5,6
 324.120117188 -274.48046875 324.120117188 -274.48046875 300.759765625 -251.120117188 c 256,7,8
 277.400390625 -227.759765625 277.400390625 -227.759765625 277.400390625 -192.719726562 c 2,9,-1
 277.400390625 1106.6796875 l 2,10,11
 277.400390625 1141.71972656 277.400390625 1141.71972656 300.759765625 1165.08007812 c 256,12,13
 325.580078125 1189.90039062 325.580078125 1189.90039062 364.26953125 1189.90039062 c 6,14,-1
 365.73046875 1189.90039062 l 6,15,16
 397.849609375 1189.90039062 397.849609375 1189.90039062 424.129882812 1165.08007812 c 260,17,18
 448.950195312 1141.71972656 448.950195312 1141.71972656 448.950195312 1106.6796875 c 6,19,-1
 448.950195312 -192.719726562 l 6,0,1
EndSplineSet
EndChar

